<svg width="38" height="36" viewBox="0 0 38 36" fill="none" xmlns="http://www.w3.org/2000/svg">
<path fill-rule="evenodd" clip-rule="evenodd" d="M0.5 18C0.5 11.4666 0.5 8.19997 2.13393 5.82571C2.62587 5.11086 3.21569 4.46882 3.88609 3.91843C6.11271 2.09039 9.36296 1.81911 15.8634 1.27655L19.0639 1.00942C26.9013 0.355265 30.82 0.0281911 33.5621 1.95491C34.23 2.42415 34.8329 2.9798 35.3552 3.60742C37.5 6.1845 37.5 10.123 37.5 18C37.5 25.877 37.5 29.8155 35.3552 32.3926C34.8329 33.0202 34.23 33.5759 33.5621 34.0451C30.82 35.9718 26.9013 35.6447 19.0639 34.9906L15.8634 34.7234C9.36296 34.1809 6.11271 33.9096 3.88609 32.0815C3.21569 31.5311 2.62587 30.8891 2.13393 30.1743C0.5 27.8 0.5 24.5334 0.5 18Z" fill="#242424"/>
<path fill-rule="evenodd" clip-rule="evenodd" d="M20.4932 10.8448C20.4355 10.3475 20.0128 9.96143 19.5 9.96143C18.9477 9.96143 18.5 10.4091 18.5 10.9614V17.5002H11.9612L11.8446 17.5069C11.3472 17.5647 10.9612 17.9874 10.9612 18.5002C10.9612 19.0525 11.4089 19.5002 11.9612 19.5002H18.5V26.039L18.5067 26.1556C18.5645 26.653 18.9871 27.039 19.5 27.039C20.0523 27.039 20.5 26.5913 20.5 26.039V19.5002H27.0388L27.1554 19.4935C27.6527 19.4357 28.0388 19.0131 28.0388 18.5002C28.0388 17.9479 27.5911 17.5002 27.0388 17.5002H20.5V10.9614L20.4932 10.8448Z" fill="white"/>
</svg>
