<svg width="44" height="44" viewBox="0 0 44 44" fill="none" xmlns="http://www.w3.org/2000/svg">
<path fill-rule="evenodd" clip-rule="evenodd" d="M21.9422 1.14441C10.4558 1.14441 1.14429 10.456 1.14429 21.9423C1.14429 33.4287 10.4558 42.7402 21.9422 42.7402C23.5282 42.7402 25.0748 42.5624 26.5623 42.2249C27.5049 42.011 28.0956 41.0735 27.8817 40.131C27.6678 39.1885 26.7304 38.5978 25.7878 38.8116C24.5527 39.0919 23.2658 39.2402 21.9422 39.2402C15.3677 39.2402 9.64985 35.5724 6.72328 30.1714L9.14862 31.4565L9.1486 31.4565L9.15877 31.4618C12.5563 33.2289 17.4978 32.0487 22.4528 27.5562C25.2511 25.0192 28.251 23.6188 31.1758 23.458C33.6298 23.3232 36.1669 24.0526 38.6447 25.9312C38.4423 26.966 38.2384 27.9094 38.1195 28.4335C37.9056 29.376 38.4963 30.3135 39.4389 30.5274C40.3814 30.7412 41.3189 30.1505 41.5327 29.208C41.6914 28.509 41.9874 27.1295 42.2449 25.7342C42.4909 24.4012 42.7401 22.8591 42.7401 21.9423C42.7401 10.456 33.4286 1.14441 21.9422 1.14441ZM39.1872 22.6633C39.2214 22.3628 39.2401 22.1169 39.2401 21.9423C39.2401 12.389 31.4956 4.64441 21.9422 4.64441C12.3888 4.64441 4.64429 12.389 4.64429 21.9423C4.64429 23.3104 4.80311 24.6414 5.10333 25.9179L10.5477 28.8027C12.2865 29.7034 15.8564 29.4875 20.4378 25.3337C23.6023 22.4646 27.2278 20.6705 31.0112 20.4626C33.7989 20.3094 36.5693 21.0237 39.1872 22.6633Z" fill="#242424" fill-opacity="0.8"/>
<path d="M36.7571 32.5245V40.9902" stroke="#242424" stroke-opacity="0.8" stroke-width="2.5" stroke-linecap="round"/>
<path d="M40.9902 36.7574L32.5245 36.7574" stroke="#242424" stroke-opacity="0.8" stroke-width="2.5" stroke-linecap="round"/>
<circle cx="14.5347" cy="16.6513" r="4.29109" stroke="#242424" stroke-opacity="0.8" stroke-width="2"/>
</svg>
