<svg width="160" height="100" viewBox="0 0 160 100" fill="none" xmlns="http://www.w3.org/2000/svg">
<rect width="160" height="100" rx="12" fill="#FCFCFC"/>
<path d="M50.0899 34H52.0099L48.0259 22.864H45.9139L41.9299 34H43.8339L44.6339 31.728H49.2899L50.0899 34ZM48.7779 30.24H45.1459L46.9699 25.072L48.7779 30.24ZM60.7542 22.864V31.152L55.2662 22.864H53.4422V34H55.2662V25.696L60.7542 34H62.5782V22.864H60.7542ZM71.9854 22.864V31.152L66.4974 22.864H64.6734V34H66.4974V25.696L71.9854 34H73.8094V22.864H71.9854ZM75.8887 29.936C75.8887 32.768 77.8727 34.112 80.2087 34.112C82.5287 34.112 84.5767 32.768 84.5767 29.936V22.88H82.7527V29.968C82.7527 31.696 81.7767 32.512 80.2247 32.512C78.6887 32.512 77.7127 31.696 77.7127 29.968V22.88H75.8887V29.936ZM94.1556 34H96.0756L92.0916 22.864H89.9796L85.9956 34H87.8996L88.6996 31.728H93.3556L94.1556 34ZM92.8436 30.24H89.2116L91.0356 25.072L92.8436 30.24ZM97.5078 22.88V34H103.092V32.528H99.3318V22.88H97.5078ZM104.317 22.88V34H109.901V32.528H106.141V22.88H104.317ZM113.863 29.968V34H115.687V29.968L119.367 22.88H117.351L114.775 28.336L112.199 22.88H110.167L113.863 29.968Z" fill="#242424" fill-opacity="0.6"/>
<path d="M32.3297 64.736C30.6017 65.456 29.5217 66.968 29.5217 69.032C29.5217 72.368 32.2577 74.384 35.8337 74.384C39.4337 74.384 42.1697 72.368 42.1697 69.032C42.1697 66.992 41.0897 65.48 39.3617 64.736C40.7297 64.04 41.7377 62.72 41.7377 60.872C41.7377 58.376 39.8177 56.168 35.8337 56.168C31.8497 56.168 29.9297 58.352 29.9297 60.872C29.9297 62.768 30.8897 63.992 32.3297 64.736ZM35.8337 63.752C34.3217 63.752 33.2177 62.816 33.2177 61.376C33.2177 59.744 34.2737 58.88 35.8337 58.88C37.4417 58.88 38.4737 59.768 38.4737 61.352C38.4737 62.792 37.3697 63.752 35.8337 63.752ZM35.8337 66.2C37.6337 66.2 38.8817 67.16 38.8817 68.888C38.8817 70.424 37.7537 71.6 35.8337 71.6C33.9137 71.6 32.7617 70.448 32.7617 68.888C32.7617 67.112 34.0817 66.2 35.8337 66.2ZM44.5236 65.024C44.5236 70.136 46.0596 73.952 51.0036 73.952C55.9476 73.952 57.4836 70.136 57.4836 65.024C57.4836 59.96 55.9476 56.168 51.0036 56.168C46.0596 56.168 44.5236 59.96 44.5236 65.024ZM54.1716 65.024C54.1716 68.144 53.8356 70.832 51.0036 70.832C48.1716 70.832 47.8356 68.144 47.8356 65.024C47.8356 62.024 48.1716 59.288 51.0036 59.288C53.8356 59.288 54.1716 62.024 54.1716 65.024ZM65.1152 76.088H66.6512V74.144C70.1552 73.904 72.0752 71.624 72.0752 69.176C72.0752 65.624 69.1472 64.976 66.6512 64.328V59.792C67.5872 60.08 68.1632 60.8 68.2592 61.736H71.8832C71.6672 58.88 69.6512 57.272 66.6512 57.032V55.088H65.1152V57.032C61.9952 57.272 59.7392 59.12 59.7392 61.952C59.7392 65.504 62.6432 66.2 65.1152 66.824V71.408C64.0112 71.168 63.4352 70.424 63.3392 69.32H59.7392C59.8112 72.2 62.0192 73.856 65.1152 74.12V76.088ZM68.5952 69.32C68.5952 70.4 67.8752 71.24 66.6512 71.456V67.256C67.7792 67.64 68.5952 68.192 68.5952 69.32ZM63.2432 61.784C63.2432 60.56 64.0112 59.888 65.1152 59.72V63.872C64.0112 63.488 63.2432 62.912 63.2432 61.784Z" fill="#F2B325"/>
<path d="M84.4918 65.608V62.536H86.0998C87.3478 62.536 87.8758 63.112 87.8758 64.084C87.8758 65.02 87.3478 65.608 86.0998 65.608H84.4918ZM88.9918 64.084C88.9918 62.716 88.0678 61.636 86.0998 61.636H83.3998V70H84.4918V66.508H86.0998C88.1758 66.508 88.9918 65.356 88.9918 64.084ZM94.549 61.624H90.049V70H94.549V69.1H91.141V66.22H94.189V65.32H91.141V62.524H94.549V61.624ZM100.377 64.096C100.377 65.032 99.8373 65.704 98.6013 65.704H96.9933V62.536H98.6013C99.8493 62.536 100.377 63.148 100.377 64.096ZM95.9013 61.636V70H96.9933V66.58H98.3133L100.305 70H101.613L99.5133 66.496C100.917 66.184 101.505 65.164 101.505 64.096C101.505 62.728 100.569 61.636 98.6013 61.636H95.9013ZM107.841 66.844V70H108.933V66.844L111.657 61.636H110.445L108.381 65.872L106.317 61.636H105.105L107.841 66.844ZM117.009 61.624H112.509V70H117.009V69.1H113.601V66.22H116.649V65.32H113.601V62.524H117.009V61.624ZM123.978 70H125.13L122.118 61.684H120.858L117.833 70H118.986L119.658 68.14H123.306L123.978 70ZM122.994 67.252H119.97L121.482 63.028L122.994 67.252ZM130.623 64.096C130.623 65.032 130.083 65.704 128.847 65.704H127.239V62.536H128.847C130.095 62.536 130.623 63.148 130.623 64.096ZM126.147 61.636V70H127.239V66.58H128.559L130.551 70H131.859L129.759 66.496C131.163 66.184 131.751 65.164 131.751 64.096C131.751 62.728 130.815 61.636 128.847 61.636H126.147Z" fill="#242424" fill-opacity="0.6"/>
</svg>
