<svg width="40" height="40" viewBox="0 0 40 40" fill="none" xmlns="http://www.w3.org/2000/svg">
<path fill-rule="evenodd" clip-rule="evenodd" d="M19.8773 0H20.1227C24.3092 0 27.8583 0.83543 30.7916 2.4042C33.7249 3.97296 36.0271 6.27505 37.5958 9.2084C39.1645 12.1417 40 15.6909 40 19.8773V20.1227C40 24.3092 39.1645 27.8583 37.5958 30.7916C36.0271 33.7249 33.7249 36.0271 30.7916 37.5958C27.8583 39.1645 24.3092 40 20.1227 40H19.8773C15.6909 40 12.1417 39.1645 9.2084 37.5958C6.27505 36.0271 3.97296 33.7249 2.4042 30.7916C0.83543 27.8583 0 24.3092 0 20.1227V19.8773C0 15.6909 0.83543 12.1417 2.4042 9.2084C3.97296 6.27505 6.27505 3.97296 9.2084 2.4042C12.1417 0.83543 15.6909 0 19.8773 0Z" fill="#F4F4F4"/>
<path fill-rule="evenodd" clip-rule="evenodd" d="M14.2115 19.9976C13.9295 20.2751 13.9295 20.7249 14.2115 21.0024L18.0634 24.7919C18.3454 25.0694 18.8027 25.0694 19.0848 24.7919C19.3668 24.5144 19.3668 24.0645 19.0848 23.7871L16.4658 21.2105L26.2778 21.2105C26.6766 21.2105 27 20.8924 27 20.5C27 20.1076 26.6766 19.7895 26.2778 19.7895L16.4658 19.7895L19.0848 17.2129C19.3668 16.9355 19.3668 16.4856 19.0848 16.2081C18.8027 15.9306 18.3454 15.9306 18.0634 16.2081L14.2115 19.9976Z" fill="#28303F"/>
</svg>
