<svg width="24" height="24" viewBox="0 0 24 24" fill="none" xmlns="http://www.w3.org/2000/svg">
<path opacity="0.4" d="M12 22C6.48 22 2 17.52 2 12C2 6.48 6.48 2 12 2C17.52 2 22 6.48 22 12C22 17.52 17.52 22 12 22Z" fill="#F2B325"/>
<path d="M15 11.75C14.28 11.75 13.75 11.01 13.75 10C13.75 8.99 14.28 8.25 15 8.25C15.72 8.25 16.25 8.99 16.25 10C16.25 11.01 15.72 11.75 15 11.75ZM10.25 10C10.25 8.99 9.71998 8.25 8.99998 8.25C8.27998 8.25 7.74998 8.99 7.74998 10C7.74998 11.01 8.27998 11.75 8.99998 11.75C9.71998 11.75 10.25 11.01 10.25 10ZM16.45 17.6C16.78 17.35 16.85 16.88 16.6 16.55C15.52 15.11 13.8 14.25 12.01 14.25C10.22 14.25 8.51998 15.09 7.40998 16.55C7.15998 16.88 7.21998 17.35 7.54998 17.6C7.87998 17.85 8.34999 17.79 8.59999 17.46C9.41999 16.38 10.66 15.76 12 15.76C13.34 15.76 14.59 16.4 15.39 17.46C15.54 17.66 15.76 17.76 15.99 17.76C16.15 17.76 16.3 17.71 16.44 17.61L16.45 17.6Z" fill="#F2B325"/>
</svg>
