<svg width="27" height="27" viewBox="0 0 27 27" fill="none" xmlns="http://www.w3.org/2000/svg">
<path fill-rule="evenodd" clip-rule="evenodd" d="M13.5001 1.59863C13.9785 1.59863 14.3663 1.98647 14.3663 2.46488V2.79631C14.9334 2.85387 15.4957 2.97248 16.0434 3.15211C18.6042 4.00079 20.5612 6.08825 21.2432 8.69842L19.5684 9.13847C19.035 7.09611 17.504 5.46257 15.5005 4.79798C14.8756 4.59329 14.2263 4.49013 13.5767 4.48856C13.5515 4.49078 13.5259 4.49191 13.5001 4.49191C13.4794 4.49191 13.4589 4.49118 13.4386 4.48976C12.8314 4.50176 12.2254 4.60256 11.6405 4.79221L11.241 3.56075L11.3699 3.96053L11.6405 4.79452C9.58812 5.46205 8.00906 7.11706 7.43862 9.19853L7.38665 9.38911C7.00476 10.7989 6.93447 12.275 7.18067 13.7146L7.18106 13.7169L7.20609 13.866L7.20647 13.8659C7.29079 14.3669 7.04766 14.8661 6.60125 15.1087L6.30911 14.5728L6.60125 15.1098C6.06648 15.4009 5.70381 15.9703 5.70381 16.6252H3.97247C3.97115 15.4917 4.5248 14.4389 5.43831 13.7958C5.19141 12.1752 5.28505 10.5201 5.71421 8.93635L5.76618 8.74462C6.48987 6.09849 8.4968 3.99432 11.1057 3.14633L11.3186 3.80234L11.2148 3.48014L11.1057 3.14402C11.6056 2.98189 12.1175 2.87052 12.6338 2.8099V2.46488C12.6338 1.98647 13.0216 1.59863 13.5001 1.59863ZM19.9253 18.3138L20.2718 20.0116C21.8787 19.6812 23.0311 18.2657 23.0288 16.6252C23.0301 15.492 22.4766 14.4384 21.5617 13.7948C21.812 12.1889 21.7286 10.5479 21.3159 8.97446L21.2443 8.69957L19.5684 9.13847V9.13963L19.64 9.41452L19.6412 9.41422V9.41452C20.0058 10.8058 20.0688 12.2589 19.826 13.6765L20.6787 13.823L19.826 13.6776L19.7987 13.8371L19.7983 13.837C19.7059 14.3729 19.9819 14.8742 20.415 15.1168L21.0136 14.0464L21.0151 14.0467L20.4155 15.1182L20.415 15.1179V15.1191L20.4155 15.1182C20.9419 15.4128 21.2963 15.9774 21.2963 16.6252C21.2963 17.4487 20.72 18.1521 19.9253 18.3138ZM19.9242 18.314L19.9242 18.3138H19.9253L19.9242 18.314ZM19.8468 20.0983L19.5003 18.4004L19.9242 18.314L20.2707 20.0116L19.8468 20.0983ZM9.30972 20.5476L9.40443 20.9333C9.77652 22.4517 10.9652 23.6353 12.4851 24.0008L12.4848 24.0022L12.486 24.001C13.1523 24.1615 13.8475 24.1616 14.5139 24.0011L14.5142 24.0022V24.001C16.0345 23.6357 17.2235 22.452 17.5957 20.9333L16.3008 20.615L16.301 20.6149L17.5968 20.9333L17.6916 20.5476C17.6988 20.5177 17.7058 20.4879 17.7125 20.458C18.4267 20.3625 19.1386 20.2426 19.8468 20.0983L19.5003 18.4004C15.5408 19.2072 11.4593 19.2072 7.49984 18.4004L7.07591 18.314L7.07595 18.3138H7.07572H7.0748C6.27469 18.1481 5.70165 17.4423 5.70381 16.6252H3.97131C3.97131 18.2649 5.12116 19.6841 6.72834 20.0114L6.7283 20.0116L7.15334 20.0983C7.86183 20.2426 8.57392 20.3626 9.28839 20.4581C9.29521 20.488 9.30232 20.5178 9.30972 20.5476ZM12.8891 22.3159C13.291 22.4129 13.7091 22.4129 14.1111 22.3159L14.4368 23.6776L14.1122 22.3159C14.9578 22.1119 15.6278 21.4754 15.8785 20.6495C14.2954 20.7684 12.7062 20.7684 11.1231 20.6496C11.3738 21.4754 12.0436 22.1118 12.8891 22.3159Z" fill="black"/>
</svg>
