<svg width="22" height="20" viewBox="0 0 22 20" fill="none" xmlns="http://www.w3.org/2000/svg">
<path d="M11 4.05337V18.3025M4 6.25464C5.26578 6.45067 6.67778 6.77657 8 7.28788M4 10.2546C4.63949 10.3537 5.3163 10.4859 6 10.6584M2.99433 1.01127C5.21271 1.26195 8.19313 1.93632 10.3168 3.42445C10.725 3.71045 11.275 3.71045 11.6832 3.42445C13.8069 1.93632 16.7873 1.26195 19.0057 1.01127C20.1036 0.887209 21 1.80402 21 2.93518V14.2C21 15.3311 20.1036 16.2483 19.0057 16.3723C16.7873 16.623 13.8069 17.2974 11.6832 18.7855C11.275 19.0715 10.725 19.0715 10.3168 18.7855C8.19313 17.2974 5.21271 16.623 2.99433 16.3723C1.89642 16.2483 1 15.3311 1 14.2V2.93518C1 1.80402 1.89642 0.887209 2.99433 1.01127Z" stroke="#242424" stroke-opacity="0.8" stroke-width="1.5" stroke-linecap="round"/>
</svg>
