<svg width="15" height="14" viewBox="0 0 15 14" fill="none" xmlns="http://www.w3.org/2000/svg">
<path d="M4.3501 3.37295V4.12295C4.59934 4.12295 4.83229 3.99913 4.97173 3.79255L4.3501 3.37295ZM5.26417 2.01876L4.64253 1.59916V1.59916L5.26417 2.01876ZM9.93602 2.01876L10.5577 1.59916V1.59916L9.93602 2.01876ZM10.8501 3.37295L10.2285 3.79255C10.3679 3.99913 10.6009 4.12295 10.8501 4.12295V3.37295ZM8.8001 8.18776C8.8001 8.82845 8.27165 9.36369 7.6001 9.36369V10.8637C9.08246 10.8637 10.3001 9.67439 10.3001 8.18776H8.8001ZM7.6001 9.36369C6.92854 9.36369 6.4001 8.82845 6.4001 8.18776H4.9001C4.9001 9.67439 6.11774 10.8637 7.6001 10.8637V9.36369ZM6.4001 8.18776C6.4001 7.54707 6.92854 7.01184 7.6001 7.01184V5.51184C6.11774 5.51184 4.9001 6.70113 4.9001 8.18776H6.4001ZM7.6001 7.01184C8.27165 7.01184 8.8001 7.54707 8.8001 8.18776H10.3001C10.3001 6.70113 9.08246 5.51184 7.6001 5.51184V7.01184ZM4.97173 3.79255L5.88581 2.43837L4.64253 1.59916L3.72846 2.95334L4.97173 3.79255ZM6.34584 2.19702H8.85436V0.697021H6.34584V2.19702ZM9.31439 2.43837L10.2285 3.79255L11.4717 2.95334L10.5577 1.59916L9.31439 2.43837ZM8.85436 2.19702C9.04236 2.19702 9.21416 2.28989 9.31439 2.43837L10.5577 1.59916C10.1757 1.03325 9.53567 0.697021 8.85436 0.697021V2.19702ZM5.88581 2.43837C5.98603 2.28989 6.15783 2.19702 6.34584 2.19702V0.697021C5.66452 0.697021 5.02452 1.03325 4.64253 1.59916L5.88581 2.43837ZM13.3501 5.94085V10.4347H14.8501V5.94085H13.3501ZM11.5001 12.2526H3.7001V13.7526H11.5001V12.2526ZM1.8501 10.4347V5.94085H0.350098V10.4347H1.8501ZM3.7001 12.2526C2.66956 12.2526 1.8501 11.4299 1.8501 10.4347H0.350098C0.350098 12.2759 1.85875 13.7526 3.7001 13.7526V12.2526ZM13.3501 10.4347C13.3501 11.4299 12.5306 12.2526 11.5001 12.2526V13.7526C13.3414 13.7526 14.8501 12.2759 14.8501 10.4347H13.3501ZM11.5001 4.12295C12.5306 4.12295 13.3501 4.94561 13.3501 5.94085H14.8501C14.8501 4.09967 13.3414 2.62295 11.5001 2.62295V4.12295ZM3.7001 2.62295C1.85875 2.62295 0.350098 4.09967 0.350098 5.94085H1.8501C1.8501 4.94561 2.66956 4.12295 3.7001 4.12295V2.62295ZM3.7001 4.12295H4.3501V2.62295H3.7001V4.12295ZM11.5001 2.62295H10.8501V4.12295H11.5001V2.62295Z" fill="#28303F"/>
</svg>
