<svg width="25" height="24" viewBox="0 0 25 24" fill="none" xmlns="http://www.w3.org/2000/svg">
<path d="M17.8726 8.17276C20.5986 9.39695 22.5 12.1611 22.5 15.375V18.75C22.5 19.9926 21.5051 21 20.2778 21H13.6111C10.7084 21 8.23898 19.1217 7.32379 16.5M17.8726 8.17276C17.1711 5.20566 14.5344 3 11.3889 3H10.2778C5.98223 3 2.5 6.52576 2.5 10.875V14.25C2.5 15.4926 3.49492 16.5 4.72222 16.5H7.32379M17.8726 8.17276C17.9922 8.67875 18.0556 9.20688 18.0556 9.75C18.0556 13.4779 15.0708 16.5 11.3889 16.5H7.32379" stroke="#242424" stroke-width="1.5" stroke-linejoin="round"/>
</svg>
