<svg width="40" height="40" viewBox="0 0 40 40" fill="none" xmlns="http://www.w3.org/2000/svg">
<path fill-rule="evenodd" clip-rule="evenodd" d="M19.8773 0H20.1227C24.3092 0 27.8583 0.83543 30.7916 2.4042C33.7249 3.97296 36.0271 6.27505 37.5958 9.2084C39.1645 12.1417 40 15.6909 40 19.8773V20.1227C40 24.3092 39.1645 27.8583 37.5958 30.7916C36.0271 33.7249 33.7249 36.0271 30.7916 37.5958C27.8583 39.1645 24.3092 40 20.1227 40H19.8773C15.6909 40 12.1417 39.1645 9.2084 37.5958C6.27505 36.0271 3.97296 33.7249 2.4042 30.7916C0.83543 27.8583 0 24.3092 0 20.1227V19.8773C0 15.6909 0.83543 12.1417 2.4042 9.2084C3.97296 6.27505 6.27505 3.97296 9.2084 2.4042C12.1417 0.83543 15.6909 0 19.8773 0Z" fill="#F4F4F4"/>
<path fill-rule="evenodd" clip-rule="evenodd" d="M26.692 28.6039C27.22 29.1319 28.076 29.1319 28.604 28.6039C29.132 28.076 29.132 27.2199 28.604 26.6919L21.912 20L28.604 13.3081C29.132 12.7801 29.132 11.924 28.604 11.3961C28.076 10.8681 27.22 10.8681 26.692 11.3961L20 18.088L13.308 11.396C12.78 10.868 11.924 10.868 11.396 11.396C10.868 11.924 10.868 12.78 11.396 13.308L18.088 20L11.396 26.692C10.868 27.22 10.868 28.076 11.396 28.604C11.924 29.132 12.78 29.132 13.308 28.604L20 21.912L26.692 28.6039Z" fill="#28303F"/>
</svg>
