<svg width="33" height="32" viewBox="0 0 33 32" fill="none" xmlns="http://www.w3.org/2000/svg">
<rect y="0.5" width="33" height="31" rx="12" fill="#F4F4F4"/>
<path d="M12.25 13.1667H10.8333C10.0509 13.1667 9.41663 13.8009 9.41663 14.5833V20.9583C9.41663 21.7407 10.0509 22.375 10.8333 22.375H12.25C13.0324 22.375 13.6666 21.7407 13.6666 20.9583V14.5833C13.6666 13.8009 13.0324 13.1667 12.25 13.1667Z" stroke="#242424" stroke-width="1.5" stroke-linecap="round" stroke-linejoin="round"/>
<path d="M19.2461 22.375H16.6495C16.0901 22.375 15.5433 22.2094 15.0778 21.8991L13.982 21.1686C13.785 21.0372 13.6666 20.8161 13.6666 20.5792V14.7714C13.6666 14.6482 13.6988 14.527 13.76 14.42L16.5 9.625H17.4411C18.8555 9.625 19.6991 11.2013 18.9146 12.3781L17.9166 13.875H21.7689C22.6905 13.875 23.3668 14.7411 23.1432 15.6353L21.9948 20.2289C21.6795 21.4902 20.5462 22.375 19.2461 22.375Z" stroke="#242424" stroke-width="1.5" stroke-linecap="round" stroke-linejoin="round"/>
</svg>
