<svg width="53" height="53" viewBox="0 0 53 53" fill="none" xmlns="http://www.w3.org/2000/svg">
<rect width="53" height="53" rx="12" fill="#F7FAEA"/>
<path fill-rule="evenodd" clip-rule="evenodd" d="M20.3752 21.1071L20.1125 21.1973C13.9827 23.3587 14.0703 27.3522 20.3756 29.4503L22.5384 30.1706L23.2608 32.3358C25.3884 38.7297 29.4763 38.7297 31.604 32.3354L34.4344 23.8441C35.8888 19.4463 33.259 16.8125 28.8652 18.2771L20.3752 21.1071ZM33.0736 23.1736L33.0108 23.3714L30.1809 31.8614C30.046 32.2668 29.908 32.6394 29.7674 32.9794L29.5974 33.3716C28.2568 36.3214 26.7027 36.3829 25.3532 33.5562L25.1821 33.1797C25.0405 32.8528 24.9014 32.4933 24.7653 32.1011L23.9305 29.6009L27.4334 26.0882L27.5059 26.004C27.7234 25.7101 27.6986 25.2934 27.432 25.0275C27.1387 24.7351 26.6638 24.7357 26.3713 25.029L22.7913 28.619L22.7543 28.662L20.8495 28.0271C20.4442 27.8922 20.0715 27.7543 19.7316 27.6138L19.3393 27.444C16.0756 25.962 16.3477 24.2231 20.1559 22.7771L20.611 22.6116L29.3395 19.7001C32.4935 18.6488 34.0137 20.0836 33.0736 23.1736Z" fill="#8EBA43"/>
</svg>
