<svg width="286" height="286" viewBox="0 0 286 286" fill="none" xmlns="http://www.w3.org/2000/svg">
<path d="M223.078 149.552C220.479 145.627 214.579 144.293 210.637 146.874C209.401 147.683 207.024 149.342 206.025 147.363C205.569 146.458 205.749 145.058 205.707 144.074C205.653 142.792 205.598 141.51 205.543 140.229C205.4 136.753 205.376 133.212 204.659 129.79C204.164 127.426 203.229 125.198 202.395 122.943C200.05 116.651 198.677 108.958 192.814 104.846C186.7 100.556 178.38 102.177 171.177 104.149C153.959 108.868 137.042 114.622 120.518 121.381C119.039 121.986 117.515 122.636 116.452 123.831C114.868 125.619 114.698 128.15 114.818 130.594C114.675 131.166 114.543 131.738 114.442 132.322C113.843 135.764 113.943 139.304 113.914 142.783C113.903 144.066 113.892 145.349 113.881 146.631C113.873 147.611 114.1 149.003 113.675 149.92C112.743 151.932 110.312 150.349 109.051 149.588C105.03 147.143 99.1766 148.677 96.7156 152.688C94.2545 156.7 95.4214 162.467 99.1351 165.357C102.849 168.247 108.573 168.038 112.197 165.034C112.739 164.583 113.322 164.05 114.026 164.086C114.991 164.136 115.539 165.201 115.803 166.132C117.694 172.763 115.726 180.879 120.412 185.937C123.467 189.226 128.326 189.957 132.792 190.456C140.321 191.297 149.83 191.975 157.96 191.547C168.093 191.28 178.303 189.987 188.308 188.523C192.753 187.872 197.586 186.983 200.526 183.585C205.038 178.37 202.793 170.326 204.457 163.634C204.691 162.694 205.201 161.61 206.165 161.529C206.866 161.467 207.468 161.982 208.024 162.414C211.742 165.292 217.475 165.307 221.09 162.292C224.705 159.278 225.68 153.478 223.078 149.552Z" fill="url(#paint0_linear_405_8661)"/>
<path d="M102.456 162.221C102.331 162.221 102.21 162.18 102.111 162.105C100.794 161.104 99.3825 159.893 99.2882 158.148C99.2295 157.063 99.7172 155.945 100.771 154.726C101.666 153.695 102.533 153.249 103.419 153.359C103.57 153.378 103.707 153.456 103.8 153.576C103.893 153.696 103.935 153.848 103.916 153.998C103.897 154.149 103.819 154.286 103.699 154.379C103.579 154.472 103.427 154.513 103.276 154.495C102.803 154.437 102.251 154.766 101.635 155.477C100.777 156.459 100.388 157.313 100.429 158.087C100.497 159.344 101.689 160.349 102.802 161.194C102.897 161.267 102.967 161.367 103.002 161.482C103.037 161.596 103.035 161.719 102.997 161.832C102.958 161.946 102.885 162.044 102.788 162.114C102.691 162.184 102.574 162.221 102.454 162.221H102.456Z" fill="white"/>
<path d="M152.733 178.527C152.613 178.528 152.495 178.49 152.397 178.42C152.299 178.35 152.226 178.25 152.188 178.136C152.15 178.022 152.149 177.898 152.185 177.784C152.222 177.669 152.293 177.568 152.39 177.496C158.919 172.634 168.46 168.366 174.064 169.631C175.76 170.015 176.974 170.88 177.672 172.205C177.711 172.272 177.736 172.346 177.745 172.422C177.754 172.499 177.748 172.576 177.727 172.65C177.706 172.724 177.67 172.793 177.621 172.853C177.573 172.913 177.512 172.962 177.444 172.998C177.376 173.034 177.301 173.056 177.225 173.062C177.148 173.069 177.071 173.059 176.997 173.035C176.924 173.011 176.857 172.972 176.799 172.921C176.741 172.87 176.694 172.808 176.661 172.739C176.126 171.725 175.167 171.056 173.811 170.75C169.235 169.716 160.323 173.01 153.076 178.414C152.977 178.489 152.857 178.529 152.733 178.527Z" fill="#242424" fill-opacity="0.8"/>
<path d="M218.513 211.349C226.807 214.55 230.887 218.56 233.456 223.315C236.026 228.07 236.778 235.297 237.031 240.463C237.086 241.567 237.01 242.857 235.877 243.508C235.235 243.878 234.4 243.968 233.607 243.993C203.263 244.937 139.209 244.429 108.969 243.551C107.95 233.086 111.279 222.19 120.7 217.614C136.716 209.829 193.916 201.853 218.513 211.349Z" fill="#242424"/>
<path d="M210.546 244.846H210.504C210.429 244.841 210.355 244.82 210.288 244.787C210.221 244.753 210.162 244.706 210.113 244.649C210.064 244.592 210.026 244.526 210.003 244.454C209.979 244.383 209.97 244.308 209.976 244.233C210.013 243.744 210.052 243.189 210.095 242.593C210.282 239.994 210.536 236.436 210.848 234.251C211.05 232.83 211.356 231.357 212.647 230.352C213.477 229.707 214.828 229.457 215.936 229.745C216.693 229.943 217.246 230.375 217.493 230.962C217.55 231.102 217.55 231.258 217.492 231.397C217.434 231.536 217.324 231.646 217.186 231.705C217.047 231.763 216.891 231.765 216.752 231.709C216.612 231.653 216.5 231.545 216.439 231.407C216.296 231.067 215.882 230.914 215.647 230.852C214.888 230.655 213.903 230.828 213.359 231.254C212.403 231.998 212.165 233.173 211.989 234.413C211.683 236.558 211.43 240.093 211.244 242.674C211.201 243.272 211.161 243.828 211.126 244.319C211.114 244.464 211.048 244.599 210.941 244.697C210.833 244.795 210.692 244.849 210.546 244.846Z" fill="white"/>
<path d="M216.467 159.715C216.335 159.716 216.208 159.671 216.105 159.589C216.003 159.506 215.932 159.391 215.905 159.263C215.877 159.134 215.895 159 215.955 158.883C216.015 158.766 216.113 158.673 216.234 158.62C217.418 158.092 218.158 156.632 217.882 155.365C217.606 154.098 216.328 153.07 215.032 153.089C214.881 153.089 214.735 153.029 214.628 152.921C214.521 152.814 214.46 152.669 214.46 152.517C214.46 152.365 214.521 152.22 214.628 152.112C214.735 152.005 214.881 151.945 215.032 151.945H215.064C216.893 151.945 218.622 153.335 219.011 155.122C219.4 156.91 218.39 158.918 216.708 159.665C216.632 159.7 216.55 159.717 216.467 159.715V159.715Z" fill="white"/>
<path d="M166.806 140.04C166.343 140.048 165.884 139.951 165.464 139.754C165.149 139.606 164.874 139.385 164.663 139.108C164.452 138.832 164.311 138.508 164.252 138.165C164.18 137.736 164.209 137.296 164.335 136.88C164.461 136.463 164.682 136.082 164.98 135.764C165.92 134.755 167.328 134.299 168.808 133.883C170.219 133.508 171.756 133.139 173.241 132.781C174.725 132.424 176.244 132.059 177.648 131.687C178.496 131.462 185.96 129.562 186.8 132.425C186.813 132.469 186.821 132.515 186.823 132.561C186.906 134.437 185.057 135.876 181.476 136.724L168.606 139.771C168.018 139.929 167.414 140.019 166.806 140.04ZM169.114 134.988C167.797 135.357 166.554 135.754 165.825 136.547C165.649 136.733 165.518 136.957 165.442 137.201C165.365 137.445 165.345 137.703 165.383 137.957C165.41 138.123 165.478 138.28 165.58 138.414C165.682 138.549 165.815 138.656 165.968 138.727C166.605 139.035 167.499 138.862 168.36 138.657L181.23 135.611C182.579 135.292 185.679 134.374 185.699 132.688C185.286 131.75 181.728 131.79 177.962 132.793C176.551 133.169 175.015 133.538 173.529 133.894C172.044 134.25 170.511 134.616 169.114 134.988Z" fill="#242424" fill-opacity="0.8"/>
<path d="M146.94 139.821C146.124 139.821 145.153 139.665 144.019 139.354L130.517 135.653C129.676 135.423 128.818 135.141 128.362 134.453C128.216 134.248 128.124 134.009 128.097 133.759C128.069 133.508 128.105 133.255 128.203 133.023C128.616 132.056 130.015 131.44 131.206 131.171C131.285 131.126 131.374 131.101 131.465 131.098C136.482 130.927 141.481 131.8 146.144 133.661C147.252 134.106 148.386 134.636 149.178 135.493C150.15 136.547 150.295 137.964 149.523 138.863C148.964 139.505 148.111 139.821 146.94 139.821ZM131.713 132.242C130.558 132.452 129.457 133.006 129.255 133.479C129.23 133.537 129.222 133.602 129.233 133.664C129.243 133.727 129.271 133.785 129.314 133.832C129.571 134.22 130.352 134.433 130.82 134.562L144.32 138.263C147.136 139.033 148.228 138.611 148.649 138.12C149.069 137.628 148.822 136.804 148.331 136.272C147.694 135.581 146.696 135.119 145.712 134.725C141.264 132.952 136.5 132.107 131.713 132.242V132.242Z" fill="#242424" fill-opacity="0.8"/>
<path d="M171.781 146.316C167.938 144.935 167.169 149.125 168.294 150.25C169.42 151.376 171.326 151.51 172.448 150.383C172.856 149.992 173.139 149.489 173.263 148.938C173.355 148.397 173.258 147.841 172.988 147.363C172.718 146.886 172.291 146.516 171.781 146.316V146.316Z" fill="#242424" fill-opacity="0.8"/>
<path d="M170.508 151.736C169.527 151.734 168.587 151.345 167.891 150.654C167.066 149.831 167.02 148.098 167.789 146.871C168.184 146.242 169.381 144.876 171.968 145.776C172.607 146.024 173.142 146.484 173.48 147.081C173.819 147.677 173.941 148.372 173.827 149.048C173.681 149.71 173.343 150.314 172.855 150.785C172.546 151.09 172.181 151.332 171.779 151.495C171.376 151.658 170.946 151.739 170.512 151.735L170.508 151.736ZM170.365 146.622C170.044 146.608 169.726 146.679 169.443 146.83C169.16 146.981 168.922 147.206 168.756 147.48C168.253 148.284 168.303 149.452 168.696 149.847C169.177 150.324 169.827 150.593 170.505 150.594V150.594C170.788 150.598 171.07 150.545 171.333 150.44C171.596 150.335 171.836 150.178 172.038 149.98C172.364 149.667 172.593 149.267 172.697 148.827C172.762 148.421 172.687 148.005 172.485 147.647C172.282 147.289 171.965 147.011 171.583 146.857C171.194 146.712 170.783 146.633 170.368 146.622H170.365Z" fill="#242424" fill-opacity="0.8"/>
<path d="M141.971 146.316C138.128 144.935 137.36 149.125 138.486 150.25C139.611 151.376 141.516 151.51 142.633 150.383C143.041 149.992 143.324 149.489 143.448 148.938C143.54 148.397 143.444 147.842 143.175 147.365C142.906 146.887 142.481 146.517 141.971 146.316V146.316Z" fill="#242424" fill-opacity="0.8"/>
<path d="M140.7 151.736C139.718 151.734 138.777 151.345 138.081 150.654C137.258 149.831 137.212 148.098 137.981 146.871C138.376 146.242 139.573 144.869 142.16 145.776C142.798 146.025 143.33 146.486 143.667 147.082C144.005 147.678 144.126 148.373 144.01 149.048C143.865 149.71 143.527 150.315 143.039 150.785C142.73 151.09 142.365 151.331 141.963 151.494C141.561 151.657 141.13 151.739 140.697 151.735L140.7 151.736ZM140.557 146.622C140.236 146.608 139.917 146.679 139.634 146.83C139.351 146.981 139.114 147.206 138.948 147.48C138.444 148.284 138.493 149.452 138.888 149.847C139.369 150.324 140.019 150.593 140.697 150.594V150.594C140.98 150.598 141.262 150.546 141.525 150.44C141.789 150.335 142.029 150.179 142.231 149.98C142.557 149.667 142.786 149.267 142.89 148.827C142.955 148.421 142.88 148.005 142.677 147.648C142.475 147.29 142.157 147.011 141.776 146.857C141.389 146.713 140.98 146.633 140.567 146.622H140.557Z" fill="#242424" fill-opacity="0.8"/>
<path d="M176.889 118.372C181.649 125.078 189.251 126.222 194.407 124.083C194.584 124.011 194.776 123.985 194.966 124.006C195.155 124.028 195.336 124.096 195.493 124.206C195.649 124.315 195.775 124.461 195.861 124.632C195.946 124.803 195.987 124.992 195.98 125.183C195.727 132.84 194.488 150.843 207.027 148.243C220.671 145.416 220.546 104.558 202.308 82.4328C196.97 75.9578 191.505 74.7208 188.151 74.8695C184.798 75.0182 181.602 78.7534 183.223 81.6906C167.842 68.9636 146.84 63.2822 127.139 66.5326C122.571 67.2877 117.954 68.5546 114.259 71.3431C110.564 74.1316 107.942 78.7005 108.527 83.2922C109.066 87.5293 114.884 88.9965 113.675 93.0934C113.149 94.8795 111.858 96.331 110.529 97.6323C105.397 102.637 99.0893 106.424 94.4747 111.921C92.1324 114.718 90.2033 118.432 91.3087 121.908C92.2482 124.859 95.2098 126.803 98.2456 127.421C101.282 128.038 104.42 127.564 107.482 127.093C106.43 134.711 105.597 143.239 110.249 149.363C110.864 150.173 111.642 150.963 112.644 151.129C113.871 151.332 115.031 150.557 115.979 149.746C122.893 143.873 126.45 134.309 125.131 125.344C125.114 125.225 125.125 125.104 125.161 124.989C125.198 124.875 125.259 124.77 125.342 124.683C125.424 124.595 125.525 124.527 125.637 124.484C125.749 124.44 125.869 124.423 125.989 124.432C136.723 125.203 145.634 123.684 153.731 117.196C153.939 117.031 154.178 116.91 154.434 116.839C154.69 116.768 154.958 116.749 155.221 116.783C155.484 116.818 155.738 116.904 155.967 117.038C156.196 117.172 156.396 117.351 156.555 117.564L156.564 117.575C157.122 118.29 157.972 118.778 158.832 119.039C161.018 119.704 163.025 118.753 164.508 117.122C166.734 114.682 167.704 109.022 172.23 111.974C174.472 113.431 175.403 116.274 176.889 118.372Z" fill="#242424" fill-opacity="0.5"/>
<path d="M184.182 90.9054C181.846 90.9054 179.57 89.8958 178.033 88.5859C176.781 87.5148 175.69 86.0791 174.792 84.3188C174.738 84.2115 174.633 83.9699 174.437 83.518C174.213 82.996 173.904 82.2811 173.6 81.619C173.332 81.047 173.059 80.6923 172.807 80.6065C172.556 80.5207 172.222 80.6608 171.751 80.9096C166.829 83.4881 161.356 84.8369 155.8 84.8407C154.393 84.8416 152.988 84.7528 151.592 84.5748C147.758 84.0843 145.157 82.7501 143.846 80.6122C141.446 76.6826 144.14 71.7176 147.175 68.6588C150.358 65.4674 154.132 62.9254 158.286 61.1742L158.33 61.1557C159.198 60.791 159.731 60.5064 159.922 60.3105C159.77 60.2061 159.35 59.9916 158.228 59.7714C155.656 59.2711 153.258 58.1067 151.274 56.3937C149.365 54.7306 148.105 52.1509 147.985 49.6599C147.894 47.7093 148.484 46.0062 149.701 44.7335C151.106 43.2563 153.11 42.6014 154.706 42.1952C160.777 40.6451 167.521 41.1542 173.692 43.6252C179.086 45.7888 183.76 49.3381 187.067 53.7468C186.905 50.6356 187.591 47.5388 189.054 44.7879C190.039 42.9589 191.176 41.8278 192.528 41.3273C195.13 40.3677 197.897 41.9793 199.62 43.8083C203.767 48.2041 204.868 55.2483 202.31 60.9368C202.217 61.1442 202.108 61.3573 202.001 61.5632C201.809 61.9336 201.412 62.7072 201.535 62.8845C201.545 62.9002 201.821 63.2606 203.848 63.0275C204.706 62.9303 205.716 62.8974 206.604 63.4036C206.956 63.6037 207.263 63.875 207.505 64.2003C207.747 64.5255 207.918 64.8975 208.008 65.2926C208.42 66.9628 207.644 68.9992 206.853 70.2362C204.728 73.558 201.693 76.3708 198.077 78.3728C197.334 78.7584 196.566 79.0928 195.777 79.3738C193.79 80.136 191.916 80.8553 191.43 82.7686C191.287 83.3063 191.19 83.844 191.088 84.3631C190.659 86.551 190.262 88.6188 187.702 90.0202C186.622 90.6086 185.411 90.9132 184.182 90.9054V90.9054ZM172.661 79.4382C172.838 79.4379 173.013 79.4664 173.181 79.5226C173.761 79.7199 174.226 80.2376 174.643 81.1399C174.955 81.8149 175.265 82.537 175.501 83.0647C175.644 83.4007 175.787 83.7182 175.825 83.7997C176.654 85.4256 177.652 86.744 178.789 87.7164C180.811 89.4453 184.292 90.5908 187.156 89.0235C189.244 87.8795 189.564 86.235 189.969 84.1515C190.073 83.6167 190.18 83.0647 190.323 82.4955C190.951 80.0073 193.299 79.1064 195.37 78.3128C196.109 78.0514 196.829 77.7393 197.525 77.379C200.977 75.4699 203.87 72.7887 205.892 69.6269C206.607 68.4987 207.205 66.8084 206.893 65.5729C206.841 65.3283 206.738 65.0975 206.59 64.896C206.442 64.6945 206.253 64.527 206.035 64.4046C205.433 64.0628 204.688 64.09 203.973 64.1715C202.082 64.386 201.038 64.1915 200.588 63.538C200.076 62.7944 200.556 61.8635 200.98 61.0427C201.084 60.8411 201.183 60.6509 201.266 60.4707C203.638 55.1926 202.619 48.6632 198.786 44.5977C197.313 43.0361 195.001 41.6404 192.923 42.4069C191.843 42.8058 190.907 43.7639 190.063 45.3355C188.343 48.5731 187.788 52.3035 188.49 55.9018C188.517 56.0333 188.496 56.1699 188.432 56.2878C188.368 56.4057 188.265 56.4974 188.14 56.5468C188.015 56.5962 187.877 56.6002 187.75 56.5581C187.623 56.516 187.514 56.4305 187.443 56.3165C180.798 45.673 167.152 40.2004 154.994 43.3035C153.552 43.6724 151.743 44.2559 150.539 45.5215C149.29 46.8371 149.091 48.4687 149.145 49.6055C149.248 51.7963 150.358 54.0657 152.041 55.53C153.873 57.1119 156.088 58.187 158.464 58.6488C160.258 59.002 161.054 59.4625 161.128 60.1889C161.23 61.1828 159.819 61.7762 158.788 62.2095L158.743 62.2282C154.723 63.9211 151.071 66.379 147.988 69.4654C145.244 72.2296 142.769 76.6511 144.824 80.0159C145.94 81.8434 148.267 82.9961 151.739 83.4394C158.441 84.2726 165.237 83.0392 171.219 79.9044C171.653 79.667 172.144 79.4382 172.657 79.4382H172.661Z" fill="#242424"/>
<path d="M175.519 62.7288H175.464C171.782 62.3785 170.552 60.5724 170.146 59.5271C169.658 58.2672 169.876 56.8186 170.688 55.9249C171.382 55.1584 172.507 54.8124 174.033 54.8881C176.3 55.0061 178.493 55.7312 180.383 56.9874C180.447 57.0284 180.503 57.0816 180.546 57.1441C180.589 57.2066 180.619 57.2771 180.635 57.3515C180.65 57.4258 180.651 57.5025 180.637 57.5771C180.622 57.6517 180.593 57.7227 180.551 57.7859C180.509 57.8492 180.455 57.9033 180.392 57.9454C180.328 57.9875 180.257 58.0165 180.183 58.0309C180.108 58.0452 180.032 58.0445 179.957 58.0288C179.883 58.0132 179.812 57.9829 179.75 57.9397C178.032 56.7943 176.037 56.1324 173.974 56.0236C172.807 55.9621 171.988 56.1852 171.535 56.6842C171.106 57.1533 170.828 58.1142 171.213 59.1052C171.523 59.9045 172.5 61.2903 175.573 61.582C175.725 61.5892 175.867 61.6563 175.969 61.7687C176.072 61.8811 176.125 62.0294 176.118 62.1811C176.111 62.3328 176.043 62.4755 175.931 62.5777C175.819 62.6798 175.67 62.7332 175.519 62.726V62.7288Z" fill="#242424"/>
<path d="M160.89 75.3283C159.205 75.3283 157.711 74.7262 157.396 73.229C157.136 71.9978 157.894 70.7094 159.474 69.6941C161.902 68.1461 164.733 67.3501 167.612 67.4061C167.687 67.4077 167.761 67.424 167.83 67.4543C167.899 67.4845 167.961 67.5279 168.013 67.5822C168.065 67.6364 168.106 67.7004 168.133 67.7704C168.16 67.8404 168.174 67.9151 168.172 67.9902C168.17 68.0654 168.154 68.1394 168.124 68.2082C168.094 68.277 168.05 68.3392 167.996 68.3912C167.942 68.4432 167.878 68.4839 167.808 68.5112C167.738 68.5385 167.663 68.5517 167.588 68.5501C164.936 68.4994 162.327 69.2343 160.092 70.6622C159.663 70.9368 158.287 71.9177 158.519 72.9988C158.805 74.3716 161.093 74.2858 162.271 74.0455C165.022 73.4843 167.73 72.7259 170.372 71.7762C170.513 71.7318 170.665 71.7436 170.798 71.8091C170.93 71.8747 171.032 71.9889 171.082 72.1278C171.132 72.2667 171.127 72.4196 171.066 72.5545C171.006 72.6894 170.896 72.7959 170.76 72.8515C168.066 73.8209 165.305 74.5946 162.5 75.1667C161.97 75.2734 161.43 75.3275 160.89 75.3283V75.3283Z" fill="#242424"/>
<path d="M185.102 71.9279C185.04 71.9277 184.977 71.9175 184.918 71.8978C183.451 71.3987 182.421 69.7285 182.8 68.4658C182.975 67.8795 183.707 66.6068 186.717 67.379C186.864 67.417 186.99 67.5117 187.067 67.6424C187.144 67.7732 187.166 67.9292 187.128 68.0762C187.09 68.2231 186.995 68.349 186.865 68.4261C186.734 68.5032 186.578 68.5252 186.431 68.4873C185.032 68.1255 184.061 68.2427 183.898 68.7933C183.714 69.4082 184.355 70.5007 185.288 70.8182C185.417 70.8616 185.526 70.9493 185.596 71.0658C185.666 71.1822 185.692 71.3196 185.67 71.4536C185.648 71.5875 185.578 71.7092 185.475 71.7969C185.371 71.8846 185.24 71.9325 185.104 71.9321L185.102 71.9279Z" fill="#242424"/>
<path d="M118.974 110.451C118.2 110.451 117.418 110.308 116.737 109.851C116.394 109.615 116.102 109.313 115.878 108.961C115.655 108.61 115.504 108.217 115.436 107.807C115.131 106.188 115.826 104.442 116.58 103.348C117.723 101.715 119.222 100.363 120.965 99.3943C122.707 98.4257 124.646 97.8656 126.637 97.7565C126.789 97.7495 126.937 97.803 127.049 97.9053C127.161 98.0076 127.228 98.1503 127.235 98.302C127.242 98.4537 127.189 98.602 127.087 98.7142C126.984 98.8265 126.842 98.8935 126.69 98.9005C124.876 98.9999 123.108 99.5103 121.52 100.393C119.931 101.276 118.565 102.507 117.522 103.996C116.74 105.132 116.364 106.545 116.561 107.595C116.601 107.857 116.695 108.109 116.836 108.334C116.977 108.559 117.162 108.752 117.381 108.903C118.11 109.398 119.138 109.344 120.047 109.225C122.986 108.835 125.817 107.858 128.37 106.351C128.5 106.277 128.655 106.256 128.8 106.295C128.945 106.333 129.069 106.427 129.145 106.556C129.222 106.685 129.245 106.839 129.209 106.985C129.173 107.13 129.081 107.256 128.954 107.335C126.266 108.923 123.285 109.953 120.19 110.363C119.787 110.419 119.381 110.448 118.974 110.451V110.451Z" fill="#242424"/>
<path d="M131.076 80.1789H131.053C130.301 80.1488 129.367 80.1131 128.593 79.5854C128.346 79.4125 128.136 79.1909 127.977 78.9342C127.819 78.6775 127.714 78.3911 127.669 78.0925C127.634 77.8652 127.647 77.6329 127.707 77.411C127.768 77.1891 127.876 76.9827 128.023 76.8055C128.353 76.418 128.808 76.2521 129.208 76.1263C130.645 75.6768 132.136 75.4275 133.641 75.3855C133.793 75.3811 133.94 75.4372 134.05 75.5414C134.161 75.6456 134.225 75.7894 134.229 75.9411C134.234 76.0928 134.178 76.24 134.074 76.3503C133.969 76.4607 133.826 76.5251 133.674 76.5295C132.273 76.5692 130.884 76.8016 129.547 77.2202C129.301 77.2974 129.026 77.3918 128.893 77.5491C128.851 77.6038 128.82 77.6672 128.804 77.7349C128.789 77.8025 128.788 77.8729 128.802 77.9409C128.824 78.0802 128.873 78.2138 128.947 78.334C129.02 78.4543 129.117 78.5588 129.231 78.6416C129.696 78.9591 130.321 79.0077 131.09 79.0377C131.242 79.0406 131.386 79.1036 131.491 79.2128C131.596 79.3221 131.654 79.4688 131.651 79.6205C131.648 79.7722 131.585 79.9165 131.476 80.0217C131.367 80.127 131.22 80.1846 131.068 80.1817L131.076 80.1789Z" fill="#242424"/>
<path d="M156.439 101.955C155.969 101.955 155.393 101.892 154.957 101.494C154.294 100.89 154.289 99.8227 154.944 98.7102C155.661 97.512 156.609 96.4679 157.732 95.6383C158.856 94.8087 160.133 94.21 161.489 93.8768C161.563 93.8571 161.64 93.8524 161.715 93.8629C161.791 93.8735 161.864 93.8991 161.93 93.9382C161.995 93.9774 162.052 94.0294 162.098 94.091C162.143 94.1527 162.175 94.2227 162.193 94.2971C162.211 94.3714 162.213 94.4486 162.201 94.524C162.188 94.5994 162.16 94.6715 162.119 94.7361C162.078 94.8006 162.025 94.8562 161.962 94.8997C161.899 94.9432 161.828 94.9738 161.753 94.9894C160.547 95.286 159.411 95.8188 158.411 96.5571C157.412 97.2955 156.569 98.2246 155.93 99.2908C155.644 99.7741 155.461 100.406 155.729 100.649C155.892 100.799 156.245 100.815 156.497 100.809C158.049 100.784 159.563 100.329 160.872 99.4953C160.936 99.4523 161.007 99.4224 161.082 99.4074C161.157 99.3924 161.234 99.3926 161.309 99.4079C161.383 99.4231 161.454 99.4533 161.517 99.4965C161.58 99.5396 161.634 99.595 161.675 99.6593C161.717 99.7236 161.745 99.7955 161.758 99.8708C161.771 99.9461 161.769 100.023 161.751 100.098C161.734 100.172 161.702 100.242 161.657 100.304C161.612 100.366 161.556 100.418 161.49 100.458C160.001 101.406 158.278 101.922 156.512 101.949L156.439 101.955Z" fill="#242424"/>
<path d="M224.405 67.8063C224.453 67.9711 224.539 68.1224 224.656 68.2483C226.83 70.6621 229.105 73.3719 231.7 75.3668C231.769 75.4189 231.825 75.4863 231.863 75.5635C231.902 75.6408 231.922 75.7259 231.922 75.8122C231.922 75.8985 231.902 75.9836 231.863 76.0609C231.825 76.1382 231.769 76.2055 231.7 76.2577L225.92 80.6478C225.311 81.154 224.372 82.5168 226.58 81.9348C230.615 80.878 235.549 79.4136 239.547 77.9422C239.62 77.9152 239.686 77.8725 239.741 77.817C239.795 77.7615 239.837 77.6946 239.863 77.6211C239.889 77.5476 239.898 77.4694 239.89 77.3919C239.882 77.3144 239.857 77.2396 239.817 77.1728C238.5 74.995 234.502 70.0915 233.647 68.6257C233.478 68.3397 233.322 68.0009 233.401 67.6734C233.484 67.4258 233.632 67.2051 233.83 67.0342C235.458 65.3939 240.604 60.6692 240.682 60.0929C240.734 59.7154 240.79 59.8756 240.409 59.8069C239.528 59.6396 233.424 62.6841 231.676 63.4906C230.569 64.0069 224.25 67.2429 224.405 67.8063Z" fill="#242424" fill-opacity="0.8"/>
<path d="M225.726 82.6512C225.32 82.6512 224.916 82.5397 224.716 82.1493C224.273 81.2913 225.503 80.2517 225.556 80.2088L225.576 80.1931L231.343 75.813C229.081 74.0727 227.094 71.8433 225.175 69.6868C224.858 69.3308 224.543 68.9718 224.232 68.6315C224.055 68.4397 223.925 68.209 223.854 67.958V67.958C223.711 67.456 224.14 67.07 224.998 66.4908C225.544 66.129 226.314 65.6714 227.286 65.1309C229.002 64.1813 230.87 63.2361 231.433 62.973C231.743 62.83 232.191 62.6155 232.72 62.3624C237.929 59.8728 239.823 59.1163 240.511 59.2464C240.555 59.2552 240.6 59.2595 240.645 59.2593C240.74 59.2559 240.835 59.274 240.922 59.3121C241.009 59.3502 241.086 59.4074 241.148 59.4795C241.211 59.559 241.255 59.6523 241.275 59.7517C241.295 59.8511 241.291 59.9538 241.264 60.0515C241.264 60.083 241.25 60.1244 241.243 60.1802C241.178 60.6521 240.521 61.4014 236.286 65.4555C235.428 66.2749 234.692 66.9827 234.23 67.4475C234.11 67.5493 234.013 67.6749 233.944 67.8164C233.907 67.968 234.074 68.254 234.129 68.3484C234.51 69.0033 235.601 70.4448 236.755 71.9706C238.143 73.8053 239.577 75.7028 240.293 76.8869C240.377 77.0258 240.429 77.1816 240.446 77.3431C240.463 77.5045 240.444 77.6677 240.39 77.8209C240.336 77.974 240.249 78.1135 240.136 78.2291C240.022 78.3448 239.884 78.4339 239.731 78.4899C236.138 79.8112 231.393 81.2727 226.718 82.4939C226.395 82.5869 226.062 82.6397 225.726 82.6512V82.6512ZM226.278 81.0954C226.141 81.2134 226.018 81.3467 225.912 81.4929C226.089 81.4679 226.264 81.4321 226.437 81.3857C231.063 80.1745 235.747 78.7331 239.307 77.4275C238.609 76.2835 237.15 74.3601 235.862 72.6555C234.635 71.0339 233.574 69.6325 233.159 68.9175C232.947 68.5557 232.73 68.0738 232.85 67.5433C232.95 67.1257 233.243 66.8283 233.438 66.6352C233.91 66.1605 234.653 65.4484 235.514 64.6232C236.787 63.4049 238.726 61.5487 239.65 60.542C238.093 61.0725 234.673 62.7056 233.232 63.3934C232.694 63.6508 232.242 63.8668 231.928 64.0126C230.515 64.6647 226.03 67.0299 225.071 67.8493L225.087 67.8664C225.4 68.2139 225.714 68.5686 226.033 68.9261C227.921 71.0454 229.874 73.2376 232.054 74.9135C232.192 75.0192 232.304 75.1554 232.381 75.3115C232.459 75.4676 232.499 75.6395 232.499 75.8137C232.499 75.9879 232.459 76.1597 232.381 76.3159C232.304 76.472 232.192 76.6082 232.054 76.7139L226.278 81.0954Z" fill="#242424" fill-opacity="0.8"/>
<path d="M60.7039 91.0871C60.508 92.1625 61.5405 92.5171 62.4742 92.1396L62.5114 92.1268C72.4442 89.088 72.1582 83.5968 72.9948 93.5381C73.0076 93.6813 73.0704 93.8155 73.1721 93.9171C73.2739 94.0187 73.408 94.0814 73.5513 94.0942C73.6945 94.107 73.8376 94.069 73.9557 93.987C74.0738 93.905 74.1594 93.784 74.1974 93.6454C75.2999 89.5098 75.6717 86.9558 75.9777 82.6873C76.2294 79.1495 75.3114 79.9074 74.9324 80.0761C66.7814 83.7226 64.798 88.975 64.4934 79.8288C64.4619 78.8964 64.502 76.2537 64.4319 75.3185C63.9371 68.8292 60.681 88.7519 60.7139 90.9656C60.7148 91.0063 60.7115 91.0471 60.7039 91.0871V91.0871Z" fill="#242424" fill-opacity="0.8"/>
<path d="M73.6125 94.6719C73.5753 94.6719 73.5381 94.6719 73.5009 94.6719C73.222 94.6507 72.96 94.53 72.7627 94.3318C72.5653 94.1337 72.4457 93.8712 72.4256 93.5922C72.2225 91.1741 72.0123 88.6745 71.6505 88.4271C71.4489 88.3842 70.6738 88.8561 69.9903 89.2851C68.4974 90.2031 66.2422 91.5902 62.683 92.6785C61.9251 92.9816 61.14 92.9115 60.6309 92.4968C60.2019 92.1465 60.0289 91.6116 60.1404 90.991C60.1411 90.9853 60.1411 90.9796 60.1404 90.9739C60.1233 89.9729 60.7196 85.7229 61.4446 81.7046C61.8421 79.5038 62.2297 77.632 62.5686 76.2906C63.172 73.8997 63.5109 73.485 64.0429 73.4607C64.8523 73.4178 64.9381 74.5417 64.9953 75.2811C65.0396 75.8645 65.041 77.0685 65.0425 78.1325C65.0425 78.8131 65.0425 79.4567 65.0582 79.817C65.1511 82.5741 65.4257 84.0899 65.8733 84.3215C66.2909 84.5389 67.5364 83.7267 68.8563 82.8644C70.2791 81.9363 72.2268 80.665 74.6964 79.5611L74.7665 79.5253C74.9781 79.4181 75.4815 79.1635 75.9519 79.4795C76.5111 79.8499 76.6841 80.7937 76.5454 82.7342C76.2208 87.2616 75.8018 89.847 74.7464 93.7996C74.6813 94.0503 74.5344 94.2722 74.3291 94.4302C74.1237 94.5882 73.8715 94.6732 73.6125 94.6719V94.6719ZM71.6491 87.2773C71.8301 87.2764 72.0086 87.319 72.1696 87.4018C73.0533 87.8479 73.1978 89.1263 73.5653 93.4907C73.5632 93.4991 73.5632 93.508 73.5653 93.5164C73.575 93.5213 73.5858 93.5239 73.5967 93.5239C73.6077 93.5239 73.6184 93.5213 73.6282 93.5164V93.5164C73.6335 93.5093 73.6369 93.5009 73.6382 93.4921C74.6835 89.5725 75.0796 87.1386 75.4014 82.6398C75.4986 81.2642 75.4014 80.7136 75.3356 80.5063L75.2841 80.532C75.2398 80.5549 75.1983 80.5764 75.1597 80.5921C72.773 81.6589 70.9469 82.8515 69.4783 83.8096C67.5307 85.0823 66.3538 85.8502 65.3428 85.3239C64.4061 84.8377 64.0315 83.4034 63.9128 79.8427C63.8999 79.4638 63.8985 78.8117 63.897 78.1267C63.897 77.3045 63.897 76.3965 63.8742 75.783C62.8531 79.4295 61.253 89.2493 61.283 90.9553C61.2838 91.0335 61.2767 91.1116 61.2615 91.1884V91.1884C61.2086 91.4873 61.3145 91.5745 61.3502 91.6031C61.5004 91.7261 61.8607 91.7675 62.2568 91.6031C62.2826 91.5917 62.314 91.5816 62.3441 91.5716C65.7618 90.5277 67.9425 89.1849 69.3868 88.2969C70.3735 87.6977 71.0585 87.2773 71.6491 87.2773Z" fill="#242424" fill-opacity="0.8"/>
<path d="M93.4637 57.8293C97.4677 58.1811 100.129 58.3813 101.339 58.603C101.538 58.6392 101.714 58.7526 101.83 58.9184C101.946 59.0842 101.991 59.289 101.957 59.4881C101.751 60.645 101.272 63.2333 100.604 66.1305C100.419 66.9285 100.318 69.1207 101.941 66.7383C105.547 61.4373 109.663 56.2993 109.663 55.1824C109.663 54.273 103.747 52.8272 100.459 52.4254C100.385 52.4162 100.313 52.3921 100.248 52.3542C100.184 52.3164 100.127 52.2657 100.083 52.2053C100.038 52.1449 100.007 52.076 99.9898 52.003C99.9729 51.9299 99.9711 51.8542 99.9845 51.7805C100.128 51.0111 100.384 49.2451 100.877 47.3803C102.257 42.1666 99.68 45.6787 99.055 46.5967C96.6612 50.1217 93.6911 54.5689 92.6715 56.4179C92.3255 57.0385 91.8707 57.6892 93.4637 57.8293Z" fill="#242424" fill-opacity="0.8"/>
<path d="M100.84 68.3926C100.729 68.3917 100.619 68.3678 100.518 68.3225C99.6285 67.9335 100 66.1989 100.046 66.0016C100.7 63.163 101.17 60.6406 101.393 59.3893C101.402 59.3401 101.39 59.2895 101.362 59.2484C101.334 59.2073 101.291 59.1788 101.242 59.1691C100.298 58.9946 98.3386 58.8273 95.6288 58.5971L93.4194 58.4055C92.8474 58.3554 92.1625 58.2296 91.8793 57.6905C91.5962 57.1514 91.9022 56.6294 92.121 56.2376L92.1725 56.1432C93.2092 54.2627 96.2308 49.7396 98.5832 46.2762C100.369 43.6493 101.041 43.9567 101.327 44.0868C101.997 44.3914 102.022 45.2924 101.43 47.5289C101.047 48.9803 100.811 50.3631 100.655 51.2783C100.617 51.5071 100.582 51.7073 100.554 51.8618C102.543 52.129 104.513 52.5303 106.448 53.063C109.943 54.0354 110.236 54.6674 110.236 55.1837C110.236 56.0645 108.883 57.9822 106.072 61.8889C104.928 63.4734 103.641 65.2709 102.42 67.0612C101.957 67.7348 101.42 68.3926 100.84 68.3926ZM93.5195 57.26L95.7217 57.4531C98.566 57.6976 100.441 57.8592 101.442 58.0423C101.789 58.1067 102.096 58.3053 102.297 58.5949C102.499 58.8846 102.578 59.242 102.517 59.5895C102.294 60.8522 101.819 63.3976 101.159 66.2604C101.11 66.4847 101.083 66.7131 101.077 66.9425C101.18 66.8196 101.309 66.6566 101.467 66.4177C102.693 64.6145 103.991 62.8113 105.137 61.2197C106.881 58.7958 108.848 56.0631 109.065 55.2795C108.324 54.6259 103.705 53.4004 100.385 52.9915C100.233 52.9733 100.086 52.9242 99.9536 52.847C99.8213 52.7698 99.7062 52.6663 99.6154 52.5428C99.5247 52.4194 99.4602 52.2786 99.4261 52.1293C99.3919 51.9799 99.3888 51.8251 99.4169 51.6744C99.4469 51.5171 99.4798 51.317 99.5198 51.0825C99.68 50.1472 99.9202 48.7343 100.318 47.2328C100.484 46.6498 100.606 46.0552 100.684 45.4539C100.256 45.9079 99.8678 46.3973 99.5227 46.9168C97.1832 50.3603 94.1816 54.8505 93.1678 56.6924L93.112 56.7924C93.0442 56.908 92.9831 57.0274 92.9289 57.1499C93.1178 57.2118 93.314 57.2484 93.5124 57.2586L93.5195 57.26Z" fill="#242424" fill-opacity="0.8"/>
<path d="M158.595 245.069H158.309C144.473 244.719 128.254 244.818 111.084 244.926C95.4543 245.021 79.2925 245.119 65.0082 244.849C59.8702 244.752 55.5187 235.318 51.7092 216.007C48.5846 200.186 46.7714 182.116 46.1751 176.178C46.0764 175.205 45.9277 174.064 45.7547 172.746C45.2141 168.62 44.542 163.486 44.8266 158.875C45.1855 153.236 46.8872 149.851 50.0475 148.526C55.0268 146.435 100.196 143.709 124.694 147.077C130.291 147.848 133.793 150.296 135.399 154.566C136.934 158.647 136.635 164.147 136.082 169.489C135.055 179.411 134.187 194.789 133.815 209.625C133.411 225.764 133.757 234.078 134.244 234.978C134.673 235.761 136.369 236.678 142.011 236.621C146.124 236.578 150.997 236.049 155.297 235.583C156.049 235.5 156.777 235.421 157.471 235.348C160.017 235.081 162.265 236.019 163.477 237.856C164.462 239.345 164.583 241.158 163.793 242.587C163.281 243.526 161.918 245.069 158.595 245.069ZM134.636 243.676C143.062 243.676 151.033 243.736 158.344 243.921C160.511 243.977 162.092 243.303 162.8 242.028C163.384 240.972 163.281 239.614 162.531 238.483C161.539 236.984 159.739 236.253 157.592 236.481C156.899 236.554 156.174 236.632 155.423 236.714C144.306 237.919 134.965 238.663 133.242 235.523C132.157 233.543 132.527 215.174 132.67 209.591C133.042 194.727 133.913 179.314 134.942 169.365C135.481 164.166 135.779 158.823 134.327 154.962C132.863 151.07 129.751 148.922 124.536 148.205C98.9807 144.692 54.7522 147.786 50.4894 149.575C44.2246 152.209 45.9005 164.968 46.9015 172.591C47.0688 173.867 47.2261 175.071 47.3305 176.06C53.2207 234.735 60.9598 243.625 65.0482 243.699C79.3182 243.97 95.4729 243.871 111.094 243.776C119.197 243.729 127.099 243.682 134.636 243.682V243.676Z" fill="#242424" fill-opacity="0.8"/>
<path d="M93.9215 183.221C90.2752 178.827 88.1698 173.369 90.3924 174.077C92.6149 174.785 98.0136 181.291 99.4352 184.976C100.857 188.661 97.5663 187.614 93.9215 183.221Z" fill="#242424"/>
<path d="M77.9215 183.221C74.2752 178.827 72.1698 173.369 74.3924 174.077C76.6149 174.785 82.0136 181.291 83.4352 184.976C84.8568 188.661 81.5663 187.614 77.9215 183.221Z" fill="#242424"/>
<path d="M92.2538 181.506C94.8723 176.432 99.0715 172.36 99.2893 174.682C99.5072 177.004 95.6311 184.517 92.7955 187.267C89.9599 190.017 89.6366 186.579 92.2538 181.506Z" fill="#242424"/>
<path d="M76.2538 181.506C78.8723 176.432 83.0715 172.36 83.2893 174.682C83.5072 177.004 79.6311 184.517 76.7955 187.267C73.9599 190.017 73.6366 186.579 76.2538 181.506Z" fill="#242424"/>
<path d="M76.7699 194.304C76.6271 194.305 76.4892 194.253 76.3832 194.157C76.2772 194.061 76.2108 193.93 76.197 193.788C76.1832 193.645 76.223 193.503 76.3086 193.389C76.3943 193.275 76.5195 193.197 76.6598 193.17C83.8182 191.746 91.1844 191.72 98.3529 193.092C98.5019 193.12 98.6336 193.206 98.7189 193.332C98.8041 193.457 98.8361 193.612 98.8076 193.761C98.7792 193.91 98.6927 194.042 98.5672 194.127C98.4417 194.212 98.2874 194.244 98.1384 194.216C91.114 192.871 83.8959 192.897 76.8814 194.293C76.8447 194.3 76.8074 194.304 76.7699 194.304V194.304Z" fill="#242424" fill-opacity="0.8"/>
<path d="M79.8187 200.755C79.6812 200.754 79.5486 200.704 79.4451 200.614C79.3416 200.523 79.2742 200.399 79.2551 200.262C79.236 200.126 79.2665 199.988 79.3411 199.872C79.4157 199.757 79.5294 199.672 79.6614 199.634C84.0643 198.374 89.3997 198.933 95.5773 199.581L95.899 199.614C95.9741 199.622 96.047 199.644 96.1134 199.68C96.1797 199.716 96.2384 199.765 96.2859 199.824C96.3334 199.883 96.3689 199.95 96.3904 200.022C96.4119 200.095 96.4189 200.171 96.411 200.246C96.4031 200.321 96.3805 200.394 96.3444 200.46C96.3084 200.527 96.2597 200.585 96.201 200.633C96.1423 200.68 96.0748 200.716 96.0024 200.737C95.93 200.759 95.854 200.766 95.7789 200.758L95.4572 200.725C89.148 200.063 84.1602 199.541 79.976 200.739C79.9245 200.751 79.8716 200.757 79.8187 200.755V200.755Z" fill="#242424" fill-opacity="0.8"/>
<path d="M165.351 215.77C164.969 215.771 164.587 215.751 164.207 215.71C162.427 215.518 161.12 214.852 160.431 213.797C159.966 213.082 160.305 212.359 160.774 211.356C161.966 208.802 164.45 203.491 160.801 188.646C160.765 188.498 160.789 188.343 160.867 188.213C160.946 188.083 161.073 187.99 161.22 187.954C161.367 187.917 161.523 187.941 161.653 188.02C161.783 188.098 161.876 188.225 161.912 188.373C165.657 203.605 163.056 209.168 161.811 211.84C161.497 212.51 161.271 212.991 161.382 213.172C162.009 214.134 163.328 214.466 164.323 214.573C166.635 214.823 169.042 214.13 169.394 213.781C170.502 212.69 170.529 202.643 165.557 188.97C165.531 188.9 165.52 188.825 165.523 188.75C165.526 188.675 165.544 188.601 165.576 188.533C165.608 188.465 165.653 188.403 165.708 188.353C165.763 188.302 165.828 188.262 165.899 188.237C165.97 188.211 166.045 188.199 166.12 188.203C166.195 188.206 166.268 188.224 166.337 188.256C166.405 188.287 166.466 188.332 166.517 188.388C166.567 188.443 166.607 188.508 166.633 188.578C171.084 200.822 172.21 212.618 170.198 214.596C169.596 215.205 167.462 215.77 165.351 215.77Z" fill="#242424" fill-opacity="0.8"/>
<path d="M150.511 163.049C150.043 163.056 149.581 162.939 149.172 162.711C148.823 162.513 148.538 162.219 148.349 161.865C148.161 161.51 148.077 161.109 148.108 160.709C148.154 159.914 148.695 157.876 152.722 156.146C157.282 154.187 156.076 144.849 155.429 139.827L155.357 139.271C155.338 139.12 155.38 138.968 155.473 138.848C155.566 138.728 155.703 138.65 155.853 138.631C156.004 138.612 156.156 138.654 156.276 138.747C156.395 138.84 156.473 138.977 156.492 139.128L156.563 139.682C157.25 144.999 158.527 154.898 153.172 157.199C150.362 158.407 149.311 159.838 149.251 160.774C149.232 160.961 149.267 161.15 149.354 161.317C149.441 161.485 149.575 161.623 149.74 161.714C150.248 162 151.223 162.026 152.438 161.215C154.766 159.664 156.179 161.052 156.644 161.509C156.756 161.619 156.888 161.706 157.034 161.764C157.18 161.821 157.337 161.849 157.494 161.845C157.651 161.841 157.805 161.805 157.948 161.739C158.091 161.674 158.219 161.58 158.324 161.464L158.36 161.426C158.84 160.897 159.387 160.296 160.132 160.087C160.964 159.854 161.613 160.323 162.187 160.738C163.118 161.41 163.997 162.045 166.029 160.419C166.087 160.369 166.155 160.332 166.228 160.309C166.301 160.285 166.378 160.277 166.454 160.284C166.531 160.292 166.605 160.314 166.672 160.35C166.74 160.387 166.799 160.436 166.847 160.496C166.895 160.556 166.93 160.625 166.951 160.699C166.972 160.772 166.978 160.849 166.968 160.925C166.958 161.001 166.934 161.075 166.895 161.141C166.857 161.207 166.805 161.265 166.744 161.311C164.027 163.482 162.518 162.388 161.517 161.666C161.021 161.307 160.727 161.11 160.439 161.188C160.01 161.308 159.603 161.76 159.207 162.189L159.171 162.228C158.962 162.458 158.708 162.644 158.425 162.774C158.143 162.903 157.837 162.975 157.526 162.983C157.215 162.992 156.905 162.937 156.616 162.823C156.327 162.709 156.063 162.538 155.842 162.319C155.227 161.714 154.508 161.205 153.073 162.162C152.204 162.75 151.312 163.049 150.511 163.049Z" fill="white"/>
<path d="M166.864 229.428H166.774C164.831 229.396 163.131 228.39 161.912 226.568C160.754 228.128 158.935 228.999 156.881 228.94C154.828 228.882 153.003 227.858 152.353 226.399C151.924 225.441 152.017 224.377 152.6 223.329C148.065 223.03 147.023 220.505 146.781 219.371C146.287 217.037 147.628 214.308 149.709 213.413C149.848 213.353 150.005 213.351 150.146 213.407C150.287 213.464 150.4 213.573 150.46 213.713C150.52 213.852 150.522 214.01 150.466 214.151C150.41 214.292 150.3 214.404 150.16 214.464C148.575 215.146 147.518 217.324 147.9 219.135C148.329 221.155 150.376 222.252 153.668 222.213C153.778 222.212 153.885 222.243 153.978 222.301C154.071 222.359 154.145 222.442 154.192 222.542C154.239 222.641 154.256 222.751 154.242 222.86C154.227 222.968 154.182 223.071 154.111 223.154C153.275 224.144 153.028 225.105 153.396 225.933C153.864 226.983 155.311 227.749 156.914 227.792C158.859 227.851 160.542 226.882 161.415 225.204C161.463 225.111 161.535 225.033 161.624 224.978C161.714 224.924 161.816 224.895 161.921 224.895C162.025 224.893 162.128 224.921 162.218 224.975C162.308 225.029 162.38 225.106 162.428 225.199C163.753 227.707 165.534 228.258 166.796 228.278C168.477 228.31 170.256 227.347 171.024 226C171.337 225.452 171.596 224.624 171.088 223.789C171.011 223.666 170.983 223.517 171.012 223.374C171.04 223.231 171.122 223.104 171.24 223.019C171.359 222.935 171.506 222.898 171.65 222.918C171.795 222.938 171.926 223.012 172.018 223.126C172.55 223.772 173.715 224.23 175.061 224.32C176.438 224.413 177.732 224.098 178.35 223.519C178.968 222.94 179.247 222.063 179.112 221.138C179.037 220.628 178.838 220.144 178.532 219.728C178.225 219.313 177.822 218.98 177.356 218.757C177.237 218.698 177.142 218.599 177.088 218.478C177.034 218.356 177.023 218.219 177.059 218.091C177.095 217.963 177.174 217.851 177.284 217.775C177.393 217.699 177.525 217.664 177.658 217.675C179.72 217.848 181.753 216.179 182.061 214.682C182.311 213.475 181.47 212.482 179.694 211.887C179.623 211.864 179.557 211.826 179.5 211.777C179.444 211.727 179.397 211.667 179.364 211.6C179.33 211.533 179.31 211.46 179.305 211.385C179.3 211.31 179.309 211.234 179.333 211.163C179.357 211.092 179.395 211.026 179.444 210.969C179.493 210.913 179.553 210.866 179.62 210.833C179.688 210.799 179.761 210.779 179.836 210.774C179.911 210.769 179.986 210.778 180.057 210.802C183.411 211.927 183.359 214.052 183.182 214.913C182.817 216.682 181.081 218.211 179.151 218.681C179.745 219.315 180.128 220.117 180.249 220.976C180.436 222.274 180.019 223.538 179.132 224.36C178.246 225.182 176.71 225.58 174.985 225.464C174.136 225.417 173.302 225.215 172.524 224.87C172.499 225.469 172.325 226.052 172.019 226.568C171.051 228.262 168.943 229.428 166.864 229.428Z" fill="white"/>
<path d="M50.6967 180.695C50.5632 180.695 50.4339 180.648 50.3313 180.563C50.2287 180.478 50.1591 180.359 50.1348 180.228C49.4855 176.756 48.7891 170.519 48.7934 165.03C48.7934 157.927 49.9546 153.987 52.2254 153.321C52.2984 153.296 52.3757 153.286 52.4526 153.292C52.5295 153.298 52.6044 153.319 52.6728 153.355C52.7412 153.391 52.8017 153.44 52.8507 153.499C52.8996 153.559 52.9361 153.628 52.9578 153.702C52.9795 153.775 52.986 153.853 52.9769 153.93C52.9679 154.006 52.9435 154.08 52.9051 154.147C52.8668 154.214 52.8153 154.272 52.7538 154.319C52.6923 154.365 52.622 154.399 52.5472 154.418C50.8941 154.904 49.9431 158.772 49.9374 165.031C49.9374 170.448 50.6195 176.597 51.2587 180.017C51.2868 180.166 51.2545 180.321 51.1689 180.446C51.0834 180.571 50.9516 180.657 50.8026 180.685C50.7676 180.691 50.7322 180.695 50.6967 180.695Z" fill="#242424" fill-opacity="0.8"/>
<path d="M52.3856 191.552C52.2531 191.551 52.1248 191.505 52.0226 191.421C51.9203 191.337 51.8505 191.22 51.825 191.09C51.6734 190.317 51.5776 189.429 51.4861 188.571C51.396 187.736 51.3031 186.874 51.1615 186.15C51.1462 186.076 51.1458 186 51.1602 185.926C51.1746 185.852 51.2036 185.781 51.2454 185.718C51.2873 185.655 51.3412 185.601 51.404 185.559C51.4669 185.517 51.5374 185.488 51.6116 185.474C51.6858 185.459 51.7621 185.459 51.8361 185.474C51.9102 185.49 51.9805 185.519 52.043 185.562C52.1056 185.604 52.1591 185.659 52.2004 185.722C52.2418 185.785 52.2702 185.856 52.2841 185.93C52.4356 186.702 52.5314 187.59 52.623 188.448C52.7131 189.284 52.806 190.146 52.9476 190.869C52.9621 190.943 52.962 191.019 52.9471 191.093C52.9323 191.167 52.903 191.237 52.8611 191.299C52.8191 191.362 52.7652 191.415 52.7025 191.457C52.6398 191.498 52.5695 191.527 52.4957 191.542C52.4594 191.548 52.4225 191.552 52.3856 191.552V191.552Z" fill="#242424" fill-opacity="0.8"/>
<path d="M57.801 221.686C57.6786 221.686 57.5595 221.646 57.4612 221.573C57.3629 221.5 57.2905 221.398 57.2547 221.281C55.7175 216.262 53.5124 205.244 52.7173 198.61C52.6993 198.458 52.7423 198.305 52.8368 198.185C52.9314 198.065 53.0697 197.988 53.2214 197.97C53.3731 197.952 53.5258 197.995 53.6458 198.089C53.7658 198.184 53.8433 198.322 53.8613 198.474C54.6493 205.052 56.8343 215.977 58.3558 220.946C58.3779 221.018 58.3856 221.094 58.3784 221.169C58.3712 221.244 58.3493 221.316 58.314 221.383C58.2786 221.449 58.2305 221.508 58.1725 221.556C58.1144 221.604 58.0474 221.64 57.9754 221.661C57.9189 221.678 57.86 221.687 57.801 221.686Z" fill="#242424" fill-opacity="0.8"/>
<path d="M62.4399 91.091C62.2882 91.091 62.1427 91.0308 62.0354 90.9235C61.9281 90.8163 61.8679 90.6707 61.8679 90.519C61.8557 88.5933 62.0873 86.6738 62.5571 84.8062C62.5725 84.7304 62.6032 84.6586 62.6471 84.5949C62.6911 84.5313 62.7475 84.4773 62.8129 84.4361C62.8784 84.3949 62.9515 84.3674 63.0279 84.3552C63.1042 84.3431 63.1823 84.3466 63.2573 84.3654C63.3322 84.3843 63.4026 84.4182 63.4642 84.465C63.5257 84.5118 63.5771 84.5707 63.6152 84.638C63.6534 84.7052 63.6775 84.7795 63.6861 84.8564C63.6947 84.9332 63.6877 85.011 63.6654 85.085C63.2202 86.8593 63.0006 88.6827 63.0119 90.5119C63.0119 90.6636 62.9516 90.8091 62.8444 90.9163C62.7371 91.0236 62.5916 91.0839 62.4399 91.0839V91.091Z" fill="white"/>
<path d="M95.4843 55.996C95.3806 55.996 95.2789 55.9677 95.19 55.9144C95.1011 55.861 95.0284 55.7845 94.9796 55.693C94.9309 55.6015 94.9079 55.4984 94.9132 55.3949C94.9184 55.2913 94.9518 55.1912 95.0096 55.1051L97.2375 51.7817C97.3219 51.6556 97.4529 51.5682 97.6017 51.5387C97.7506 51.5092 97.905 51.5401 98.0311 51.6245C98.1572 51.7089 98.2447 51.8399 98.2742 51.9887C98.3037 52.1375 98.2728 52.292 98.1884 52.4181L95.9605 55.7371C95.9087 55.8163 95.8381 55.8813 95.755 55.9265C95.6719 55.9717 95.5789 55.9956 95.4843 55.996V55.996Z" fill="white"/>
<path d="M227.253 68.9736C227.131 68.9736 227.013 68.9348 226.915 68.8628C226.817 68.7908 226.744 68.6893 226.707 68.5732C226.671 68.4571 226.672 68.3323 226.712 68.2171C226.751 68.1019 226.826 68.0022 226.926 67.9325C227.974 67.1994 229.099 66.5823 230.28 66.0921C230.421 66.0339 230.578 66.0337 230.718 66.0916C230.859 66.1496 230.97 66.2608 231.028 66.401C231.087 66.5411 231.087 66.6987 231.029 66.8389C230.971 66.9792 230.86 67.0906 230.719 67.1489C229.612 67.6057 228.557 68.181 227.573 68.8649C227.48 68.9325 227.368 68.9705 227.253 68.9736V68.9736Z" fill="white"/>
<path d="M232.149 66.0334C232.025 66.0334 231.905 65.9931 231.806 65.9187C231.707 65.8443 231.634 65.7397 231.6 65.6206C231.565 65.5016 231.57 65.3746 231.614 65.2587C231.658 65.1428 231.739 65.0443 231.843 64.978C232.375 64.643 232.925 64.337 233.489 64.0614C233.625 64.0001 233.779 63.9942 233.919 64.0448C234.059 64.0954 234.174 64.1985 234.239 64.3324C234.304 64.4662 234.315 64.6201 234.268 64.7615C234.221 64.9029 234.122 65.0205 233.99 65.0895C233.462 65.3477 232.949 65.6341 232.453 65.9475C232.362 66.004 232.256 66.0337 232.149 66.0334Z" fill="white"/>
<defs>
<linearGradient id="paint0_linear_405_8661" x1="166.008" y1="191.679" x2="166.008" y2="102.137" gradientUnits="userSpaceOnUse">
<stop stop-color="white"/>
<stop offset="1" stop-color="white" stop-opacity="0"/>
</linearGradient>
</defs>
</svg>
