<svg width="20" height="21" viewBox="0 0 20 21" fill="none" xmlns="http://www.w3.org/2000/svg">
<path fill-rule="evenodd" clip-rule="evenodd" d="M7.29167 2.1665C7.29167 1.82133 7.01184 1.5415 6.66667 1.5415C6.32149 1.5415 6.04167 1.82133 6.04167 2.1665V3.44248C4.06187 3.66832 2.52099 5.33951 2.50021 7.37484H17.4998C17.479 5.33951 15.9381 3.66832 13.9583 3.44248V2.1665C13.9583 1.82133 13.6785 1.5415 13.3333 1.5415C12.9882 1.5415 12.7083 1.82133 12.7083 2.1665V3.4165H7.29167V2.1665ZM17.5 8.62484H2.5V14.8332C2.5 17.0423 4.29086 18.8332 6.5 18.8332H13.5C15.7091 18.8332 17.5 17.0423 17.5 14.8332V8.62484ZM12.9704 11.7447C13.1977 11.485 13.1714 11.0901 12.9116 10.8628C12.6518 10.6355 12.257 10.6618 12.0297 10.9216L9.63807 13.6549C9.56466 13.7388 9.4382 13.75 9.35114 13.6803L7.89046 12.5118C7.62092 12.2962 7.22761 12.3399 7.01198 12.6094C6.79635 12.8789 6.84005 13.2723 7.10959 13.4879L8.57027 14.6564C9.17968 15.144 10.0649 15.0653 10.5788 14.478L12.9704 11.7447Z" fill="#242424"/>
</svg>
