<?xml version="1.0" standalone="no"?>
<!DOCTYPE svg PUBLIC "-//W3C//DTD SVG 20010904//EN"
 "http://www.w3.org/TR/2001/REC-SVG-20010904/DTD/svg10.dtd">
<svg version="1.0" xmlns="http://www.w3.org/2000/svg"
 width="688.000000pt" height="688.000000pt" viewBox="0 0 688.000000 688.000000"
 preserveAspectRatio="xMidYMid meet">

<g transform="translate(0.000000,688.000000) scale(0.100000,-0.100000)"
fill="#000000" stroke="none">
<path d="M3270 6291 c-48 -10 -197 -99 -222 -134 -27 -38 -58 -129 -58 -172 0
-39 -35 -84 -67 -86 -10 0 -38 -2 -63 -4 -59 -4 -91 14 -141 80 -107 142 -294
171 -414 65 -32 -28 -118 -70 -143 -70 -92 0 -182 -136 -182 -276 0 -51 7 -74
51 -165 l51 -106 -24 -48 c-16 -34 -38 -59 -71 -81 -52 -36 -60 -36 -120 7
-59 43 -130 63 -194 55 -59 -7 -118 -33 -144 -62 -43 -50 -95 -190 -85 -230 7
-28 -13 -81 -48 -126 -14 -19 -29 -58 -35 -94 -13 -68 -3 -108 45 -193 14 -26
34 -74 45 -107 21 -67 85 -144 146 -176 18 -9 33 -22 33 -27 0 -5 -27 -22 -60
-37 -103 -46 -148 -122 -136 -228 4 -28 10 -109 14 -181 9 -148 19 -176 84
-227 111 -88 126 -117 91 -168 -17 -24 -16 -25 2 -10 17 14 18 13 12 -2 -3
-10 -2 -18 4 -18 6 0 8 -9 4 -19 -8 -25 43 -76 84 -84 22 -5 29 -11 28 -27 -1
-16 -8 -20 -34 -20 -34 0 -43 -18 -24 -49 13 -21 41 -6 34 18 -4 17 -1 21 20
21 31 0 77 -19 77 -32 0 -5 4 -7 9 -3 11 6 53 -79 75 -155 33 -109 39 -126 66
-185 15 -33 33 -76 41 -95 7 -19 24 -50 36 -69 29 -43 29 -62 -1 -91 -18 -16
-30 -20 -43 -15 -10 5 -22 9 -26 9 -5 1 -22 17 -38 36 -17 19 -26 26 -21 15 6
-11 24 -33 42 -50 25 -24 43 -31 88 -35 l57 -5 11 -65 c6 -36 17 -81 24 -101
10 -28 10 -43 1 -69 -16 -48 -13 -135 8 -211 14 -53 17 -92 13 -207 -4 -111
-1 -149 11 -179 13 -34 13 -48 1 -118 -11 -64 -12 -96 -3 -160 15 -100 15 -95
-1 -187 -10 -56 -11 -91 -4 -131 8 -44 7 -69 -8 -128 -24 -94 -18 -173 17
-233 20 -35 25 -56 25 -113 0 -56 4 -76 20 -96 12 -15 25 -52 30 -83 11 -65
23 -84 56 -84 42 0 73 19 93 57 11 21 40 58 66 83 58 56 72 82 81 151 3 30 15
82 26 117 13 39 21 99 23 155 2 51 10 115 19 142 9 28 19 83 23 123 6 67 8 72
29 72 16 0 25 -7 28 -22 26 -121 26 -126 5 -210 -20 -81 -21 -133 -4 -231 5
-27 1 -54 -14 -95 -24 -66 -28 -132 -16 -287 8 -109 23 -161 50 -171 8 -3 21
-27 30 -54 9 -28 26 -55 41 -65 23 -15 27 -15 58 5 38 23 60 62 76 135 8 36
26 66 67 114 72 85 86 117 93 221 6 76 11 93 50 163 42 73 61 90 75 66 8 -11
-7 -75 -33 -147 -29 -82 -2 -229 56 -294 8 -10 19 -41 23 -70 6 -36 17 -61 38
-82 16 -17 36 -48 45 -69 17 -43 37 -54 74 -41 19 7 32 23 44 58 10 26 38 76
62 109 58 83 72 112 92 193 9 38 33 107 53 154 34 82 35 89 36 215 0 79 5 141
13 158 7 17 12 76 12 148 0 92 4 127 17 152 23 45 28 151 10 209 -14 43 -13
54 3 117 10 38 20 102 21 143 2 89 5 98 33 98 19 0 25 -13 50 -109 25 -95 27
-119 20 -178 -9 -78 -7 -138 8 -203 15 -67 18 -344 5 -427 -8 -56 -8 -92 3
-165 8 -51 13 -111 13 -133 -2 -81 17 -188 42 -230 13 -23 29 -64 36 -91 17
-69 26 -84 54 -84 17 0 32 11 50 38 13 21 45 54 69 74 29 25 49 52 59 82 8 24
32 67 54 94 21 27 43 57 49 67 27 47 67 -34 69 -140 1 -100 13 -125 61 -125
36 0 77 32 89 71 4 10 26 27 50 38 51 23 69 48 84 119 6 29 24 78 40 110 39
77 45 110 46 226 0 65 4 101 11 103 7 2 26 -27 43 -64 18 -37 39 -75 47 -84 8
-9 22 -40 32 -70 13 -41 23 -56 43 -63 42 -15 80 11 102 68 11 30 34 63 58 85
34 30 43 48 59 108 11 47 31 91 55 124 52 73 65 117 65 226 0 54 7 122 16 159
13 52 15 82 8 152 -6 61 -5 107 3 152 16 87 16 149 -1 245 -10 54 -11 95 -6
125 14 72 11 146 -9 239 -11 47 -22 136 -25 196 -4 80 -14 139 -36 215 -16 58
-30 126 -30 152 0 26 -5 70 -11 97 -10 46 -8 54 14 93 14 24 28 54 31 68 5 17
0 14 -14 -12 -22 -41 -46 -58 -83 -58 -37 0 -106 27 -133 52 -21 20 -24 32
-24 95 0 98 -20 211 -38 218 -21 8 -23 4 -28 -72 -3 -37 -11 -77 -18 -88 -7
-11 -21 -44 -30 -72 -10 -29 -22 -53 -26 -53 -5 0 -15 -18 -21 -40 -7 -22 -16
-40 -20 -40 -4 0 -13 -33 -19 -72 -7 -40 -18 -80 -25 -88 -7 -8 -19 -35 -26
-60 -8 -24 -20 -52 -29 -62 -31 -34 -37 -44 -44 -71 -3 -15 -11 -25 -16 -22
-6 3 -10 -1 -10 -9 0 -8 -12 -29 -27 -45 -45 -48 -53 -59 -63 -86 -5 -14 -14
-25 -19 -25 -6 0 -19 -19 -29 -42 -11 -24 -31 -54 -46 -67 -14 -14 -26 -28
-26 -33 0 -4 -21 -31 -47 -59 -82 -88 -213 -219 -213 -214 0 3 -12 -8 -27 -25
-16 -16 -42 -40 -60 -52 -18 -13 -52 -37 -76 -55 -96 -69 -556 -155 -741 -139
-149 14 -255 52 -466 169 -40 22 -199 126 -217 142 -6 5 -26 21 -45 34 -40 30
-168 158 -223 224 -161 194 -304 517 -305 690 0 26 -4 47 -10 47 -5 0 -10 15
-10 33 0 17 -6 57 -13 87 -8 31 -12 61 -10 67 3 7 -1 21 -7 32 -13 25 -12 25
65 6 89 -21 89 -21 124 48 18 34 40 71 50 81 19 22 91 76 101 76 4 0 1 -23 -6
-52 -22 -82 -6 -162 43 -226 l25 -34 87 7 c143 10 189 23 225 59 31 32 99 59
75 30 -9 -11 -7 -14 9 -14 39 0 53 116 26 209 l-7 24 32 -19 c18 -10 53 -37
77 -60 55 -50 55 -37 1 41 -61 86 -144 149 -240 181 -69 23 -91 26 -181 22
-92 -3 -109 -7 -171 -37 -78 -39 -134 -87 -206 -177 -27 -35 -66 -73 -86 -85
-33 -21 -37 -21 -48 -5 -11 15 -30 91 -27 108 2 11 -27 158 -43 213 -19 69
-36 155 -37 184 0 18 -2 21 -9 10 -6 -9 -9 7 -10 46 -1 54 -2 57 -10 25 -6
-27 -7 -21 -3 23 2 32 1 56 -3 54 -17 -10 -21 286 -5 317 2 4 6 28 8 53 4 51
56 207 86 261 53 92 142 184 231 238 31 20 57 41 57 48 0 9 9 12 24 9 14 -3
53 2 88 11 35 8 124 27 198 41 205 37 334 74 364 101 26 24 26 25 23 177 -2
140 13 280 32 291 3 2 7 -78 8 -178 1 -201 12 -248 59 -267 30 -11 202 20 394
71 63 17 153 37 199 46 47 8 101 22 120 30 19 8 37 11 40 6 3 -4 29 -9 56 -10
302 -13 504 -137 659 -403 40 -70 90 -109 137 -109 13 0 31 -4 38 -9 10 -7 2
-8 -25 -5 -24 4 -46 1 -57 -8 -16 -12 -16 -17 -2 -64 22 -75 78 -210 128 -311
24 -48 45 -92 46 -98 1 -5 11 -28 21 -50 42 -86 120 -300 115 -312 -2 -8 0
-11 5 -8 6 3 10 1 10 -4 0 -15 32 -51 46 -51 6 0 19 -9 28 -19 19 -21 46 -18
46 5 0 8 7 14 16 14 13 0 14 3 4 15 -10 12 -7 15 17 21 15 4 31 12 35 18 5 7
8 4 8 -7 0 -18 25 -19 25 -1 0 16 16 34 30 34 27 0 75 -52 105 -113 24 -51 29
-56 23 -27 -3 19 -15 55 -25 79 l-18 43 25 57 c41 88 41 119 2 276 -19 77 -38
163 -42 190 -4 28 -23 81 -43 119 -35 67 -45 77 -159 157 -38 26 -43 34 -43
68 0 22 9 86 20 143 25 122 22 147 -30 248 -21 41 -46 92 -54 113 -20 46 -106
157 -167 212 -24 23 -98 69 -164 105 -113 60 -124 63 -185 63 -41 -1 -82 -9
-111 -21 -45 -20 -62 -36 -120 -120 -22 -32 -36 -42 -51 -40 -19 3 -25 19 -49
134 -33 156 -42 180 -102 261 -54 72 -124 114 -222 132 -64 12 -378 13 -435 2z
m-475 -881 c-10 -11 -26 -20 -37 -20 -11 0 -18 7 -18 20 0 16 7 20 37 20 35 0
36 0 18 -20z m-337 -1625 c25 -31 18 -68 -15 -86 -54 -29 -109 45 -67 92 24
26 59 24 82 -6z m-570 -337 c5 -7 13 -47 17 -88 3 -41 9 -84 11 -95 3 -13 -9
-3 -33 25 -21 24 -56 61 -77 82 -22 21 -37 40 -35 42 6 6 93 45 100 46 4 0 11
-6 17 -12z"/>
<path d="M3960 4764 c-14 -3 -90 -26 -170 -51 -80 -25 -183 -56 -230 -68 -61
-17 -90 -30 -107 -49 -28 -33 -29 -46 -3 -79 52 -66 211 -51 400 38 192 89
273 99 387 46 109 -52 137 -34 61 38 -100 92 -155 121 -246 126 -37 2 -78 1
-92 -1z"/>
<path d="M2595 4440 c-22 -4 -107 -15 -190 -25 -194 -21 -228 -29 -281 -66
-53 -36 -67 -56 -105 -150 -49 -121 -30 -162 35 -71 34 46 72 80 111 97 11 5
106 12 210 15 163 6 198 10 247 29 158 61 135 205 -27 171z"/>
<path d="M3972 4289 c-73 -12 -193 -73 -253 -127 -33 -30 -61 -68 -84 -117
-30 -62 -35 -82 -35 -146 0 -78 7 -80 33 -9 10 25 30 61 47 80 l29 35 1 -41
c0 -53 23 -118 57 -162 l26 -35 70 7 c129 12 205 35 249 74 32 29 41 33 49 21
7 -11 9 -11 9 -1 0 9 7 11 19 7 33 -10 51 20 51 84 0 70 -21 133 -59 182 l-29
35 51 -7 c65 -9 138 -40 188 -80 38 -30 39 -30 71 -14 28 13 118 89 118 99 0
2 -21 3 -47 3 -34 0 -75 11 -138 37 -49 21 -115 46 -145 56 -68 22 -207 32
-278 19z m-84 -195 c42 -29 18 -104 -35 -104 -27 0 -63 33 -63 58 0 24 36 62
58 62 10 0 28 -7 40 -16z"/>
<path d="M5108 4063 c-36 -40 -62 -108 -65 -167 l-4 -61 19 50 c11 28 24 60
30 72 7 12 12 32 12 46 0 31 9 39 30 27 18 -10 30 4 30 36 0 20 -34 18 -52 -3z"/>
<path d="M5265 3931 c-3 -5 -1 -12 5 -16 5 -3 10 1 10 9 0 18 -6 21 -15 7z"/>
<path d="M5270 3826 c0 -9 5 -16 10 -16 6 0 10 4 10 9 0 6 -4 13 -10 16 -5 3
-10 -1 -10 -9z"/>
<path d="M5331 3791 c13 -11 26 -18 28 -15 7 7 -21 34 -36 34 -10 0 -8 -6 8
-19z"/>
<path d="M1640 3320 c0 -22 8 -25 30 -10 13 9 13 11 0 20 -22 15 -30 12 -30
-10z"/>
<path d="M3030 3278 c-18 -77 -2 -135 54 -194 51 -53 107 -69 209 -61 85 7
185 52 221 100 30 39 53 124 38 139 -7 7 -14 3 -23 -13 -20 -40 -66 -78 -127
-107 -48 -23 -70 -27 -142 -27 -141 0 -195 40 -208 155 l-8 65 -14 -57z"/>
<path d="M1692 3193 c-26 -5 -20 -23 9 -23 22 0 24 -11 7 -28 -9 -9 -5 -12 19
-12 39 0 46 10 33 44 -9 26 -19 28 -68 19z"/>
<path d="M3945 2993 c-148 -17 -296 -40 -435 -69 -91 -19 -205 -41 -255 -49
-125 -22 -381 -84 -432 -106 -36 -15 -43 -23 -43 -46 0 -85 172 -263 315 -326
231 -102 537 -33 727 165 128 133 190 235 208 341 16 91 6 101 -85 90z m-115
-175 c0 -9 3 -9 12 0 16 16 28 15 28 -2 0 -16 -25 -25 -150 -55 -76 -18 -123
-28 -330 -71 -55 -11 -264 -40 -284 -40 -6 1 0 7 14 15 14 8 50 15 80 16 45 1
50 3 25 8 l-30 8 40 11 c22 6 83 18 135 27 52 8 110 19 129 25 19 5 46 7 60 4
16 -3 21 -2 14 3 -11 8 0 10 94 17 11 0 19 4 17 7 -3 6 67 22 103 24 6 0 15 4
19 8 11 11 24 8 24 -5z m70 8 c0 -3 -4 -8 -10 -11 -5 -3 -10 -1 -10 4 0 6 5
11 10 11 6 0 10 -2 10 -4z m-81 -74 c-160 -119 -556 -206 -736 -161 l-45 12
30 13 c17 7 65 18 109 24 102 16 525 100 536 107 7 4 84 19 116 22 7 0 3 -7
-10 -17z"/>
</g>
</svg>
