<svg width="24" height="24" viewBox="0 0 24 24" fill="none" xmlns="http://www.w3.org/2000/svg">
<path opacity="0.4" d="M12 22C6.48 22 2 17.52 2 12C2 6.48 6.48 2 12 2C17.52 2 22 6.48 22 12C22 17.52 17.52 22 12 22Z" fill="#F2B325"/>
<path d="M15 11.75C14.28 11.75 13.75 11.01 13.75 10C13.75 8.99 14.28 8.25 15 8.25C15.72 8.25 16.25 8.99 16.25 10C16.25 11.01 15.72 11.75 15 11.75ZM10.25 10C10.25 8.99 9.71999 8.25 8.99999 8.25C8.27999 8.25 7.74999 8.99 7.74999 10C7.74999 11.01 8.27999 11.75 8.99999 11.75C9.71999 11.75 10.25 11.01 10.25 10ZM16.6 15.45C16.85 15.12 16.79 14.65 16.46 14.4C16.13 14.15 15.66 14.21 15.41 14.54C14.59 15.62 13.35 16.24 12.01 16.24C10.67 16.24 9.41998 15.6 8.61998 14.54C8.36998 14.21 7.89999 14.14 7.56999 14.39C7.23999 14.64 7.16999 15.11 7.41999 15.44C8.49999 16.88 10.22 17.74 12.01 17.74C13.8 17.74 15.5 16.9 16.61 15.44L16.6 15.45Z" fill="#F2B325"/>
</svg>
