<svg width="18" height="16" viewBox="0 0 18 16" fill="none" xmlns="http://www.w3.org/2000/svg">
<path d="M9.06561 9.2V6.8L17.4949 6.8C17.5577 7.19143 17.5902 7.59215 17.5902 8C17.5902 12.4183 13.7736 16 9.06561 16C4.3576 16 0.541016 12.4183 0.541016 8C0.541016 3.58172 4.3576 0 9.06561 0C11.4196 0 13.5508 0.895431 15.0934 2.34315L13.2851 4.0402C12.2052 3.0268 10.7134 2.4 9.06561 2.4C5.77 2.4 3.09839 4.90721 3.09839 8C3.09839 11.0928 5.77 13.6 9.06561 13.6C11.9223 13.6 14.3101 11.7161 14.8955 9.2H9.06561Z" fill="#28303F"/>
</svg>
