<svg width="22" height="22" viewBox="0 0 22 22" fill="none" xmlns="http://www.w3.org/2000/svg">
<path d="M12.6831 9.08079L13.3138 9.48663L12.6831 9.08079ZM8.25 8C8.25 8.41421 8.58579 8.75 9 8.75C9.41421 8.75 9.75 8.41421 9.75 8H8.25ZM10.25 12.5C10.25 12.9142 10.5858 13.25 11 13.25C11.4142 13.25 11.75 12.9142 11.75 12.5H10.25ZM11.75 15C11.75 14.5858 11.4142 14.25 11 14.25C10.5858 14.25 10.25 14.5858 10.25 15H11.75ZM10.25 16C10.25 16.4142 10.5858 16.75 11 16.75C11.4142 16.75 11.75 16.4142 11.75 16H10.25ZM20.25 11C20.25 16.1086 16.1086 20.25 11 20.25V21.75C16.9371 21.75 21.75 16.9371 21.75 11H20.25ZM11 20.25C5.89137 20.25 1.75 16.1086 1.75 11H0.25C0.25 16.9371 5.06294 21.75 11 21.75V20.25ZM1.75 11C1.75 5.89137 5.89137 1.75 11 1.75V0.25C5.06294 0.25 0.25 5.06294 0.25 11H1.75ZM11 1.75C16.1086 1.75 20.25 5.89137 20.25 11H21.75C21.75 5.06294 16.9371 0.25 11 0.25V1.75ZM12.25 8C12.25 8.24996 12.1774 8.48068 12.0524 8.67495L13.3138 9.48663C13.5899 9.05757 13.75 8.54634 13.75 8H12.25ZM9.75 8C9.75 7.30964 10.3096 6.75 11 6.75V5.25C9.48122 5.25 8.25 6.48122 8.25 8H9.75ZM11 6.75C11.6904 6.75 12.25 7.30964 12.25 8H13.75C13.75 6.48122 12.5188 5.25 11 5.25V6.75ZM10.25 12V12.5H11.75V12H10.25ZM12.0524 8.67495C11.9265 8.87065 11.7688 9.07313 11.5836 9.30329C11.4063 9.52369 11.1979 9.77635 11.011 10.0333C10.6424 10.5398 10.25 11.2007 10.25 12H11.75C11.75 11.6947 11.9003 11.3605 12.2239 10.9158C12.383 10.697 12.558 10.4851 12.7523 10.2436C12.9387 10.0119 13.1409 9.75537 13.3138 9.48663L12.0524 8.67495ZM10.25 15V16H11.75V15H10.25Z" fill="#242424" fill-opacity="0.8"/>
</svg>
