<svg width="20" height="20" viewBox="0 0 20 20" fill="none" xmlns="http://www.w3.org/2000/svg">
<rect x="1" y="4.6001" width="18" height="14.4" rx="4" stroke="#242424" stroke-opacity="0.8" stroke-width="1.5"/>
<path d="M6.3999 4.6V4C6.3999 2.34315 7.74305 1 9.3999 1H10.5999C12.2568 1 13.5999 2.34315 13.5999 4V4.6" stroke="#242424" stroke-opacity="0.8" stroke-width="1.5" stroke-linecap="round"/>
<path d="M1 9.1001C1 9.1001 6.48528 12.7001 10 12.7001C13.5147 12.7001 19 9.1001 19 9.1001" stroke="#242424" stroke-opacity="0.8" stroke-width="1.5" stroke-linecap="round"/>
<path d="M11.8 12.6999C11.8 13.694 10.9941 14.4999 9.99995 14.4999C9.00584 14.4999 8.19995 13.694 8.19995 12.6999C8.19995 11.7058 9.00584 10.8999 9.99995 10.8999C10.9941 10.8999 11.8 11.7058 11.8 12.6999Z" fill="#242424"/>
<path d="M11.3 12.6999C11.3 13.4179 10.7179 13.9999 9.99995 13.9999C9.28198 13.9999 8.69995 13.4179 8.69995 12.6999C8.69995 11.9819 9.28198 11.3999 9.99995 11.3999C10.7179 11.3999 11.3 11.9819 11.3 12.6999Z" stroke="#242424" stroke-opacity="0.8"/>
</svg>
