<svg width="18" height="18" viewBox="0 0 18 18" fill="none" xmlns="http://www.w3.org/2000/svg">
<path d="M12.182 7.93932C11.5962 8.52511 10.6465 8.52511 10.0607 7.93932C9.47489 7.35354 9.47489 6.40379 10.0607 5.818C10.6465 5.23222 11.5962 5.23222 12.182 5.818C12.7678 6.40379 12.7678 7.35354 12.182 7.93932Z" stroke="#242424" stroke-opacity="0.8" stroke-width="1.5"/>
<path d="M7.05852 3.51683C7.6862 2.88914 8.55315 2.5634 9.43183 2.62509L12.4051 2.83383C13.8897 2.93806 15.0619 4.1103 15.1661 5.5949L15.3749 8.56814C15.4366 9.44682 15.1108 10.3138 14.4831 10.9415L9.55912 15.8655C8.37161 17.053 6.4592 17.0659 5.28763 15.8943L2.10565 12.7123C0.934079 11.5408 0.946994 9.62835 2.1345 8.44085L7.05852 3.51683Z" stroke="#242424" stroke-opacity="0.8" stroke-width="1.5" stroke-linejoin="round"/>
</svg>
