<svg width="61" height="31" viewBox="0 0 61 31" fill="none" xmlns="http://www.w3.org/2000/svg">
<rect width="60.9295" height="31" rx="12" fill="#FBF5E8"/>
<path fill-rule="evenodd" clip-rule="evenodd" d="M16.7771 22.875H19.3713C20.8754 22.875 22.1864 21.8514 22.5512 20.3922L23.8797 15.078C24.1383 14.0437 23.356 13.0417 22.2898 13.0417H18.243L19.3139 11.2058C20.1106 9.84013 19.1254 8.125 17.5443 8.125H16.6041L13.4343 13.6722C13.3635 13.796 13.3263 13.9361 13.3263 14.0787V20.7976C13.3263 21.0715 13.4633 21.3274 13.6912 21.4794L14.9589 22.3245C15.4973 22.6835 16.13 22.875 16.7771 22.875ZM9.63889 13.0417H10.4583C11.3635 13.0417 12.0972 13.7754 12.0972 14.6806V20.4167C12.0972 21.3218 11.3635 22.0556 10.4583 22.0556H9.63889C8.73376 22.0556 8 21.3218 8 20.4167V14.6806C8 13.7754 8.73376 13.0417 9.63889 13.0417Z" fill="#242424"/>
<path d="M30.4614 11.04V9.878H33.0934V20H31.8054V11.04H30.4614ZM41.7358 10.984H36.8218V14.176C37.0365 13.8773 37.3538 13.6347 37.7738 13.448C38.1938 13.252 38.6465 13.154 39.1318 13.154C39.9065 13.154 40.5365 13.3173 41.0218 13.644C41.5072 13.9613 41.8525 14.3767 42.0578 14.89C42.2725 15.394 42.3798 15.9307 42.3798 16.5C42.3798 17.172 42.2538 17.774 42.0018 18.306C41.7498 18.838 41.3625 19.258 40.8398 19.566C40.3265 19.874 39.6872 20.028 38.9218 20.028C37.9418 20.028 37.1485 19.776 36.5418 19.272C35.9352 18.768 35.5665 18.096 35.4358 17.256H36.6818C36.8032 17.788 37.0598 18.2033 37.4518 18.502C37.8438 18.8007 38.3385 18.95 38.9358 18.95C39.6732 18.95 40.2285 18.7307 40.6018 18.292C40.9752 17.844 41.1618 17.256 41.1618 16.528C41.1618 15.8 40.9752 15.24 40.6018 14.848C40.2285 14.4467 39.6778 14.246 38.9498 14.246C38.4552 14.246 38.0212 14.3673 37.6478 14.61C37.2838 14.8433 37.0178 15.1653 36.8498 15.576H35.6458V9.864H41.7358V10.984ZM50.5268 10.984H45.6128V14.176C45.8275 13.8773 46.1448 13.6347 46.5648 13.448C46.9848 13.252 47.4375 13.154 47.9228 13.154C48.6975 13.154 49.3275 13.3173 49.8128 13.644C50.2982 13.9613 50.6435 14.3767 50.8488 14.89C51.0635 15.394 51.1708 15.9307 51.1708 16.5C51.1708 17.172 51.0448 17.774 50.7928 18.306C50.5408 18.838 50.1535 19.258 49.6308 19.566C49.1175 19.874 48.4782 20.028 47.7128 20.028C46.7328 20.028 45.9395 19.776 45.3328 19.272C44.7262 18.768 44.3575 18.096 44.2268 17.256H45.4728C45.5942 17.788 45.8508 18.2033 46.2428 18.502C46.6348 18.8007 47.1295 18.95 47.7268 18.95C48.4642 18.95 49.0195 18.7307 49.3928 18.292C49.7662 17.844 49.9528 17.256 49.9528 16.528C49.9528 15.8 49.7662 15.24 49.3928 14.848C49.0195 14.4467 48.4688 14.246 47.7408 14.246C47.2462 14.246 46.8122 14.3673 46.4388 14.61C46.0748 14.8433 45.8088 15.1653 45.6408 15.576H44.4368V9.864H50.5268V10.984Z" fill="#242424"/>
</svg>
