<svg width="99" height="115" viewBox="0 0 99 115" fill="none" xmlns="http://www.w3.org/2000/svg">
<path fill-rule="evenodd" clip-rule="evenodd" d="M68.7176 113.895C79.8715 111.676 90.117 106.2 98.1585 98.1585L90.6056 90.6057C90.5678 90.6435 90.5299 90.6812 90.492 90.7189L78.0381 77.1686C78.0926 77.115 78.1469 77.0612 78.201 77.0071L74.3551 73.1613L72.2128 70.8303L72.1145 70.9207L68.7996 67.6057C66.9756 69.4297 64.6561 70.6777 62.129 71.1948C59.6019 71.7119 56.9785 71.4753 54.5847 70.5144C52.191 69.5535 50.1321 67.9106 48.664 65.7897C47.1958 63.6688 46.383 61.1634 46.3264 58.5846C46.2698 56.0057 46.972 53.4671 48.3457 51.2838C49.7194 49.1006 51.7042 47.369 54.0536 46.304C56.4029 45.239 59.0133 44.8876 61.5607 45.2933C64.108 45.6991 66.4801 46.8442 68.3823 48.5864L77.3623 38.7817L77.2975 38.7226L90.4932 24.2822L90.6056 24.3942L98.1585 16.8414C95.3111 13.994 92.1874 11.4682 88.8449 9.29482L88.639 9.10666L88.6074 9.14122C82.5705 5.25795 75.8287 2.51935 68.7176 1.10487C57.5637 -1.11378 46.0024 0.0249151 35.4956 4.37695C24.9889 8.72898 16.0087 16.0989 9.69048 25.5547C3.37231 35.0105 0 46.1275 0 57.4999C0 68.8724 3.37231 79.9894 9.69048 89.4452C16.0087 98.901 24.9889 106.271 35.4957 110.623C46.0024 114.975 57.5637 116.114 68.7176 113.895ZM67.968 83.3626C66.9326 83.7129 65.8728 83.9998 64.7943 84.2205C59.7153 85.2597 54.4429 84.7842 49.6318 82.853C44.8207 80.9217 40.6829 77.6197 37.7321 73.3572C34.7814 69.0946 33.1477 64.0592 33.034 58.8762C32.9203 53.6932 34.3315 48.591 37.0925 44.2031C39.8534 39.8152 43.8424 36.335 48.5642 34.1945C53.2859 32.0541 58.5324 31.3478 63.6521 32.1633C64.7539 32.3388 65.8394 32.5831 66.9026 32.8934L81.2738 17.1666C76.7661 14.5096 71.8205 12.6127 66.6338 11.581C57.5518 9.77449 48.1382 10.7017 39.5832 14.2452C31.0283 17.7888 23.7162 23.7897 18.5717 31.489C13.4272 39.1882 10.6814 48.2401 10.6814 57.4999C10.6814 66.7598 13.4272 75.8117 18.5717 83.5109C23.7162 91.2102 31.0283 97.2111 39.5832 100.755C48.1382 104.298 57.5519 105.225 66.6338 103.419C71.819 102.387 76.7631 100.491 81.2698 97.8356L67.968 83.3626Z" fill="#242424"/>
<path d="M70.4527 95.5987C64.5281 97.4892 58.2442 97.9719 52.1004 97.0085C45.9566 96.045 40.1221 93.662 35.0605 90.0488C29.999 86.4356 25.8498 81.6917 22.9428 76.1941C20.0357 70.6965 18.4508 64.5966 18.3141 58.3792C18.1774 52.1618 19.4925 45.9982 22.1551 40.3781C24.8177 34.758 28.7543 29.8363 33.6521 26.004C38.5499 22.1718 44.274 19.5346 50.3695 18.302C56.4651 17.0694 62.7641 17.2754 68.7661 18.9036L66.8494 25.9689C61.9461 24.6387 56.8002 24.4704 51.8205 25.4774C46.8407 26.4843 42.1645 28.6388 38.1632 31.7695C34.162 34.9002 30.946 38.921 28.7708 43.5123C26.5957 48.1036 25.5212 53.139 25.6329 58.2183C25.7446 63.2975 27.0394 68.2808 29.4143 72.772C31.7892 77.2633 35.1788 81.1388 39.3138 84.0906C43.4489 87.0424 48.2153 88.9892 53.2345 89.7762C58.2537 90.5633 63.3872 90.1689 68.2273 88.6245L70.4527 95.5987Z" fill="#F2B325"/>
<path d="M87.4676 35.2166C92.453 41.6408 95.3728 49.4521 95.8348 57.6013C96.2968 65.7504 94.2789 73.8473 90.0521 80.8043L83.8747 76.9754C87.3278 71.2919 88.9763 64.6772 88.5989 58.0198C88.2214 51.3623 85.8361 44.9809 81.7633 39.7327L87.4676 35.2166Z" fill="#F2B325"/>
</svg>
