<svg width="53" height="53" viewBox="0 0 53 53" fill="none" xmlns="http://www.w3.org/2000/svg">
<rect width="53" height="53" rx="12" fill="#F4F4F4"/>
<path d="M21.5 29.5C24.4458 28.1802 26.1997 28.1532 29.5 29.5" stroke="#242424" stroke-width="1.5" stroke-linecap="round" stroke-linejoin="round"/>
<circle cx="3" cy="3" r="3" transform="matrix(1 0 0 -1 22.5 25.5)" stroke="#242424" stroke-width="1.5" stroke-linejoin="round"/>
<path d="M34.277 27.5C34.4229 26.8568 34.5 26.1874 34.5 25.5C34.5 20.5294 30.4706 16.5 25.5 16.5C20.5294 16.5 16.5 20.5294 16.5 25.5C16.5 30.4706 20.5294 34.5 25.5 34.5C26.1874 34.5 26.8568 34.4229 27.5 34.277" stroke="#242424" stroke-width="1.5" stroke-linecap="round" stroke-linejoin="round"/>
<path d="M32.5 30.5V34.5" stroke="#242424" stroke-width="1.5" stroke-linecap="round"/>
<path d="M34.5 32.5L30.5 32.5" stroke="#242424" stroke-width="1.5" stroke-linecap="round"/>
</svg>
