<svg width="25" height="26" viewBox="0 0 25 26" fill="none" xmlns="http://www.w3.org/2000/svg">
<path d="M23.9565 12.9165C23.9565 19.121 18.8773 24.1665 12.5923 24.1665C6.30734 24.1665 1.22821 19.121 1.22821 12.9165C1.22821 6.71202 6.30734 1.6665 12.5923 1.6665C18.8773 1.6665 23.9565 6.71202 23.9565 12.9165Z" fill="#F0F0F0" stroke="white" stroke-width="2"/>
<path fill-rule="evenodd" clip-rule="evenodd" d="M5.52643 5.73861C5.31704 5.94607 5.31704 6.28244 5.52643 6.48991L9.48025 10.4072V12.6663C9.48025 14.2311 10.7606 15.4997 12.34 15.4997C12.9819 15.4997 13.5744 15.2901 14.0516 14.9364L14.6885 15.5674C14.0455 16.079 13.2288 16.3851 12.34 16.3851C10.267 16.3851 8.58658 14.7202 8.58658 12.6663V11.958C8.58658 11.6646 8.34652 11.4268 8.05038 11.4268C7.75425 11.4268 7.51418 11.6646 7.51418 11.958V12.6663C7.51418 15.1274 9.39091 17.1541 11.8038 17.4184V18.6872H10.1952C9.89905 18.6872 9.65898 18.925 9.65898 19.2184C9.65898 19.5118 9.89905 19.7497 10.1952 19.7497H14.4848C14.7809 19.7497 15.021 19.5118 15.021 19.2184C15.021 18.925 14.7809 18.6872 14.4848 18.6872H12.8762V17.4184C13.8513 17.3116 14.7388 16.917 15.4503 16.3222L18.3952 19.2399C18.6046 19.4474 18.9441 19.4474 19.1535 19.2399C19.3629 19.0324 19.3629 18.6961 19.1535 18.4886L6.28474 5.73861C6.07534 5.53114 5.73583 5.53114 5.52643 5.73861ZM16.7249 14.6657L15.8998 13.8483C16.0254 13.477 16.0934 13.0795 16.0934 12.6663V11.958C16.0934 11.6646 16.3334 11.4268 16.6296 11.4268C16.9257 11.4268 17.1658 11.6646 17.1658 11.958V12.6663C17.1658 13.3801 17.0079 14.0574 16.7249 14.6657ZM9.59903 7.60564L15.1635 13.1187C15.1873 12.9714 15.1997 12.8203 15.1997 12.6663V8.41634C15.1997 6.85153 13.9194 5.58301 12.34 5.58301C11.0449 5.58301 9.95097 6.43588 9.59903 7.60564Z" fill="#242424" fill-opacity="0.6"/>
</svg>
