<svg width="25" height="26" viewBox="0 0 25 26" fill="none" xmlns="http://www.w3.org/2000/svg">
<path d="M23.8029 12.9165C23.8029 19.12 18.7189 24.1665 12.4255 24.1665C6.1322 24.1665 1.04816 19.12 1.04816 12.9165C1.04816 6.71303 6.1322 1.6665 12.4255 1.6665C18.7189 1.6665 23.8029 6.71303 23.8029 12.9165Z" fill="#EFF2F8" stroke="white" stroke-width="2"/>
<path fill-rule="evenodd" clip-rule="evenodd" d="M12.5992 6.1665C10.9716 6.1665 9.65222 7.47234 9.65222 9.08317V13.4582C9.65222 15.069 10.9716 16.3748 12.5992 16.3748C14.2268 16.3748 15.5462 15.069 15.5462 13.4582V9.08317C15.5462 7.47234 14.2268 6.1665 12.5992 6.1665ZM8.17872 12.1821C8.48389 12.1821 8.73128 12.427 8.73128 12.729V13.4582C8.73128 15.5724 10.463 17.2863 12.5992 17.2863C14.7354 17.2863 16.4671 15.5724 16.4671 13.4582V12.729C16.4671 12.427 16.7145 12.1821 17.0197 12.1821C17.3249 12.1821 17.5723 12.427 17.5723 12.729V13.4582C17.5723 15.9916 15.6383 18.078 13.1518 18.35V19.6561H14.8095C15.1146 19.6561 15.362 19.9009 15.362 20.203C15.362 20.505 15.1146 20.7498 14.8095 20.7498H10.389C10.0838 20.7498 9.83641 20.505 9.83641 20.203C9.83641 19.9009 10.0838 19.6561 10.389 19.6561H12.0467V18.35C9.56015 18.078 7.62616 15.9916 7.62616 13.4582V12.729C7.62616 12.427 7.87355 12.1821 8.17872 12.1821Z" fill="#242424"/>
</svg>
