<svg width="26" height="26" viewBox="0 0 26 26" fill="none" xmlns="http://www.w3.org/2000/svg">
<path d="M24.075 12.9165C24.075 19.1287 19.0334 24.1665 12.8119 24.1665C6.59043 24.1665 1.54877 19.1287 1.54877 12.9165C1.54877 6.70431 6.59043 1.6665 12.8119 1.6665C19.0334 1.6665 24.075 6.70431 24.075 12.9165Z" fill="#EFF2F8" stroke="#3E76E6" stroke-width="2"/>
<path fill-rule="evenodd" clip-rule="evenodd" d="M12.984 6.1665C11.3714 6.1665 10.0642 7.47234 10.0642 9.08317V13.4582C10.0642 15.069 11.3714 16.3748 12.984 16.3748C14.5965 16.3748 15.9038 15.069 15.9038 13.4582V9.08317C15.9038 7.47234 14.5965 6.1665 12.984 6.1665ZM8.60428 12.1821C8.90664 12.1821 9.15175 12.427 9.15175 12.729V13.4582C9.15175 15.5724 10.8675 17.2863 12.984 17.2863C15.1005 17.2863 16.8162 15.5724 16.8162 13.4582V12.729C16.8162 12.427 17.0613 12.1821 17.3637 12.1821C17.666 12.1821 17.9111 12.427 17.9111 12.729V13.4582C17.9111 15.9916 15.995 18.078 13.5314 18.35V19.6561H15.1738C15.4762 19.6561 15.7213 19.9009 15.7213 20.203C15.7213 20.505 15.4762 20.7498 15.1738 20.7498H10.7941C10.4918 20.7498 10.2467 20.505 10.2467 20.203C10.2467 19.9009 10.4918 19.6561 10.7941 19.6561H12.4365V18.35C9.97296 18.078 8.05682 15.9916 8.05682 13.4582V12.729C8.05682 12.427 8.30193 12.1821 8.60428 12.1821Z" fill="#3E76E6"/>
</svg>
