<svg width="13" height="18" viewBox="0 0 13 18" fill="none" xmlns="http://www.w3.org/2000/svg">
<path fill-rule="evenodd" clip-rule="evenodd" d="M6.5 0.713867C4.567 0.713867 3 2.23875 3 4.11978V9.22865C3 11.1097 4.567 12.6346 6.5 12.6346C8.433 12.6346 10 11.1097 10 9.22865V4.11978C10 2.23875 8.433 0.713867 6.5 0.713867ZM1.25 7.73856C1.61244 7.73856 1.90625 8.02448 1.90625 8.37717V9.22865C1.90625 11.6975 3.96294 13.6989 6.5 13.6989C9.03706 13.6989 11.0938 11.6975 11.0938 9.22865V8.37717C11.0938 8.02448 11.3876 7.73856 11.75 7.73856C12.1124 7.73856 12.4062 8.02448 12.4062 8.37717V9.22865C12.4062 12.187 10.1093 14.6234 7.15625 14.9411V16.4662H9.125C9.48744 16.4662 9.78125 16.7521 9.78125 17.1048C9.78125 17.4575 9.48744 17.7434 9.125 17.7434H3.875C3.51256 17.7434 3.21875 17.4575 3.21875 17.1048C3.21875 16.7521 3.51256 16.4662 3.875 16.4662H5.84375V14.9411C2.89066 14.6234 0.59375 12.187 0.59375 9.22865V8.37717C0.59375 8.02448 0.887563 7.73856 1.25 7.73856Z" fill="#242424"/>
</svg>
