<svg width="12" height="18" viewBox="0 0 12 18" fill="none" xmlns="http://www.w3.org/2000/svg">
<path fill-rule="evenodd" clip-rule="evenodd" d="M6 0.75C4.15905 0.75 2.66667 2.24238 2.66667 4.08333V9.08333C2.66667 10.9243 4.15905 12.4167 6 12.4167C7.84095 12.4167 9.33333 10.9243 9.33333 9.08333V4.08333C9.33333 2.24238 7.84095 0.75 6 0.75ZM1 7.625C1.34518 7.625 1.625 7.90482 1.625 8.25V9.08333C1.625 11.4996 3.58375 13.4583 6 13.4583C8.41625 13.4583 10.375 11.4996 10.375 9.08333V8.25C10.375 7.90482 10.6548 7.625 11 7.625C11.3452 7.625 11.625 7.90482 11.625 8.25V9.08333C11.625 11.9787 9.43747 14.3631 6.625 14.674V16.1667H8.5C8.84518 16.1667 9.125 16.4465 9.125 16.7917C9.125 17.1368 8.84518 17.4167 8.5 17.4167H3.5C3.15482 17.4167 2.875 17.1368 2.875 16.7917C2.875 16.4465 3.15482 16.1667 3.5 16.1667H5.375V14.674C2.56253 14.3631 0.375 11.9787 0.375 9.08333V8.25C0.375 7.90482 0.654822 7.625 1 7.625Z" fill="#242424"/>
</svg>
