<svg width="257" height="299" viewBox="0 0 257 299" fill="none" xmlns="http://www.w3.org/2000/svg">
<g opacity="0.5">
<path d="M161.951 24.8633L171.427 19.3143C172.42 18.7326 172.749 17.4663 172.162 16.4859C171.574 15.5055 170.292 15.1823 169.299 15.7641L159.823 21.313C158.829 21.8947 158.501 23.1611 159.088 24.1415C159.676 25.1218 160.958 25.445 161.951 24.8633Z" fill="#F2B325" fill-opacity="0.6"/>
<path d="M152.28 13.8749L158.68 4.95144C159.35 4.01595 159.136 2.72532 158.2 2.06874C157.265 1.41217 155.962 1.63827 155.291 2.57376L148.892 11.4972C148.221 12.4327 148.435 13.7233 149.371 14.3799C150.306 15.0365 151.609 14.8103 152.28 13.8749Z" fill="#F2B325" fill-opacity="0.6"/>
<path d="M164.565 37.6211L175.546 37.5535C176.697 37.5464 177.615 36.6142 177.596 35.4713C177.577 34.3284 176.629 33.4077 175.478 33.4148L164.497 33.4824C163.346 33.4895 162.428 34.4217 162.446 35.5646C162.465 36.7075 163.414 37.6282 164.565 37.6211Z" fill="#F2B325" fill-opacity="0.6"/>
</g>
<path fill-rule="evenodd" clip-rule="evenodd" d="M66.2863 166.656C72.3154 153.056 67.1901 145.056 81.139 125.579C83.3904 122.436 94.0863 116.474 100.957 108.919C107.663 101.547 110.551 92.5373 112.351 92.6475C116.216 92.8841 126.361 100.441 129.995 102.647C132.883 104.401 141.299 111.963 155.537 118.611C169.774 125.259 178.671 141.477 191.188 166.656C173.394 163.035 170.118 174.94 170.118 174.94C170.118 174.94 170.186 149.567 165.09 160.321C159.994 171.076 170.118 250.286 170.118 250.286H77.4604L91.33 174.94C91.33 174.94 60.2571 180.256 66.2863 166.656Z" fill="url(#paint0_linear_405_8823)"/>
<mask id="mask0_405_8823" style="mask-type:luminance" maskUnits="userSpaceOnUse" x="65" y="92" width="127" height="159">
<path fill-rule="evenodd" clip-rule="evenodd" d="M66.2863 166.656C72.3154 153.056 67.1901 145.056 81.139 125.579C83.3904 122.436 94.0863 116.474 100.957 108.919C107.663 101.547 110.551 92.5373 112.351 92.6475C116.216 92.8841 126.361 100.441 129.995 102.647C132.883 104.401 141.299 111.963 155.537 118.611C169.774 125.259 178.671 141.477 191.188 166.656C173.394 163.035 170.118 174.94 170.118 174.94C170.118 174.94 170.186 149.567 165.09 160.321C159.994 171.076 170.118 250.286 170.118 250.286H77.4604L91.33 174.94C91.33 174.94 60.2571 180.256 66.2863 166.656Z" fill="white"/>
</mask>
<g mask="url(#mask0_405_8823)">
<g style="mix-blend-mode:multiply" opacity="0.184839">
<path fill-rule="evenodd" clip-rule="evenodd" d="M86.4199 111.761C86.4199 111.761 127.885 118.2 132.841 101.037C137.796 83.8751 113.214 86.0732 113.214 86.0732L86.4199 111.761Z" fill="url(#paint1_linear_405_8823)"/>
</g>
</g>
<path d="M158.042 163.603C176.405 188.749 191.103 206.718 199.181 205.725C210.014 205.759 227.687 186.806 246.71 170.033L244.472 151.778C236.492 168.086 214.674 175.21 205.201 182.177C201.147 181.238 191.291 173.815 172.219 138.087L158.042 163.603Z" fill="#5D5D5D"/>
<path fill-rule="evenodd" clip-rule="evenodd" d="M119.77 26.934C134.053 25.9352 145.357 36.8965 145.02 51.4167L144.367 79.521C144.03 94.0412 135.527 106.388 125.375 107.097C115.224 107.807 105.085 96.7645 102.731 82.4325L98.1726 54.6926C95.8178 40.3607 105.487 27.9327 119.77 26.934Z" fill="#F4F4F4"/>
<g opacity="0.275079">
<path fill-rule="evenodd" clip-rule="evenodd" d="M134.972 29.8699C131.89 27.9307 129.254 26.2716 119.77 26.9348C105.487 27.9335 95.8178 40.3615 98.1726 54.6934L102.731 82.4333C104.739 94.6544 112.406 104.484 120.916 106.674C114.47 100.268 110.024 87.2621 110.15 76.469L116.996 54.7265C117.822 53.7581 117.911 52.9441 117.98 52.3146C118.147 50.7913 118.195 50.3474 128.27 51.4063C132.833 51.8858 137.647 49.771 141.99 47.1435L140.934 32.7637C138.203 31.9037 136.53 30.8509 134.972 29.8699Z" fill="#B3B3B3" style="mix-blend-mode:multiply"/>
</g>
<path fill-rule="evenodd" clip-rule="evenodd" d="M102.727 84.4858C102.727 84.4858 98.0214 79.4671 95.9094 72.7381C91.5629 58.8897 89.8841 42.7218 90.5458 35.7616C92.0859 19.5613 111.427 11.3461 129.261 19.5613C147.095 27.7765 150.631 43.4144 146.318 46.0365C142.004 48.6587 113.929 49.7289 108.328 43.4144C99.2972 46.0365 102.727 84.4858 102.727 84.4858Z" fill="url(#paint2_linear_405_8823)"/>
<ellipse cx="103.409" cy="61.7607" rx="6.25803" ry="6.693" transform="rotate(6 103.409 61.7607)" fill="#8E8E95"/>
<path fill-rule="evenodd" clip-rule="evenodd" d="M13 92.2427C13 92.2427 40.187 119.712 60.6694 125.42C81.1519 131.129 133.2 143.366 133.2 143.366V295.078C133.2 295.078 85.5434 288.383 60.6694 280.367C35.7954 272.352 31 253.955 31 253.955L13 92.2427Z" fill="url(#paint3_linear_405_8823)"/>
<path fill-rule="evenodd" clip-rule="evenodd" d="M6 96.2427C6 96.2427 40.187 122.712 60.6694 128.42C81.1519 134.129 133.2 143.366 133.2 143.366V295.078C133.2 295.078 85.5434 288.383 60.6694 280.367C35.7954 272.352 24 257.955 24 257.955L6 96.2427Z" fill="url(#paint4_linear_405_8823)"/>
<path fill-rule="evenodd" clip-rule="evenodd" d="M0 105.243C0 105.243 40.187 125.712 60.6694 131.42C81.1519 137.129 133.2 142.366 133.2 142.366V298.078C133.2 298.078 85.5434 291.383 60.6694 283.367C35.7954 275.352 18 260.955 18 260.955L0 105.243Z" fill="url(#paint5_linear_405_8823)"/>
<path fill-rule="evenodd" clip-rule="evenodd" d="M187.927 117.452C211.285 111.4 257 110.033 257 110.033L243.8 265.745C243.8 265.745 206.954 270.171 187.927 275.684C168.9 281.196 132.2 298.078 132.2 298.078V142.366C132.2 142.366 164.569 123.504 187.927 117.452ZM167.046 177.515L160.394 181.254L161.275 187.944L160.19 192.705L159.107 197.378L164.142 202.209L159.519 210.849L160.496 215.647L158.3 219.555L161.624 224.898L159.488 231.355L159.394 237.574L167.044 234.842L171.151 234.469L174.825 232.24L179.305 228.803L184.998 229.001L188.259 229.704L193.985 226.34L198.602 227.91L203.535 225.205L206.625 223.838L212.921 226.426L218.293 223.773L225.296 222.618L226.904 218.101L224.438 212.713L227.154 206.499L225.41 201.686L226.748 195.345L228.97 191.179L227.287 185.215L225.604 179.263L227.91 173.515L228.576 161.006L215.985 162.638L208.419 165.618L202.218 164.422C202.218 164.422 196.382 165.47 193.985 166.006C192.529 166.332 184.769 173.422 184.769 173.422L176.461 172.986L171.729 173.262L167.046 177.515Z" fill="url(#paint6_linear_405_8823)"/>
<path fill-rule="evenodd" clip-rule="evenodd" d="M155 152.961C155 152.961 168.271 145.897 188.285 140.196C208.299 134.496 229.313 133.796 229.313 133.796V147.381C229.313 147.381 208.707 147.515 190.805 151.975C172.902 156.434 155 166.894 155 166.894V152.961Z" fill="url(#paint7_linear_405_8823)"/>
<path fill-rule="evenodd" clip-rule="evenodd" d="M158 253.961C158 253.961 166.299 247.865 186.313 242.164C206.327 236.464 225.43 236.131 225.43 236.131L224.43 247.716C224.43 247.716 208.618 247.864 190.715 252.324C172.813 256.784 158 266.894 158 266.894V253.961Z" fill="url(#paint8_linear_405_8823)"/>
<path opacity="0.6" d="M25.1219 148.566C32.9323 153.688 37.8175 157.712 51.775 162.958C72.1656 170.623 92.7332 174.674 113.11 174.05L112.777 164.208C94.2916 164.774 75.0695 160.894 56.1431 153.779C43.0703 148.865 30.2571 142.78 23.1713 138.133L25.1219 148.566Z" fill="#B3B3B3"/>
<path opacity="0.6" d="M27.1691 171.106C35.1536 175.953 40.1756 179.768 54.3077 184.524C74.9533 191.473 93.651 194.873 113.993 193.538L113.316 183.645C94.8618 184.855 77.516 181.648 58.3528 175.199C45.1165 170.744 33.0981 165.075 25.8544 160.678L27.1691 171.106Z" fill="#B3B3B3"/>
<path opacity="0.6" d="M29.4877 191.906C37.3724 196.61 44.5485 201.356 58.4404 205.859C78.7353 212.438 94.736 213.446 114.596 211.748L113.724 201.833C95.7072 203.373 81.0762 202.569 62.2386 196.463C49.2272 192.245 35.1595 185.752 28.0063 181.485L29.4877 191.906Z" fill="#B3B3B3"/>
<path opacity="0.6" fill-rule="evenodd" clip-rule="evenodd" d="M31.2521 205.512L36.0062 252.105C36.0062 252.105 53.4695 262.587 74.6868 264.743C72.2773 248.313 72.2773 240.105 72.2773 220.512C48.0211 216.79 31.2521 205.512 31.2521 205.512Z" fill="#B3B3B3"/>
<rect x="246.548" y="146.842" width="10.2857" height="4.44444" rx="2.22222" transform="rotate(14 246.548 146.842)" fill="#F2B325" fill-opacity="0.6"/>
<rect x="246.548" y="152.176" width="10.2857" height="4.44444" rx="2.22222" transform="rotate(14 246.548 152.176)" fill="#F2B325" fill-opacity="0.6"/>
<rect x="246.548" y="157.509" width="10.2857" height="4.44444" rx="2.22222" transform="rotate(14 246.548 157.509)" fill="#F2B325" fill-opacity="0.6"/>
<rect x="246.548" y="162.842" width="10.2857" height="4.44444" rx="2.22222" transform="rotate(14 246.548 162.842)" fill="#F2B325" fill-opacity="0.6"/>
<rect x="15.1507" y="194.472" width="10" height="4" rx="2" transform="rotate(-176 15.1507 194.472)" fill="#F2B325" fill-opacity="0.6"/>
<rect x="14.2824" y="189.548" width="10" height="4" rx="2" transform="rotate(-176 14.2824 189.548)" fill="#F2B325" fill-opacity="0.6"/>
<rect x="13.4142" y="184.624" width="10" height="4" rx="2" transform="rotate(-176 13.4142 184.624)" fill="#F2B325" fill-opacity="0.6"/>
<rect x="12.3723" y="179.715" width="10" height="4" rx="2" transform="rotate(-176 12.3723 179.715)" fill="#F2B325" fill-opacity="0.6"/>
<defs>
<linearGradient id="paint0_linear_405_8823" x1="210.317" y1="-31.0811" x2="37.0853" y2="49.7467" gradientUnits="userSpaceOnUse">
<stop stop-color="white"/>
<stop offset="1" stop-color="#242424"/>
</linearGradient>
<linearGradient id="paint1_linear_405_8823" x1="146.142" y1="64.9086" x2="96.1195" y2="92.7197" gradientUnits="userSpaceOnUse">
<stop stop-color="white"/>
<stop offset="1" stop-color="#242424"/>
</linearGradient>
<linearGradient id="paint2_linear_405_8823" x1="127.313" y1="-15.5581" x2="91.6493" y2="27.7033" gradientUnits="userSpaceOnUse">
<stop stop-color="#979797"/>
<stop offset="1" stop-color="#242424"/>
</linearGradient>
<linearGradient id="paint3_linear_405_8823" x1="99.469" y1="158.029" x2="30.5242" y2="148.332" gradientUnits="userSpaceOnUse">
<stop stop-color="#929FAA"/>
<stop offset="1" stop-color="#D4DBE0"/>
</linearGradient>
<linearGradient id="paint4_linear_405_8823" x1="97.5047" y1="160.732" x2="24.7781" y2="149.69" gradientUnits="userSpaceOnUse">
<stop stop-color="#979797"/>
<stop offset="1" stop-color="white"/>
</linearGradient>
<linearGradient id="paint5_linear_405_8823" x1="95.8209" y1="167.786" x2="19.9474" y2="155.347" gradientUnits="userSpaceOnUse">
<stop stop-color="#F8F9FA"/>
<stop offset="1" stop-color="#EFF1F3"/>
</linearGradient>
<linearGradient id="paint6_linear_405_8823" x1="244.225" y1="112.958" x2="127.121" y2="119.17" gradientUnits="userSpaceOnUse">
<stop stop-color="#F1F3F7"/>
<stop offset="1" stop-color="#D6DCE2"/>
</linearGradient>
<linearGradient id="paint7_linear_405_8823" x1="229.313" y1="150.345" x2="155" y2="150.345" gradientUnits="userSpaceOnUse">
<stop stop-color="#979797"/>
<stop offset="1" stop-color="#B3B3B3"/>
</linearGradient>
<linearGradient id="paint8_linear_405_8823" x1="225.43" y1="251.513" x2="158" y2="251.513" gradientUnits="userSpaceOnUse">
<stop stop-color="#979797"/>
<stop offset="1" stop-color="#B3B3B3"/>
</linearGradient>
</defs>
</svg>
