<svg width="53" height="54" viewBox="0 0 53 54" fill="none" xmlns="http://www.w3.org/2000/svg">
<rect y="0.5" width="53" height="53" rx="12" fill="#EFF2F8"/>
<path d="M26.5 34V37M26.5 34C22.634 34 19.5 30.866 19.5 27V26M26.5 34C28.5327 34 30.363 33.1336 31.6418 31.75M26.5 37H29.5M26.5 37H23.5M17.5 17.75L35.5 35.75M33.5 26V27C33.5 27.8232 33.3579 28.6132 33.0969 29.3469M30.5 26.75V21C30.5 18.7909 28.7091 17 26.5 17C24.9444 17 23.5962 17.888 22.9347 19.1847M22.5 23V27C22.5 29.2091 24.2909 31 26.5 31C27.6484 31 28.6838 30.516 29.4133 29.741" stroke="#3E76E6" stroke-width="1.5" stroke-linecap="round" stroke-linejoin="round"/>
</svg>
