<svg width="40" height="40" viewBox="0 0 40 40" fill="none" xmlns="http://www.w3.org/2000/svg">
<path fill-rule="evenodd" clip-rule="evenodd" d="M19.8773 0H20.1227C24.3092 0 27.8583 0.83543 30.7916 2.4042C33.7249 3.97296 36.0271 6.27505 37.5958 9.2084C39.1645 12.1417 40 15.6909 40 19.8773V20.1227C40 24.3092 39.1645 27.8583 37.5958 30.7916C36.0271 33.7249 33.7249 36.0271 30.7916 37.5958C27.8583 39.1645 24.3092 40 20.1227 40H19.8773C15.6909 40 12.1417 39.1645 9.2084 37.5958C6.27505 36.0271 3.97296 33.7249 2.4042 30.7916C0.83543 27.8583 0 24.3092 0 20.1227V19.8773C0 15.6909 0.83543 12.1417 2.4042 9.2084C3.97296 6.27505 6.27505 3.97296 9.2084 2.4042C12.1417 0.83543 15.6909 0 19.8773 0Z" fill="#F4F4F4"/>
<path fill-rule="evenodd" clip-rule="evenodd" d="M20 5.57422C20.5799 5.57422 21.05 6.04432 21.05 6.62422V7.02594C21.7373 7.09572 22.4189 7.23948 23.0828 7.45722C26.1868 8.48593 28.5589 11.0162 29.3856 14.18L27.3556 14.7134C26.709 12.2378 24.8533 10.2578 22.4248 9.45222C21.6672 9.2041 20.8802 9.07907 20.0929 9.07716C20.0623 9.07985 20.0313 9.08122 20 9.08122C19.9749 9.08122 19.95 9.08034 19.9254 9.07861C19.1894 9.09316 18.4549 9.21535 17.746 9.44522L17.2616 7.95251L17.418 8.43711L17.746 9.44802C15.2582 10.2571 13.3442 12.2632 12.6528 14.7862L12.5898 15.0172C12.1269 16.7261 12.0417 18.5152 12.3401 20.2603L12.3406 20.263L12.3709 20.4437L12.3714 20.4436C12.4736 21.0509 12.1789 21.656 11.6378 21.95L11.2836 21.3003L11.6378 21.9514C10.9896 22.3042 10.55 22.9944 10.55 23.7882C10.5473 24.7786 11.2419 25.6341 12.2118 25.835H12.2129H12.2132L12.2131 25.8353L12.727 25.94C17.5263 26.9179 22.4736 26.9179 27.273 25.94L27.7868 25.8353L28.2068 27.893L27.693 27.998C26.8345 28.1729 25.9717 28.3183 25.1059 28.434C25.0978 28.4703 25.0893 28.5065 25.0806 28.5426L24.9658 29.0102L23.3951 28.6243L23.3948 28.6243L24.9644 29.0102C24.5133 30.851 23.072 32.2858 21.2292 32.7286V32.73L21.2288 32.7287C20.4211 32.9232 19.5784 32.9232 18.7708 32.7286L18.7694 32.73L18.7697 32.7284C16.9274 32.2853 15.4866 30.8507 15.0356 29.0102L14.9208 28.5426C14.9118 28.5066 14.9032 28.4704 14.8949 28.4342C14.0289 28.3184 13.1657 28.173 12.307 27.998L11.7918 27.893L11.7918 27.8927C9.84371 27.496 8.44995 25.7758 8.44995 23.7882L8.45135 23.7882C8.44975 22.4144 9.12084 21.1382 10.2281 20.3586C9.92885 18.3943 10.0424 16.3881 10.5626 14.4684L10.6256 14.236C11.5027 11.0286 13.9354 8.47808 17.0978 7.45022L17.3557 8.24524L17.2299 7.85466L17.0978 7.44742C17.7036 7.25089 18.3241 7.1159 18.95 7.04242V6.62422C18.95 6.04432 19.4201 5.57422 20 5.57422ZM27.7882 25.835H27.7868L27.7868 25.8353L27.7882 25.835ZM28.3823 21.9616C29.0204 22.3186 29.45 23.0031 29.45 23.7882C29.45 24.7864 28.7514 25.639 27.7882 25.835L28.2082 27.893C30.1559 27.4925 31.5528 25.7767 31.55 23.7882C31.5516 22.4146 30.8806 21.1375 29.7716 20.3575C30.075 18.4109 29.9739 16.4218 29.4738 14.5146L29.387 14.1814L27.3556 14.7134V14.7148L27.4424 15.048L27.4438 15.0477V15.048C27.8857 16.7344 27.9621 18.4957 27.6678 20.214L28.7026 20.3919L27.6678 20.2154L27.6346 20.4087L27.6342 20.4086C27.5222 21.0582 27.8568 21.6658 28.3818 21.9598L29.1073 20.6624L29.1091 20.6627L28.3823 21.9616ZM28.3823 21.9616L28.3818 21.9626V21.9612L28.3823 21.9616ZM17.1188 28.6663C17.4226 29.6673 18.2346 30.4387 19.2594 30.686C19.7466 30.8036 20.2534 30.8036 20.7406 30.686L21.1351 32.3355L20.742 30.686C21.7668 30.4388 22.579 29.6673 22.8829 28.6662C20.964 28.8103 19.0376 28.8104 17.1188 28.6663Z" fill="black"/>
</svg>
