<svg width="40" height="40" viewBox="0 0 40 40" fill="none" xmlns="http://www.w3.org/2000/svg">
<path fill-rule="evenodd" clip-rule="evenodd" d="M19.8773 0H20.1227C24.3092 0 27.8583 0.83543 30.7916 2.4042C33.7249 3.97296 36.0271 6.27505 37.5958 9.2084C39.1645 12.1417 40 15.6909 40 19.8773V20.1227C40 24.3092 39.1645 27.8583 37.5958 30.7916C36.0271 33.7249 33.7249 36.0271 30.7916 37.5958C27.8583 39.1645 24.3092 40 20.1227 40H19.8773C15.6909 40 12.1417 39.1645 9.2084 37.5958C6.27505 36.0271 3.97296 33.7249 2.4042 30.7916C0.83543 27.8583 0 24.3092 0 20.1227V19.8773C0 15.6909 0.83543 12.1417 2.4042 9.2084C3.97296 6.27505 6.27505 3.97296 9.2084 2.4042C12.1417 0.83543 15.6909 0 19.8773 0Z" fill="#F4F4F4"/>
<path fill-rule="evenodd" clip-rule="evenodd" d="M20 5.5741C20.5799 5.5741 21.05 6.0442 21.05 6.6241V7.02582C21.7373 7.0956 22.4189 7.23936 23.0828 7.4571C26.1868 8.48581 28.5589 11.0161 29.3856 14.1799L27.3556 14.7133C26.709 12.2377 24.8533 10.2577 22.4248 9.4521C21.6672 9.20398 20.8802 9.07895 20.0929 9.07704C20.0623 9.07973 20.0313 9.0811 20 9.0811C19.9749 9.0811 19.95 9.08022 19.9254 9.07849C19.1894 9.09304 18.4549 9.21522 17.746 9.4451L17.2616 7.95238L17.418 8.43699L17.746 9.4479C15.2582 10.257 13.3442 12.2631 12.6528 14.7861L12.5898 15.0171C12.1269 16.7259 12.0417 18.5151 12.3401 20.2602L12.3406 20.2629L12.3709 20.4436L12.3714 20.4435C12.4736 21.0508 12.1789 21.6559 11.6378 21.9499L11.2836 21.3002L11.6378 21.9513C10.9896 22.3041 10.55 22.9943 10.55 23.7881C10.5473 24.7785 11.2419 25.634 12.2118 25.8349H12.2129H12.2132L12.2131 25.8352L12.727 25.9399C17.5263 26.9178 22.4736 26.9178 27.273 25.9399L27.7868 25.8352L28.2068 27.8929L27.693 27.9979C26.8345 28.1728 25.9717 28.3182 25.1059 28.4339C25.0978 28.4702 25.0893 28.5064 25.0806 28.5425L24.9658 29.0101L23.3951 28.6242L23.3948 28.6242L24.9644 29.0101C24.5133 30.8509 23.072 32.2857 21.2292 32.7285V32.7299L21.2288 32.7286C20.4211 32.9231 19.5784 32.9231 18.7708 32.7285L18.7694 32.7299L18.7697 32.7283C16.9274 32.2852 15.4866 30.8506 15.0356 29.0101L14.9208 28.5425C14.9118 28.5064 14.9032 28.4703 14.8949 28.434C14.0289 28.3183 13.1657 28.1729 12.307 27.9979L11.7918 27.8929L11.7918 27.8926C9.84371 27.4959 8.44995 25.7756 8.44995 23.7881L8.45135 23.7881C8.44975 22.4142 9.12084 21.1381 10.2281 20.3585C9.92885 18.3942 10.0424 16.388 10.5626 14.4683L10.6256 14.2359C11.5027 11.0285 13.9354 8.47796 17.0978 7.4501L17.3557 8.24511L17.2299 7.85453L17.0978 7.4473C17.7036 7.25077 18.3241 7.11578 18.95 7.0423V6.6241C18.95 6.0442 19.4201 5.5741 20 5.5741ZM27.7882 25.8349H27.7868L27.7868 25.8352L27.7882 25.8349ZM28.3823 21.9614C29.0204 22.3185 29.45 23.0029 29.45 23.7881C29.45 24.7863 28.7514 25.6389 27.7882 25.8349L28.2082 27.8929C30.1559 27.4924 31.5528 25.7766 31.55 23.7881C31.5516 22.4145 30.8806 21.1374 29.7716 20.3574C30.075 18.4108 29.9739 16.4217 29.4738 14.5145L29.387 14.1813L27.3556 14.7133V14.7147L27.4424 15.0479L27.4438 15.0475V15.0479C27.8857 16.7343 27.9621 18.4956 27.6678 20.2139L28.7026 20.3917L27.6678 20.2153L27.6346 20.4086L27.6342 20.4085C27.5222 21.0581 27.8568 21.6657 28.3818 21.9597L29.1073 20.6623L29.1091 20.6626L28.3823 21.9614ZM28.3823 21.9614L28.3818 21.9625V21.9611L28.3823 21.9614ZM17.1188 28.6662C17.4226 29.6671 18.2346 30.4386 19.2594 30.6859C19.7466 30.8035 20.2534 30.8035 20.7406 30.6859L21.1351 32.3353L20.742 30.6859C21.7668 30.4387 22.579 29.6672 22.8829 28.6661C20.964 28.8102 19.0376 28.8102 17.1188 28.6662Z" fill="black"/>
</svg>
