<svg width="24" height="24" viewBox="0 0 24 24" fill="none" xmlns="http://www.w3.org/2000/svg">
<path opacity="0.4" d="M12 22C6.48 22 2 17.52 2 12C2 6.48 6.48 2 12 2C17.52 2 22 6.48 22 12C22 17.52 17.52 22 12 22Z" fill="#F2B325"/>
<path d="M15 10.75C14.28 10.75 13.75 10.01 13.75 9C13.75 7.99 14.28 7.25 15 7.25C15.72 7.25 16.25 7.99 16.25 9C16.25 10.01 15.72 10.75 15 10.75ZM10.25 9C10.25 7.99 9.72 7.25 9 7.25C8.28 7.25 7.75 7.99 7.75 9C7.75 10.01 8.28 10.75 9 10.75C9.72 10.75 10.25 10.01 10.25 9ZM8.54001 14C8.23001 14 8.00001 14.28 8.04001 14.59C8.32001 16.52 9.98 18 12 18C14.02 18 15.67 16.52 15.96 14.59C16 14.28 15.77 14 15.46 14H8.54001Z" fill="#F2B325"/>
</svg>
