<svg width="24" height="24" viewBox="0 0 24 24" fill="none" xmlns="http://www.w3.org/2000/svg">
<path d="M15 10.75C14.28 10.75 13.75 10.01 13.75 9C13.75 7.99 14.28 7.25 15 7.25C15.72 7.25 16.25 7.99 16.25 9C16.25 10.01 15.72 10.75 15 10.75ZM10.25 9C10.25 7.99 9.72 7.25 9 7.25C8.28 7.25 7.75 7.99 7.75 9C7.75 10.01 8.28 10.75 9 10.75C9.72 10.75 10.25 10.01 10.25 9ZM22.75 12C22.75 6.07 17.93 1.25 12 1.25C6.07 1.25 1.25 6.07 1.25 12C1.25 17.93 6.07 22.75 12 22.75C17.93 22.75 22.75 17.93 22.75 12ZM21.25 12C21.25 17.1 17.1 21.25 12 21.25C6.9 21.25 2.75 17.1 2.75 12C2.75 6.9 6.9 2.75 12 2.75C17.1 2.75 21.25 6.9 21.25 12ZM16.7 14.7C16.75 14.33 16.65 13.97 16.41 13.69C16.17 13.42 15.83 13.26 15.47 13.26H8.54999C8.18999 13.26 7.83999 13.42 7.60999 13.69C7.36999 13.97 7.26001 14.34 7.32001 14.7C7.66001 17.01 9.67999 18.75 12.02 18.75C14.36 18.75 16.38 17.01 16.72 14.7H16.7ZM15.16 14.75C14.82 16.19 13.51 17.25 12 17.25C10.49 17.25 9.18 16.19 8.84 14.75H15.17H15.16Z" fill="#242424" fill-opacity="0.8"/>
</svg>
