<svg width="53" height="53" viewBox="0 0 53 53" fill="none" xmlns="http://www.w3.org/2000/svg">
<rect width="53" height="53" rx="12" fill="#F4F4F4"/>
<path d="M28.5 16.5H20.5C18.2909 16.5 16.5 18.2909 16.5 20.5V32.5C16.5 34.7091 18.2909 36.5 20.5 36.5H32.5C34.7091 36.5 36.5 34.7091 36.5 32.5V24.5M33.5 16.5V22.5M36.5 19.5L30.5 19.5M36.5 28.5L33.561 26.3839C32.0338 25.2843 29.9467 25.398 28.5479 26.6569L24.4521 30.3431C23.0533 31.602 20.9662 31.7157 19.439 30.6161L16.5 28.5M25.5 23C25.5 24.3807 24.3807 25.5 23 25.5C21.6193 25.5 20.5 24.3807 20.5 23C20.5 21.6193 21.6193 20.5 23 20.5C24.3807 20.5 25.5 21.6193 25.5 23Z" stroke="#242424" stroke-width="1.5" stroke-linecap="round"/>
</svg>
