<svg width="22" height="23" viewBox="0 0 22 23" fill="none" xmlns="http://www.w3.org/2000/svg">
<path d="M21 13.5L18.061 11.3839C16.5338 10.2843 14.4467 10.398 13.0479 11.6569L8.95209 15.3431C7.55331 16.602 5.4662 16.7157 3.93901 15.6161L1 13.5M5 21.5H17C19.2091 21.5 21 19.7091 21 17.5V5.5C21 3.29086 19.2091 1.5 17 1.5H5C2.79086 1.5 1 3.29086 1 5.5V17.5C1 19.7091 2.79086 21.5 5 21.5ZM10 8C10 9.38071 8.88071 10.5 7.5 10.5C6.11929 10.5 5 9.38071 5 8C5 6.61929 6.11929 5.5 7.5 5.5C8.88071 5.5 10 6.61929 10 8Z" stroke="#242424" stroke-width="1.5" stroke-linecap="round"/>
</svg>
