<svg width="200" height="210" viewBox="0 0 200 210" fill="none" xmlns="http://www.w3.org/2000/svg">
<path d="M157.285 99.683C152.244 80.1839 148.541 60.3539 146.201 40.3355C146.19 40.2533 146.158 40.1754 146.108 40.1096C146.058 40.0437 145.992 39.9921 145.917 39.9598C145.842 39.9274 145.759 39.9155 145.678 39.9251C145.597 39.9347 145.519 39.9656 145.453 40.0146C144.373 40.7877 143.474 41.7921 142.819 42.9567C142.686 42.2127 142.548 41.4687 142.406 40.7247C142.381 40.6109 142.33 40.5048 142.256 40.4156C142.182 40.3264 142.088 40.2567 141.981 40.2124C141.875 40.1682 141.76 40.1507 141.645 40.1614C141.531 40.1721 141.421 40.2108 141.324 40.2741C138.694 41.9244 136.832 44.5791 137.029 48.8227C137.118 50.752 137.276 52.6659 137.469 54.5729L134.22 44.7814C134.178 44.6626 134.111 44.5549 134.023 44.4662C133.935 44.3775 133.828 44.3101 133.711 44.2691C133.593 44.2281 133.468 44.2144 133.345 44.2292C133.222 44.244 133.103 44.2868 132.999 44.3545C131.25 45.4816 129.916 47.2156 130.048 51.4495C130.123 53.8656 135.7 71.9783 136.315 73.2115C137.553 75.7001 141.008 72.433 143.081 71.7913C143.127 73.178 143.211 74.566 143.314 75.947L137.401 77.3281C137.447 77.3281 138.489 84.0701 138.588 84.6867C139.297 89.0865 140.006 93.4859 140.715 97.8848C140.831 98.599 140.765 100.064 141.332 100.591C141.851 101.071 142.894 100.731 143.497 100.651L146.574 100.223C146.716 100.793 146.857 101.363 146.996 101.933L148.371 101.523C148.826 103.286 149.237 104.731 149.562 105.659C149.424 105.998 149.274 106.345 149.129 106.698L138.998 110.113C134.471 120.024 129.95 129.939 125.433 139.856C124.633 133.093 123.961 126.537 123.347 121.402L113.585 123.076C113.02 127.863 111.082 148.692 109.331 161.561C109.193 162.606 109.056 163.72 109.523 164.665C110.16 165.955 111.692 166.516 113.098 166.887L113.185 166.908C112.91 167.732 112.785 168.582 113.047 169.388C113.573 171.03 115.427 171.802 117.082 172.357C120.976 173.667 132.383 176.793 143.447 178.644C147.847 179.381 149.727 176.663 150.082 175.133C151.275 169.971 154.864 141.858 155.22 136.959L156.288 122.261C156.354 121.354 156.42 120.449 156.486 119.545C156.72 117.462 157.615 110.907 158.07 107.333C158.105 107.102 158.132 106.876 158.156 106.651C158.208 106.232 158.25 105.881 158.281 105.605C158.279 105.538 158.259 105.472 158.224 105.415C158.25 103.282 157.75 101.484 157.285 99.683ZM143.072 71.4454C143.043 71.3603 143.015 71.2752 142.987 71.1915H143.064L143.072 71.4454Z" fill="#242424"/>
<path d="M31.8865 151.779L44.4953 140.289C46.4945 138.466 48.5666 136.539 49.4961 133.979C50.5219 131.157 49.9939 128.017 49.2816 125.097C47.9008 119.438 45.877 113.961 43.2509 108.776C42.3283 106.955 41.319 105.136 40.9381 103.126C40.5353 100.996 40.8666 98.8015 41.198 96.6574C43.2688 83.2654 45.34 69.8734 47.4116 56.4814C47.6866 54.6679 49.6694 52.5252 51.1695 53.5436C52.9199 45.2531 56.6283 44.3589 58.1366 45.8878C58.1366 43.6642 59.0139 40.9369 62.4624 40.9355C64.8796 40.9355 66.5695 43.2917 66.6245 45.8613C68.2607 44.2556 71.2266 45.2824 72.4078 47.2563C73.5889 49.2302 73.5077 51.6952 73.3895 54.0025L71.8261 84.341C72.5012 81.6151 74.088 78.2197 76.8311 78.6131C78.9349 78.9144 81.0936 80.933 81.634 83.0199C84.5669 94.4422 80.7788 98.8643 85.0234 114.247C87.0941 121.755 89.598 129.173 90.7489 136.888C91.8997 144.602 90.9482 153.179 85.7494 158.92C81.8375 163.245 76.1601 165.317 70.9186 167.791C60.4004 172.766 50.9705 179.827 43.1849 188.559C38.8536 174.838 34.5228 161.119 30.1925 147.399L31.8865 151.779Z" fill="#F2B325"/>
<path d="M70.1005 111.204C70.0677 111.205 70.035 111.201 70.0029 111.195C69.8594 111.169 69.7321 111.086 69.6488 110.964C69.5655 110.843 69.5331 110.693 69.5587 110.547C69.5587 110.517 70.0909 107.478 70.3012 100.604C70.4814 94.6626 70.7454 89.7592 71.1084 85.6132C71.1213 85.4652 71.1917 85.3285 71.304 85.2331C71.4163 85.1378 71.5613 85.0916 71.7072 85.1047C71.853 85.1179 71.9878 85.1893 72.0818 85.3032C72.1758 85.4171 72.2213 85.5643 72.2084 85.7123C71.8481 89.8359 71.5855 94.7184 71.404 100.639C71.1922 107.614 70.667 110.621 70.645 110.746C70.622 110.875 70.5548 110.992 70.4552 111.076C70.3556 111.16 70.23 111.205 70.1005 111.204Z" fill="#242424"/>
<path d="M59.3535 100.587C59.2107 100.587 59.0734 100.531 58.9708 100.43C58.8681 100.329 58.8081 100.192 58.8035 100.047L58.5092 90.3897C58.4487 88.4018 58.3855 86.3442 58.5436 84.313C58.7609 81.5231 59.3975 78.754 60.0121 76.0826C60.1056 75.678 60.1991 75.2748 60.2871 74.8703C61.7494 68.4154 62.8616 61.8839 63.6187 55.3054C64.2416 49.8761 64.7077 47.2019 65.6689 46.6857C65.795 46.6299 65.9371 46.6241 66.0673 46.6694C66.1974 46.7147 66.3061 46.8078 66.3719 46.9304C66.4376 47.053 66.4557 47.1962 66.4226 47.3317C66.3894 47.4671 66.3074 47.5851 66.1927 47.6622C66.124 47.7222 65.8064 48.1044 65.4104 50.296C65.1354 51.8193 64.9044 53.7444 64.7119 55.4296C63.9501 62.0489 62.831 68.6209 61.3596 75.1158C61.2679 75.5222 61.1763 75.9277 61.0846 76.3323C60.4796 78.9632 59.8471 81.6849 59.6422 84.3967C59.4882 86.3693 59.5501 88.3934 59.6092 90.352L59.9035 100.008C59.9079 100.156 59.8544 100.299 59.7546 100.407C59.6549 100.515 59.517 100.578 59.3714 100.583L59.3535 100.587Z" fill="#242424"/>
<path d="M51.9533 99.4221H51.9148C51.7693 99.4117 51.6338 99.3431 51.5381 99.2314C51.4425 99.1197 51.3945 98.974 51.4047 98.8264C51.8667 92.1067 51.6893 87.6078 51.5422 83.9934C51.3937 80.2269 51.2864 77.5108 52.011 74.4488C53.5414 67.9997 56.5224 52.9463 57.5922 45.7927C57.614 45.6464 57.6923 45.5149 57.8098 45.4271C57.9272 45.3393 58.0743 45.3025 58.2185 45.3247C58.3627 45.3469 58.4923 45.4263 58.5789 45.5455C58.6654 45.6646 58.7017 45.8138 58.6798 45.9601C57.6032 53.136 54.6153 68.2369 53.0849 74.7069C52.3974 77.6182 52.5005 80.2715 52.6463 83.9459C52.7838 87.5883 52.9694 92.1207 52.5019 98.9004C52.4928 99.0417 52.4311 99.1743 52.3292 99.2712C52.2273 99.3681 52.0929 99.422 51.9533 99.4221Z" fill="#242424"/>
<path d="M45.774 98.5419H45.7135C45.6416 98.5339 45.572 98.5116 45.5086 98.4763C45.4452 98.441 45.3893 98.3933 45.3441 98.336C45.2989 98.2787 45.2653 98.213 45.2451 98.1425C45.225 98.072 45.2188 97.9982 45.2268 97.9253C45.5692 94.7935 45.7067 91.3521 45.8387 88.0208C46.0532 82.6305 46.2512 77.5402 47.2508 73.4696C47.9933 70.4368 48.7633 65.5627 49.5044 60.8504C49.899 58.3394 50.273 55.9679 50.6278 53.9716C50.6406 53.8995 50.6673 53.8306 50.7064 53.7688C50.7455 53.7071 50.7961 53.6538 50.8555 53.612C50.9149 53.5702 50.9818 53.5406 51.0524 53.525C51.123 53.5094 51.196 53.5081 51.2672 53.5211C51.3383 53.5341 51.4062 53.5612 51.467 53.6008C51.5279 53.6404 51.5804 53.6918 51.6216 53.7521C51.6629 53.8123 51.692 53.8802 51.7074 53.9519C51.7228 54.0235 51.7241 54.0976 51.7113 54.1697C51.3579 56.1576 50.9853 58.5221 50.5907 61.0262C49.844 65.7692 49.0782 70.66 48.3192 73.7388C47.3567 77.6992 47.149 82.7338 46.9442 88.0654C46.8067 91.4134 46.6692 94.873 46.3268 98.0439C46.3121 98.1817 46.2474 98.3091 46.1452 98.4011C46.043 98.4932 45.9107 98.5434 45.774 98.5419Z" fill="#242424"/>
<path d="M65.9301 55.9274C65.7843 55.9274 65.6444 55.8686 65.5412 55.7639C65.4381 55.6593 65.3801 55.5173 65.3801 55.3694C65.3801 55.2214 65.4381 55.0794 65.5412 54.9748C65.6444 54.8701 65.7843 54.8114 65.9301 54.8114C69.8365 54.8114 69.8819 49.5871 69.8819 49.5341C69.8819 49.3861 69.9398 49.2442 70.043 49.1395C70.1461 49.0349 70.286 48.9761 70.4319 48.9761C70.5777 48.9761 70.7176 49.0349 70.8208 49.1395C70.9239 49.2442 70.9819 49.3861 70.9819 49.5341C70.9819 51.7451 69.9259 55.9274 65.9301 55.9274Z" fill="white"/>
<path d="M59.1225 51.5318C59.0606 51.5318 58.9987 51.5318 58.9355 51.5318C58.8632 51.5298 58.7921 51.5134 58.7261 51.4835C58.6602 51.4536 58.6007 51.4108 58.551 51.3575C58.5013 51.3043 58.4625 51.2417 58.4367 51.1732C58.4109 51.1047 58.3986 51.0318 58.4006 50.9585C58.4026 50.8852 58.4188 50.813 58.4483 50.7461C58.4777 50.6792 58.5199 50.6188 58.5724 50.5684C58.6249 50.518 58.6866 50.4786 58.7541 50.4524C58.8216 50.4263 58.8935 50.4138 58.9657 50.4158C60.6735 50.4633 62.6933 49.8676 63.1718 44.7717C63.1787 44.6984 63.1997 44.6272 63.2337 44.5622C63.2677 44.4971 63.314 44.4395 63.3699 44.3926C63.4258 44.3457 63.4903 44.3105 63.5596 44.2889C63.629 44.2673 63.7019 44.2597 63.7741 44.2667C63.8463 44.2736 63.9165 44.295 63.9806 44.3294C64.0447 44.3639 64.1015 44.4109 64.1477 44.4676C64.1939 44.5243 64.2287 44.5897 64.25 44.6601C64.2713 44.7305 64.2787 44.8044 64.2718 44.8777C63.847 49.3528 62.1598 51.5318 59.1225 51.5318Z" fill="white"/>
<path d="M53.1165 55.63C53.0313 55.63 52.946 55.63 52.8622 55.6203C52.7899 55.615 52.7194 55.5953 52.6547 55.5623C52.59 55.5294 52.5323 55.4838 52.4849 55.4282C52.3893 55.316 52.3415 55.1698 52.352 55.0218C52.3573 54.9485 52.3767 54.877 52.4092 54.8114C52.4416 54.7457 52.4865 54.6872 52.5413 54.6391C52.5961 54.591 52.6597 54.5544 52.7284 54.5313C52.7971 54.5081 52.8697 54.499 52.9419 54.5043C53.3228 54.5322 53.6817 54.5587 54.255 53.744C54.9315 52.7856 54.9893 50.5997 55.0113 49.7766C55.0113 49.672 55.0113 49.5813 55.0195 49.5088C55.0224 49.4355 55.0395 49.3635 55.0698 49.2969C55.1001 49.2304 55.1431 49.1705 55.1962 49.1208C55.2493 49.071 55.3115 49.0324 55.3794 49.007C55.4472 48.9817 55.5193 48.9702 55.5915 48.9731C55.6638 48.976 55.7347 48.9934 55.8003 49.0241C55.866 49.0549 55.925 49.0984 55.974 49.1523C56.023 49.2062 56.0611 49.2694 56.0861 49.3382C56.1111 49.407 56.1224 49.4801 56.1195 49.5534C56.1195 49.6232 56.1195 49.7083 56.1113 49.8073C56.0824 50.894 56.0219 53.1553 55.1488 54.3927C54.4283 55.418 53.749 55.63 53.1165 55.63Z" fill="white"/>
<path d="M47.1848 61.015C47.0389 61.015 46.899 60.9562 46.7959 60.8516C46.6927 60.7469 46.6348 60.605 46.6348 60.457C46.6348 60.309 46.6927 60.1671 46.7959 60.0624C46.899 59.9578 47.0389 59.899 47.1848 59.899C47.2989 59.899 47.3828 59.8125 47.5973 59.5363C47.7261 59.3558 47.8757 59.1914 48.0428 59.0467C48.1567 58.9542 48.3022 58.9114 48.4473 58.9277C48.5923 58.9441 48.725 59.0182 48.8162 59.1338C48.9074 59.2495 48.9495 59.3971 48.9334 59.5442C48.9173 59.6914 48.8442 59.826 48.7303 59.9185C48.6314 60.01 48.5424 60.112 48.4649 60.2226C48.2201 60.5379 47.8599 61.015 47.1848 61.015Z" fill="white"/>
<path d="M73.6852 92.3772C73.5393 92.3872 73.3955 92.338 73.2854 92.2404C73.1753 92.1429 73.1079 92.0049 73.0981 91.8569C73.0882 91.7089 73.1367 91.563 73.2329 91.4513C73.3291 91.3396 73.4651 91.2712 73.6109 91.2612C74.8924 91.0827 75.8494 89.9667 76.3169 88.9818C76.8917 87.7695 77.0581 86.3718 77.2176 85.0214C77.2358 84.8734 77.3112 84.7388 77.4273 84.6473C77.4847 84.6019 77.5504 84.5685 77.6206 84.5489C77.6908 84.5294 77.7641 84.524 77.8363 84.5332C77.9085 84.5423 77.9783 84.5658 78.0416 84.6023C78.1048 84.6388 78.1604 84.6876 78.2051 84.7459C78.2498 84.8042 78.2827 84.8709 78.302 84.9421C78.3213 85.0133 78.3266 85.0876 78.3176 85.1609C78.1539 86.5364 77.9683 88.0904 77.3138 89.4728C76.5479 91.0869 75.2224 92.1708 73.7677 92.3744C73.7403 92.377 73.7127 92.3779 73.6852 92.3772Z" fill="white"/>
<path d="M34.2392 141.992C32.8435 142.438 31.7477 143.535 30.6573 144.541C27.1904 147.74 23.2332 150.346 18.9409 152.255C18.2218 152.575 17.4463 152.914 17.031 153.601C16.2239 154.94 17.2139 156.627 18.1214 157.895C26.0882 169.017 30.2214 182.492 35.4712 195.232C35.7627 195.94 36.094 196.69 36.7279 197.088C37.4471 197.54 38.3614 197.42 39.1864 197.251C45.4096 195.959 51.1256 192.853 55.6328 188.312C57.071 186.862 58.4515 185.088 58.4942 183.011C58.5285 181.268 57.6128 179.678 56.7438 178.187C53.4575 172.557 50.3867 166.798 47.5313 160.911C46.1494 158.057 44.5173 155.129 43.519 152.103C43.2014 151.14 43.167 150.178 43.0337 149.183C42.8755 147.995 42.3764 146.94 41.7549 145.937C40.1943 143.411 37.3233 141.009 34.2392 141.992Z" fill="#EB8A44"/>
<path d="M18.1228 158.453C18.0019 158.453 17.8844 158.412 17.7886 158.337C17.6927 158.262 17.6238 158.158 17.5925 158.039C17.5612 157.921 17.5692 157.795 17.6154 157.682C17.6615 157.568 17.7432 157.474 17.8478 157.412C25.5799 152.841 32.8558 147.518 39.5728 141.519C39.6263 141.467 39.6897 141.426 39.7592 141.399C39.8286 141.373 39.9026 141.361 39.9768 141.364C40.051 141.367 40.1238 141.385 40.1908 141.418C40.2578 141.45 40.3176 141.496 40.3666 141.553C40.4157 141.609 40.453 141.675 40.4762 141.747C40.4994 141.818 40.5081 141.894 40.5017 141.969C40.4954 142.044 40.4741 142.117 40.4393 142.183C40.4044 142.25 40.3566 142.309 40.2988 142.356C33.527 148.403 26.1922 153.768 18.3978 158.376C18.3141 158.425 18.2194 158.452 18.1228 158.453Z" fill="#242424"/>
<path d="M23.9239 161.773C23.8068 161.773 23.6927 161.734 23.5983 161.664C23.504 161.593 23.4343 161.494 23.3995 161.381C23.3647 161.267 23.3665 161.145 23.4047 161.033C23.4429 160.921 23.5154 160.823 23.6118 160.756C30.1527 156.197 36.8998 151.766 43.6648 147.584C43.7893 147.507 43.939 147.483 44.0808 147.518C44.2226 147.553 44.345 147.643 44.4211 147.77C44.4971 147.896 44.5205 148.048 44.4863 148.192C44.452 148.336 44.3627 148.46 44.2382 148.537C37.4883 152.709 30.7632 157.129 24.2347 161.675C24.1434 161.739 24.0349 161.773 23.9239 161.773Z" fill="#242424"/>
<path d="M23.9239 170.143C23.8003 170.143 23.6801 170.102 23.5828 170.024C23.4854 169.947 23.4165 169.839 23.3873 169.717C23.3581 169.595 23.3702 169.467 23.4216 169.353C23.4731 169.239 23.5609 169.145 23.6709 169.088C31.3792 165.043 39.0132 160.609 46.3584 155.897C46.4817 155.818 46.6309 155.792 46.7732 155.824C46.9156 155.857 47.0394 155.945 47.1174 156.07C47.1955 156.195 47.2214 156.347 47.1894 156.491C47.1574 156.635 47.0702 156.761 46.9469 156.84C39.5728 161.569 31.9113 166.025 24.1742 170.08C24.0968 170.121 24.0111 170.142 23.9239 170.143Z" fill="#242424"/>
<path d="M26.2641 176.118C26.1369 176.118 26.0134 176.074 25.9147 175.992C25.816 175.911 25.7482 175.797 25.7229 175.671C25.6976 175.544 25.7163 175.413 25.7759 175.298C25.8355 175.184 25.9322 175.095 26.0496 175.045C33.4001 171.896 40.4085 167.981 46.962 163.363C47.0212 163.319 47.0885 163.288 47.1599 163.27C47.2314 163.253 47.3055 163.251 47.3779 163.263C47.4503 163.275 47.5195 163.302 47.5815 163.342C47.6435 163.382 47.697 163.434 47.7388 163.495C47.7807 163.556 47.8101 163.625 47.8252 163.698C47.8403 163.771 47.8409 163.846 47.827 163.92C47.813 163.993 47.7848 164.062 47.7439 164.124C47.703 164.186 47.6504 164.239 47.589 164.28C40.9727 168.941 33.8976 172.893 26.4773 176.073C26.41 176.103 26.3375 176.118 26.2641 176.118Z" fill="#242424"/>
<path d="M32.9632 182.034C32.8405 182.034 32.7214 181.993 32.6247 181.916C32.5281 181.839 32.4594 181.732 32.4297 181.611C32.4 181.491 32.4109 181.363 32.4607 181.25C32.5106 181.136 32.5964 181.042 32.7047 180.984C39.4422 177.357 46.1343 173.44 52.6105 169.341C52.6718 169.302 52.7401 169.276 52.8114 169.264C52.8827 169.252 52.9556 169.254 53.026 169.271C53.0964 169.287 53.1629 169.318 53.2218 169.36C53.2806 169.403 53.3306 169.457 53.3688 169.519C53.4071 169.581 53.433 169.65 53.4449 169.723C53.4568 169.795 53.4545 169.869 53.4382 169.94C53.422 170.012 53.392 170.079 53.35 170.139C53.308 170.199 53.2548 170.249 53.1935 170.288C46.6953 174.399 39.9757 178.33 33.2203 181.97C33.141 182.012 33.0527 182.034 32.9632 182.034Z" fill="#242424"/>
<path d="M34.917 189.825C34.7933 189.825 34.6733 189.783 34.5764 189.705C34.4794 189.627 34.4111 189.518 34.3825 189.396C34.3539 189.274 34.3666 189.146 34.4187 189.032C34.4708 188.918 34.5591 188.826 34.6695 188.769C42.3697 184.825 49.8629 180.478 57.1191 175.746C57.2418 175.665 57.3909 175.638 57.5335 175.669C57.6761 175.701 57.8005 175.788 57.8795 175.913C57.9584 176.037 57.9854 176.189 57.9545 176.333C57.9235 176.478 57.8372 176.604 57.7145 176.684C50.4261 181.438 42.8993 185.804 35.1645 189.765C35.0877 189.805 35.003 189.825 34.917 189.825Z" fill="#242424"/>
<path d="M40.1805 193.285C40.05 193.285 39.9236 193.238 39.8239 193.153C39.7242 193.067 39.6577 192.949 39.6364 192.818C39.6151 192.687 39.6403 192.553 39.7075 192.44C39.7747 192.326 39.8795 192.24 40.0032 192.198C46.5184 189.968 52.6491 186.716 58.1724 182.561C58.2302 182.516 58.2965 182.482 58.3672 182.463C58.4379 182.444 58.5117 182.439 58.5843 182.449C58.6569 182.459 58.7267 182.484 58.7898 182.521C58.8528 182.559 58.9078 182.609 58.9515 182.669C58.9952 182.729 59.0267 182.797 59.0442 182.869C59.0616 182.941 59.0647 183.016 59.0532 183.089C59.0418 183.163 59.0159 183.233 58.9773 183.296C58.9387 183.359 58.888 183.414 58.8283 183.457C53.215 187.681 46.9847 190.987 40.3634 193.255C40.3045 193.275 40.2427 193.285 40.1805 193.285Z" fill="#242424"/>
<path d="M147.547 198.167C146.072 198.167 144.935 197.019 144.324 196.414L144.161 196.251C143.186 195.291 142.373 194.469 141.599 193.675C139.19 191.219 137.288 189.28 132.646 185.647C132.593 185.605 132.475 185.527 132.349 185.446C131.465 184.869 129.628 183.668 129.362 181.723C129.087 179.395 130.412 177.573 131.885 175.952C132.789 174.955 133.756 173.999 134.69 173.073C135.869 171.905 137.088 170.701 138.173 169.419C139.099 168.327 140.011 167.187 140.892 166.084C141.42 165.422 141.966 164.739 142.512 164.071C143.97 162.285 146.736 159.247 148.885 158.971C151.06 158.692 153.573 160.945 157.051 164.065C159.416 166.187 162.098 168.593 165.211 170.657L165.226 170.668C166.789 171.784 167.622 172.971 167.772 174.295C167.947 175.829 167.173 177.559 165.406 179.569C164.629 180.455 163.589 181.757 162.388 183.265C159.088 187.399 154.574 193.063 149.933 197.141C149.072 197.891 148.269 198.167 147.547 198.167ZM149.247 160.063C149.172 160.063 149.098 160.068 149.024 160.077C147.748 160.241 145.631 162.001 143.359 164.782C142.817 165.446 142.273 166.127 141.746 166.787C140.859 167.903 139.944 169.043 139.006 170.147C137.891 171.461 136.655 172.686 135.458 173.871C134.534 174.786 133.579 175.733 132.693 176.708C131.399 178.134 130.232 179.71 130.452 181.579C130.649 183.006 132.2 184.021 132.945 184.509C133.103 184.612 133.227 184.694 133.317 184.764C138.017 188.441 139.942 190.404 142.38 192.889C143.156 193.68 143.959 194.498 144.927 195.451L145.098 195.623C146.299 196.827 147.517 197.785 149.212 196.294C153.779 192.282 158.26 186.668 161.532 182.56C162.744 181.041 163.79 179.73 164.585 178.824C166.13 177.064 166.815 175.623 166.679 174.419C166.568 173.442 165.888 172.509 164.6 171.587C161.424 169.481 158.714 167.049 156.323 164.902C153.435 162.313 150.928 160.063 149.244 160.063H149.247Z" fill="#242424"/>
<path d="M147.882 203.096C147.182 203.096 146.655 202.764 146.324 202.555C146.233 202.493 146.138 202.438 146.039 202.391C145.902 202.359 145.64 202.292 142.551 199.294C141.624 198.395 139.424 196.237 139.039 195.628C137.225 192.771 138.489 191.556 141.551 188.62C143.986 186.285 147.664 182.761 152.544 176.178C157.795 169.1 160.903 166.121 163.269 165.895C163.63 165.854 163.995 165.892 164.339 166.007C164.684 166.122 164.999 166.312 165.264 166.564C166.961 168.125 168.741 169.59 170.597 170.952C172.847 172.64 173.978 173.488 173.494 175.535C172.806 178.464 170.422 180.805 166.817 184.358C165.153 185.999 163.268 187.857 161.149 190.157C160.335 191.042 159.311 192.28 158.224 193.594C155.293 197.141 151.644 201.554 148.98 202.829C148.638 203 148.263 203.091 147.882 203.096ZM146.369 201.328C146.556 201.399 146.735 201.493 146.9 201.607C147.355 201.895 147.785 202.165 148.507 201.821C150.952 200.65 154.514 196.341 157.377 192.877C158.477 191.554 159.507 190.302 160.34 189.397C162.479 187.076 164.373 185.212 166.045 183.559C169.513 180.141 171.804 177.884 172.42 175.275C172.724 173.992 172.247 173.582 169.945 171.852C168.059 170.466 166.249 168.976 164.524 167.388C164.373 167.241 164.191 167.13 163.992 167.064C163.793 166.998 163.582 166.977 163.374 167.004C160.849 167.246 156.73 172.392 153.424 176.848C148.488 183.499 144.77 187.067 142.309 189.429C139.167 192.445 138.681 193.002 139.964 195.023C140.436 195.768 145.622 200.777 146.373 201.335L146.369 201.328Z" fill="#242424"/>
<path d="M38.4921 43.2665C38.3841 43.2668 38.2784 43.2347 38.1882 43.1744C33.6507 40.1166 31.5236 37.9906 29.2727 35.7405C27.334 33.8014 25.3278 31.7954 21.5796 29.0026C21.5198 28.9599 21.4689 28.9056 21.4301 28.8427C21.3912 28.7798 21.3651 28.7098 21.3533 28.6365C21.3415 28.5633 21.3442 28.4884 21.3612 28.4163C21.3782 28.3441 21.4093 28.2761 21.4525 28.2163C21.4958 28.1565 21.5504 28.106 21.6131 28.0678C21.6758 28.0296 21.7454 28.0045 21.8178 27.994C21.8902 27.9834 21.9639 27.9876 22.0347 28.0063C22.1054 28.025 22.1718 28.0578 22.23 28.1029C26.0428 30.9445 28.0778 32.9784 30.0455 34.9467C32.2565 37.1578 34.3451 39.2461 38.7959 42.244C38.8942 42.3103 38.9688 42.4069 39.0088 42.5196C39.0487 42.6323 39.0519 42.755 39.0178 42.8696C38.9838 42.9842 38.9143 43.0847 38.8196 43.1562C38.7249 43.2276 38.6101 43.2663 38.4921 43.2665Z" fill="#242424"/>
<path d="M31.3447 49.9123C31.2917 49.9124 31.2389 49.9049 31.188 49.89C29.0518 49.2505 27.0427 48.2359 25.2521 46.8922C25.191 46.8499 25.1389 46.7955 25.0989 46.7323C25.059 46.6692 25.032 46.5985 25.0196 46.5244C25.0072 46.4504 25.0097 46.3747 25.0268 46.3016C25.044 46.2286 25.0755 46.1599 25.1195 46.0995C25.1634 46.0391 25.2189 45.9884 25.2827 45.9503C25.3464 45.9122 25.4171 45.8875 25.4905 45.8778C25.5638 45.868 25.6384 45.8734 25.7096 45.8936C25.7809 45.9137 25.8474 45.9483 25.9052 45.9952C27.5924 47.2606 29.485 48.2162 31.4974 48.8186C31.6246 48.8563 31.7341 48.9393 31.8058 49.0523C31.8776 49.1654 31.9066 49.3009 31.8877 49.4339C31.8688 49.567 31.8032 49.6887 31.7029 49.7766C31.6027 49.8645 31.4745 49.9127 31.342 49.9123H31.3447Z" fill="#242424"/>
<path d="M25.336 75.9037C25.309 75.9051 25.2819 75.9051 25.2549 75.9037L9.79028 73.6019C9.71679 73.5938 9.64568 73.5707 9.58118 73.534C9.51669 73.4974 9.46015 73.4479 9.41493 73.3886C9.36971 73.3292 9.33675 73.2612 9.31801 73.1887C9.29927 73.1161 9.29514 73.0405 9.30587 72.9663C9.3166 72.8921 9.34196 72.8208 9.38044 72.7568C9.41892 72.6928 9.46974 72.6372 9.52984 72.5936C9.58995 72.5499 9.65812 72.519 9.73027 72.5027C9.80242 72.4863 9.87708 72.4849 9.94978 72.4985L25.4144 74.7933C25.5603 74.8038 25.696 74.8727 25.7918 74.9848C25.8876 75.0969 25.9356 75.243 25.9252 75.391C25.9148 75.539 25.8469 75.6768 25.7364 75.774C25.6259 75.8712 25.4819 75.9198 25.336 75.9093V75.9037Z" fill="#242424"/>
<path d="M19.3067 97.529C19.1794 97.5287 19.0562 97.4836 18.958 97.4015C18.8599 97.3193 18.7928 97.2051 18.7683 97.0784C18.7438 96.9517 18.7634 96.8203 18.8237 96.7066C18.884 96.5929 18.9814 96.504 19.0991 96.4549L25.2302 93.9202C25.2977 93.8894 25.3706 93.8727 25.4445 93.8712C25.5185 93.8697 25.592 93.8833 25.6607 93.9113C25.7293 93.9392 25.7917 93.981 25.8441 94.034C25.8965 94.087 25.9378 94.1501 25.9656 94.2197C25.9933 94.2893 26.007 94.3638 26.0057 94.4389C26.0044 94.5139 25.9882 94.5879 25.958 94.6565C25.9279 94.725 25.8844 94.7867 25.8303 94.8378C25.7761 94.8889 25.7123 94.9284 25.6427 94.9539L19.5116 97.4844C19.4467 97.5125 19.3772 97.5276 19.3067 97.529Z" fill="#242424"/>
<path d="M71.6571 29.1101C71.5534 29.1103 71.4519 29.0809 71.3641 29.0251C71.2762 28.9693 71.2057 28.8895 71.1607 28.7948C68.6678 23.5287 64.5607 15.1071 63.5789 13.68C63.4609 13.6491 63.3564 13.5793 63.2817 13.4816C63.2071 13.3839 63.1665 13.2638 63.1664 13.1401C63.1588 12.9988 63.2003 12.8592 63.2837 12.7458C63.3671 12.6323 63.4872 12.5522 63.6229 12.5194C64.1001 12.4092 64.3792 12.8695 64.7023 13.4024C64.9457 13.8056 65.2757 14.3998 65.6841 15.1699C66.3633 16.4547 67.2722 18.2528 68.3859 20.5141C70.2779 24.3601 72.1301 28.2717 72.1493 28.3108C72.1806 28.3769 72.1987 28.4486 72.2027 28.5219C72.2066 28.5951 72.1963 28.6684 72.1723 28.7376C72.1483 28.8068 72.1111 28.8705 72.0628 28.9251C72.0145 28.9797 71.956 29.0241 71.8908 29.0557C71.8179 29.0916 71.738 29.1102 71.6571 29.1101Z" fill="#242424"/>
<path d="M95.4102 25.4633C95.2721 25.4638 95.1388 25.4116 95.0369 25.317C94.935 25.2224 94.8719 25.0924 94.8602 24.9528L94.1727 16.9134C94.1601 16.7654 94.206 16.6184 94.3002 16.5047C94.3945 16.391 94.5294 16.32 94.6753 16.3072C94.8211 16.2945 94.966 16.341 95.0781 16.4367C95.1901 16.5323 95.2601 16.6691 95.2727 16.8171L95.9602 24.8579C95.9724 25.0051 95.9265 25.1512 95.8327 25.2642C95.7389 25.3771 95.6048 25.4478 95.4597 25.4605L95.4102 25.4633Z" fill="#242424"/>
<path d="M118.623 27.7163C118.543 27.7171 118.465 27.7005 118.392 27.6676C118.32 27.6346 118.255 27.5861 118.203 27.5254C118.151 27.4647 118.112 27.3932 118.09 27.3158C118.067 27.2385 118.061 27.1571 118.073 27.0774C118.336 25.3141 120.116 17.1952 121.422 11.2748C121.857 9.29113 122.234 7.57807 122.476 6.45231C122.507 6.30765 122.593 6.1814 122.716 6.10135C122.839 6.0213 122.988 5.99399 123.13 6.02544C123.273 6.05689 123.397 6.14451 123.476 6.26904C123.555 6.39357 123.582 6.5448 123.551 6.68946C123.308 7.81801 122.931 9.53247 122.495 11.5162C121.198 17.4254 119.422 25.5178 119.17 27.2406C119.151 27.3734 119.085 27.4947 118.984 27.582C118.884 27.6694 118.755 27.7171 118.623 27.7163Z" fill="#242424"/>
<path d="M151.37 29.4714C151.297 29.4713 151.225 29.4566 151.158 29.4282C151.024 29.3709 150.917 29.2619 150.862 29.1251C150.807 28.9883 150.808 28.8349 150.864 28.6986C152.072 25.7653 153.683 23.0201 155.649 20.5448C155.692 20.4832 155.748 20.4312 155.812 20.3921C155.876 20.353 155.947 20.3275 156.021 20.3172C156.095 20.3069 156.171 20.312 156.243 20.3322C156.315 20.3525 156.382 20.3874 156.44 20.4348C156.498 20.4823 156.546 20.5413 156.582 20.6083C156.617 20.6752 156.638 20.7487 156.644 20.8243C156.65 20.8998 156.641 20.9759 156.617 21.0478C156.593 21.1196 156.555 21.1858 156.505 21.2423C154.605 23.636 153.047 26.2905 151.879 29.1268C151.837 29.2289 151.766 29.3161 151.676 29.3775C151.585 29.4388 151.479 29.4715 151.37 29.4714Z" fill="#242424"/>
<path d="M155.14 38.3112C155.033 38.3126 154.928 38.2821 154.837 38.2234C154.747 38.1648 154.675 38.0807 154.631 37.9813C154.588 37.882 154.573 37.7718 154.59 37.6644C154.607 37.5569 154.655 37.4569 154.728 37.3766L169.249 21.2811C169.297 21.2252 169.356 21.1797 169.422 21.1471C169.488 21.1146 169.559 21.0958 169.632 21.0917C169.706 21.0876 169.779 21.0983 169.848 21.1233C169.917 21.1483 169.98 21.187 170.034 21.2372C170.088 21.2874 170.132 21.348 170.162 21.4154C170.193 21.4829 170.21 21.5559 170.212 21.6302C170.215 21.7044 170.203 21.7784 170.176 21.8479C170.15 21.9173 170.111 21.9807 170.06 22.0344L155.546 38.1299C155.494 38.187 155.432 38.2326 155.362 38.2639C155.292 38.2951 155.216 38.3112 155.14 38.3112Z" fill="#242424"/>
<path d="M171.265 55.1309C171.192 55.1343 171.12 55.1234 171.052 55.0985C170.984 55.0737 170.922 55.0355 170.868 54.9862C170.76 54.8865 170.696 54.7474 170.689 54.5994C170.682 54.4514 170.733 54.3067 170.831 54.197C170.929 54.0874 171.067 54.0219 171.212 54.0149L181.437 53.0119C181.583 52.9976 181.728 53.0427 181.841 53.1373C181.954 53.2319 182.026 53.3682 182.04 53.5161C182.054 53.6641 182.009 53.8117 181.916 53.9264C181.823 54.0412 181.689 54.1136 181.543 54.1279L171.318 55.1295L171.265 55.1309Z" fill="#242424"/>
<path d="M189.177 81.8463C189.154 81.8477 189.132 81.8477 189.11 81.8463L171.424 79.6213C171.353 79.6121 171.283 79.5887 171.221 79.5524C171.158 79.5161 171.103 79.4677 171.058 79.4098C171.014 79.3518 170.982 79.2857 170.962 79.215C170.943 79.1443 170.938 79.0705 170.947 78.9977C170.956 78.925 170.979 78.8548 171.015 78.7911C171.051 78.7274 171.099 78.6715 171.156 78.6265C171.213 78.5816 171.278 78.5485 171.348 78.5291C171.417 78.5097 171.49 78.5045 171.562 78.5137L189.247 80.7345C189.393 80.7436 189.529 80.811 189.626 80.9221C189.723 81.0332 189.772 81.1787 189.763 81.3267C189.754 81.4747 189.688 81.613 189.578 81.7112C189.469 81.8095 189.326 81.8596 189.18 81.8505L189.177 81.8463Z" fill="#242424"/>
<path d="M177.639 94.3636C177.578 94.3636 177.518 94.3532 177.46 94.3329C175.549 93.6647 172.256 92.6087 171.512 92.6087H171.494C171.349 92.6096 171.208 92.5517 171.104 92.4477C171.001 92.3437 170.942 92.2022 170.941 92.0542C170.94 91.9062 170.997 91.7639 171.1 91.6586C171.202 91.5533 171.342 91.4936 171.487 91.4927H171.504C172.684 91.4927 177.294 93.0941 177.819 93.2783C177.942 93.3214 178.046 93.4074 178.113 93.5209C178.179 93.6344 178.203 93.7681 178.182 93.8982C178.16 94.0284 178.094 94.1465 177.995 94.2317C177.895 94.3169 177.769 94.3636 177.639 94.3636Z" fill="#242424"/>
<path d="M45.4124 106.719C45.3305 106.719 45.2496 106.701 45.1756 106.665C45.1016 106.629 45.0364 106.577 44.9848 106.513C44.872 106.375 44.7265 106.27 44.5622 106.205C44.3978 106.141 44.22 106.121 44.0457 106.146C43.902 106.168 43.7556 106.132 43.6382 106.045C43.5208 105.958 43.4421 105.828 43.4192 105.682C43.3963 105.537 43.4312 105.388 43.5161 105.268C43.601 105.148 43.7291 105.068 43.8724 105.044C44.2378 104.989 44.611 105.03 44.9557 105.165C45.3005 105.299 45.6052 105.522 45.84 105.811C45.9051 105.893 45.946 105.992 45.9581 106.096C45.9701 106.201 45.9528 106.307 45.9081 106.402C45.8634 106.497 45.7931 106.577 45.7054 106.633C45.6177 106.689 45.5161 106.719 45.4124 106.719Z" fill="#242424"/>
<path d="M53.4851 108.396C53.3922 108.396 53.3008 108.372 53.2197 108.326C52.4196 107.88 51.5522 107.571 50.6526 107.413C50.5114 107.385 50.3867 107.302 50.3052 107.181C50.2236 107.061 50.1917 106.913 50.2164 106.77C50.241 106.626 50.3202 106.497 50.437 106.412C50.5537 106.327 50.6987 106.292 50.841 106.313C51.8605 106.493 52.8437 106.843 53.7505 107.349C53.8578 107.408 53.9425 107.502 53.9912 107.616C54.0399 107.73 54.0498 107.857 54.0194 107.977C53.9889 108.097 53.9199 108.204 53.8231 108.28C53.7264 108.356 53.6074 108.397 53.4851 108.396Z" fill="#242424"/>
<path d="M61.3349 111.204C61.2488 111.204 61.1639 111.184 61.087 111.145C61.0101 111.105 60.9434 111.048 60.8922 110.978C60.5544 110.528 60.1046 110.177 59.589 109.961C59.0733 109.745 58.5104 109.673 57.9579 109.75C57.8137 109.773 57.6666 109.736 57.549 109.649C57.4314 109.561 57.353 109.429 57.3309 109.283C57.3089 109.137 57.345 108.988 57.4314 108.868C57.5178 108.749 57.6473 108.669 57.7915 108.647C58.5422 108.541 59.3072 108.639 60.008 108.932C60.7088 109.225 61.3201 109.702 61.779 110.314C61.8397 110.397 61.8764 110.496 61.885 110.599C61.8936 110.702 61.8738 110.806 61.8277 110.898C61.7816 110.99 61.7111 111.068 61.6241 111.122C61.5371 111.176 61.4369 111.204 61.3349 111.204Z" fill="#242424"/>
<path d="M146.57 139.924C146.537 139.924 146.503 139.921 146.471 139.916C146.327 139.889 146.2 139.806 146.117 139.685C146.034 139.563 146.002 139.413 146.028 139.267C146.223 138.165 146.406 137.408 146.636 136.449C147.234 133.968 148.136 130.218 150.376 115.787C150.385 115.713 150.409 115.641 150.446 115.577C150.483 115.512 150.532 115.456 150.591 115.411C150.65 115.366 150.717 115.334 150.788 115.316C150.86 115.298 150.934 115.294 151.007 115.306C151.079 115.318 151.149 115.344 151.211 115.383C151.274 115.423 151.328 115.474 151.37 115.535C151.413 115.596 151.443 115.665 151.459 115.738C151.474 115.811 151.475 115.886 151.462 115.96C149.215 130.438 148.3 134.215 147.706 136.713C147.479 137.653 147.293 138.397 147.11 139.465C147.087 139.594 147.021 139.71 146.922 139.794C146.823 139.878 146.699 139.924 146.57 139.924Z" fill="white"/>
<path d="M138.06 80.4153C139.917 81.5648 142.401 81.3192 144.374 80.3469C145.826 79.6327 147.124 78.5167 147.802 77.0659C148.81 74.9204 148.277 72.2043 146.607 70.5289C144.936 68.8535 142.26 68.2746 139.982 69.0042C137.958 69.6515 136.426 71.2487 135.487 73.0929C134.714 74.6107 135.238 76.2512 135.868 77.7327C136.323 78.8096 137.042 79.7889 138.06 80.4153Z" fill="#242424"/>
<path d="M140.672 74.3274C141.145 73.7764 142.207 73.9605 142.452 74.6357C142.696 75.3109 141.997 76.1269 141.28 76.0028C140.564 75.8786 140.204 74.877 140.672 74.3274Z" fill="#EB8A44"/>
<path d="M137.003 75.8492H136.994C136.922 75.8481 136.851 75.8326 136.784 75.8035C136.718 75.7744 136.658 75.7324 136.608 75.6798C136.557 75.6272 136.518 75.5651 136.491 75.497C136.465 75.4289 136.451 75.3561 136.453 75.2828C136.475 74.5288 136.69 73.7936 137.078 73.15C137.466 72.5063 138.012 71.9764 138.664 71.6125C138.727 71.5717 138.798 71.5446 138.872 71.5327C138.947 71.5208 139.022 71.5245 139.095 71.5435C139.168 71.5625 139.236 71.5965 139.295 71.6433C139.355 71.69 139.404 71.7487 139.44 71.8155C139.476 71.8823 139.499 71.956 139.506 72.0319C139.513 72.1078 139.504 72.1844 139.481 72.2569C139.458 72.3293 139.42 72.3962 139.37 72.4533C139.32 72.5105 139.26 72.5567 139.192 72.5891C138.712 72.8599 138.31 73.2512 138.023 73.7254C137.736 74.1996 137.574 74.7407 137.553 75.2967C137.551 75.4438 137.493 75.5843 137.39 75.6877C137.287 75.7911 137.147 75.8492 137.003 75.8492Z" fill="white"/>
<path d="M147.894 114.205C155.602 111.631 154.937 105.556 154.413 102.831C153.211 96.5761 147.069 95.1462 143.671 95.9232C141.363 96.4505 134.814 98.7453 136.165 106.548C137.393 113.638 144.19 115.442 147.894 114.205Z" fill="#242424"/>
<path d="M147.245 104.034C145.218 101.384 142.681 104.249 143.099 105.684C143.542 107.205 145.204 107.746 146.507 107.219C147.809 106.692 148.055 105.093 147.245 104.034Z" fill="#EB8A44"/>
<path d="M138.076 105.378C137.947 105.377 137.823 105.331 137.724 105.247C137.625 105.163 137.559 105.046 137.536 104.917C137.124 102.546 138.53 99.7794 140.821 98.5002C140.948 98.4319 141.097 98.4171 141.235 98.4588C141.373 98.5006 141.489 98.5957 141.559 98.7236C141.629 98.8515 141.646 99.002 141.608 99.1428C141.569 99.2837 141.478 99.4035 141.353 99.4767C139.486 100.523 138.285 102.825 138.618 104.726C138.644 104.872 138.611 105.022 138.528 105.143C138.445 105.264 138.318 105.347 138.174 105.373C138.142 105.377 138.109 105.379 138.076 105.378Z" fill="white"/>
<path d="M139.519 110.677C139.446 110.677 139.373 110.662 139.306 110.633C139.239 110.605 139.178 110.562 139.127 110.51C139.083 110.464 138.057 109.394 137.903 108.084C137.892 108.01 137.896 107.935 137.914 107.862C137.933 107.79 137.965 107.722 138.01 107.663C138.054 107.604 138.11 107.554 138.174 107.517C138.238 107.48 138.309 107.456 138.382 107.447C138.455 107.438 138.529 107.445 138.6 107.465C138.67 107.486 138.736 107.521 138.793 107.568C138.85 107.615 138.898 107.673 138.932 107.739C138.967 107.805 138.988 107.877 138.995 107.951C139.103 108.868 139.904 109.72 139.912 109.728C139.988 109.807 140.039 109.906 140.059 110.014C140.08 110.122 140.068 110.234 140.026 110.335C139.984 110.437 139.914 110.523 139.823 110.584C139.733 110.645 139.627 110.677 139.519 110.677Z" fill="white"/>
<path d="M113.504 118.856L113.997 91.4216C114.037 89.2552 114.538 86.493 116.688 86.0271C117.879 85.7676 119.117 86.4345 119.851 87.3872C120.585 88.34 120.911 89.5342 121.176 90.7046C122.422 96.1813 122.709 101.825 122.993 107.445C123.244 112.401 123.495 117.358 123.745 122.315L113.504 118.856Z" fill="#242424"/>
<path d="M122.294 168.786C121.855 168.786 121.421 168.765 121.002 168.737C120.189 168.684 119.705 168.661 119.352 168.646C118.538 168.61 118.5 168.604 117.372 168.341L117.337 168.332C117.267 168.316 117.2 168.285 117.141 168.243C117.083 168.2 117.033 168.146 116.994 168.084C116.956 168.022 116.93 167.953 116.918 167.88C116.906 167.808 116.908 167.734 116.925 167.663C116.941 167.591 116.971 167.524 117.013 167.464C117.055 167.404 117.108 167.354 117.169 167.315C117.231 167.276 117.299 167.25 117.37 167.237C117.441 167.225 117.514 167.228 117.585 167.244L117.619 167.252C118.671 167.499 118.671 167.499 119.4 167.531C119.738 167.547 120.251 167.569 121.074 167.624C122.704 167.732 124.391 167.718 125.692 166.884C127.739 165.574 128.304 162.8 127.479 158.154C127.464 158.081 127.464 158.006 127.478 157.933C127.492 157.86 127.521 157.79 127.562 157.728C127.603 157.667 127.656 157.614 127.717 157.573C127.779 157.532 127.848 157.505 127.92 157.491C127.992 157.478 128.067 157.48 128.138 157.496C128.21 157.512 128.278 157.543 128.337 157.586C128.397 157.63 128.448 157.685 128.486 157.748C128.525 157.812 128.55 157.883 128.561 157.956C129.14 161.197 129.532 165.746 126.28 167.829C125.088 168.59 123.665 168.786 122.294 168.786Z" fill="white"/>
<path d="M122.477 124.683C124.684 122.68 125.167 119.111 123.642 116.592C122.395 114.526 120.14 113.438 117.729 113.653C116.071 113.801 114.338 114.325 113.256 115.656C112.174 116.987 112.006 118.725 112.156 120.342C112.367 122.692 113.409 124.87 115.722 125.816C117.923 126.717 120.692 126.304 122.477 124.683Z" fill="#242424"/>
<path d="M118.175 126.842C117.262 126.846 116.358 126.672 115.51 126.329C113.249 125.404 111.862 123.293 111.602 120.387C111.41 118.246 111.824 116.533 112.831 115.296C113.863 114.029 115.493 113.288 117.68 113.093C120.314 112.856 122.78 114.085 124.115 116.301C125.789 119.073 125.233 122.939 122.848 125.104C121.552 126.242 119.889 126.861 118.175 126.842ZM118.337 114.174C118.15 114.174 117.962 114.174 117.772 114.199C115.889 114.367 114.512 114.973 113.676 116C112.859 117.003 112.529 118.443 112.694 120.28C112.822 121.71 113.41 124.263 115.917 125.288C117.971 126.125 120.518 125.707 122.104 124.261C124.106 122.448 124.579 119.199 123.167 116.868C122.136 115.162 120.357 114.18 118.337 114.18V114.174Z" fill="#242424"/>
<path d="M116.747 120.121C116.822 120.947 117.064 121.934 117.901 121.934C118.738 121.934 119.616 121.764 119.8 120.958C120.005 120.066 119.525 119.023 118.648 118.745C117.77 118.468 116.662 119.213 116.747 120.121Z" fill="#EB8A44"/>
<path d="M114.469 118.303H114.455C114.383 118.302 114.312 118.285 114.246 118.256C114.18 118.226 114.12 118.183 114.07 118.13C114.021 118.077 113.982 118.014 113.956 117.946C113.93 117.878 113.917 117.805 113.919 117.731C113.955 116.26 115.133 114.933 116.603 114.711C116.745 114.693 116.889 114.733 117.003 114.821C117.118 114.909 117.193 115.039 117.215 115.183C117.236 115.327 117.201 115.473 117.117 115.591C117.033 115.71 116.907 115.79 116.765 115.815C115.825 115.954 115.041 116.829 115.019 117.759C115.015 117.905 114.956 118.043 114.853 118.145C114.75 118.247 114.613 118.303 114.469 118.303Z" fill="white"/>
<path d="M127.197 154.483C127.062 154.484 126.931 154.434 126.83 154.344C126.729 154.253 126.664 154.128 126.647 153.992L125.892 147.61C125.88 147.465 125.923 147.321 126.013 147.208C126.103 147.095 126.233 147.023 126.375 147.005C126.517 146.988 126.66 147.028 126.774 147.116C126.888 147.204 126.963 147.334 126.984 147.477L127.739 153.858C127.748 153.931 127.742 154.005 127.723 154.075C127.703 154.146 127.67 154.212 127.625 154.269C127.581 154.327 127.525 154.375 127.462 154.411C127.399 154.447 127.33 154.47 127.258 154.479C127.238 154.481 127.218 154.483 127.197 154.483Z" fill="white"/>
<path d="M141.793 66.4903C141.662 66.4907 141.535 66.4437 141.435 66.3578C140.898 65.8988 140.158 63.9444 138.599 59.4469C138.109 58.0338 137.647 56.6988 137.335 55.9273C137.287 55.7916 137.292 55.6421 137.35 55.5103C137.408 55.3785 137.514 55.2746 137.646 55.2205C137.778 55.1663 137.925 55.1661 138.057 55.2199C138.189 55.2736 138.296 55.3772 138.354 55.5088C138.676 56.3068 139.142 57.6543 139.637 59.08C140.414 61.3218 141.715 65.0785 142.149 65.5138C142.232 65.5883 142.292 65.6867 142.319 65.7959C142.346 65.9052 142.34 66.0203 142.301 66.126C142.263 66.2317 142.193 66.323 142.103 66.3881C142.012 66.4531 141.904 66.4887 141.793 66.4903Z" fill="white"/>
<path d="M145.622 60.5545C145.504 60.5544 145.389 60.5158 145.294 60.4441C145.199 60.3725 145.13 60.2718 145.096 60.1569C144.733 58.9237 143.887 54.3077 143.268 50.9374C142.97 49.3038 142.718 47.8921 142.614 47.4499C142.595 47.3773 142.591 47.3015 142.601 47.2272C142.612 47.1528 142.637 47.0814 142.675 47.0172C142.714 46.953 142.764 46.8973 142.824 46.8534C142.885 46.8096 142.953 46.7785 143.025 46.7621C143.097 46.7456 143.172 46.7442 143.245 46.7577C143.318 46.7713 143.387 46.7997 143.449 46.8411C143.511 46.8825 143.563 46.9362 143.604 46.9988C143.645 47.0615 143.673 47.1319 143.686 47.2057C143.788 47.6675 144.037 49.0192 144.351 50.7323C144.964 54.0803 145.803 58.6601 146.149 59.8361C146.17 59.9065 146.177 59.9805 146.17 60.0537C146.163 60.127 146.142 60.1981 146.107 60.2629C146.073 60.3278 146.026 60.3851 145.97 60.4315C145.914 60.478 145.849 60.5126 145.779 60.5336C145.728 60.548 145.675 60.555 145.622 60.5545Z" fill="white"/>
<path d="M152.386 94.7821C152.279 94.7822 152.174 94.7506 152.084 94.6911C151.995 94.6316 151.924 94.5469 151.881 94.4473C149.828 89.6847 148.658 84.579 147.525 79.6421C147.507 79.5701 147.503 79.495 147.514 79.4213C147.524 79.3477 147.549 79.2769 147.587 79.2132C147.625 79.1496 147.676 79.0942 147.735 79.0506C147.794 79.0069 147.862 78.9757 147.933 78.9588C148.005 78.942 148.079 78.9398 148.151 78.9524C148.224 78.9651 148.293 78.9923 148.354 79.0324C148.416 79.0726 148.469 79.1249 148.511 79.1862C148.553 79.2476 148.582 79.3167 148.596 79.3896C149.718 84.2721 150.878 89.3318 152.889 94.0009C152.926 94.0857 152.941 94.1785 152.933 94.2707C152.926 94.363 152.895 94.4518 152.846 94.5293C152.796 94.6068 152.727 94.6705 152.647 94.7146C152.567 94.7588 152.477 94.7819 152.386 94.7821Z" fill="white"/>
<path d="M153.725 128.006H153.666C153.594 127.998 153.524 127.976 153.461 127.941C153.397 127.906 153.341 127.858 153.296 127.801C153.25 127.744 153.216 127.678 153.196 127.608C153.175 127.537 153.169 127.464 153.177 127.391C153.578 123.588 153.915 119.726 154.179 115.914C154.184 115.841 154.203 115.769 154.236 115.703C154.268 115.638 154.313 115.579 154.367 115.531C154.422 115.483 154.485 115.446 154.554 115.422C154.623 115.399 154.695 115.39 154.768 115.395C154.84 115.4 154.91 115.42 154.975 115.452C155.04 115.485 155.098 115.531 155.145 115.586C155.193 115.641 155.229 115.706 155.252 115.775C155.275 115.845 155.284 115.919 155.279 115.992C155.014 119.818 154.675 123.694 154.274 127.509C154.259 127.646 154.195 127.772 154.093 127.864C153.992 127.956 153.861 128.006 153.725 128.006Z" fill="white"/>
<path d="M153.365 134.345H153.322C153.177 134.334 153.041 134.266 152.946 134.154C152.85 134.042 152.802 133.896 152.812 133.749L152.95 131.64C152.96 131.492 153.027 131.354 153.138 131.256C153.248 131.159 153.392 131.11 153.538 131.12C153.683 131.13 153.819 131.199 153.915 131.311C154.011 131.422 154.06 131.568 154.05 131.716L153.912 133.827C153.902 133.967 153.84 134.099 153.739 134.195C153.637 134.291 153.504 134.344 153.365 134.345Z" fill="white"/>
<path d="M144.01 153.001C143.97 153.001 143.93 152.997 143.891 152.989C143.821 152.973 143.754 152.944 143.694 152.902C143.635 152.86 143.585 152.806 143.546 152.744C143.507 152.683 143.48 152.614 143.467 152.541C143.455 152.469 143.456 152.395 143.472 152.323L145.078 144.885C145.109 144.741 145.196 144.615 145.319 144.535C145.441 144.455 145.591 144.428 145.733 144.459C145.876 144.491 146 144.579 146.079 144.703C146.158 144.828 146.184 144.979 146.153 145.124L144.546 152.563C144.519 152.687 144.451 152.798 144.354 152.878C144.256 152.958 144.135 153.001 144.01 153.001Z" fill="white"/>
<path d="M160.098 172.7C160.098 172.7 157.588 173.785 158.036 176.401C158.484 179.017 161.849 178.966 163.064 177.569C165.259 175.055 164.152 172.347 160.098 172.7Z" fill="#F2B325"/>
<path d="M159.66 177.136C159.552 177.136 159.447 177.104 159.357 177.043C159.267 176.983 159.197 176.897 159.154 176.797C159.112 176.696 159.1 176.585 159.12 176.477C159.139 176.37 159.189 176.271 159.264 176.192C160.002 175.416 160.9 174.813 161.893 174.427C162.028 174.377 162.178 174.383 162.309 174.444C162.44 174.505 162.543 174.615 162.594 174.752C162.646 174.889 162.642 175.04 162.585 175.175C162.527 175.309 162.42 175.414 162.286 175.469C161.445 175.796 160.685 176.307 160.06 176.965C160.008 177.019 159.946 177.063 159.877 177.092C159.809 177.122 159.734 177.137 159.66 177.136Z" fill="#242424"/>
<path d="M68.6816 123.232C68.6409 123.231 68.6004 123.227 68.5606 123.218C68.4189 123.185 68.296 123.096 68.2187 122.971C68.1414 122.846 68.116 122.695 68.1481 122.551C68.7621 119.781 69.0811 116.952 69.0996 114.113C69.0996 113.965 69.1575 113.823 69.2607 113.718C69.3638 113.613 69.5037 113.555 69.6496 113.555C69.7955 113.555 69.9353 113.613 70.0385 113.718C70.1416 113.823 70.1996 113.965 70.1996 114.113C70.1792 117.035 69.85 119.946 69.2178 122.797C69.1904 122.92 69.1223 123.03 69.0249 123.11C68.9274 123.189 68.8064 123.232 68.6816 123.232Z" fill="#242424"/>
</svg>
