<svg width="53" height="54" viewBox="0 0 53 54" fill="none" xmlns="http://www.w3.org/2000/svg">
<rect y="0.5" width="53" height="53" rx="12" fill="#242424" fill-opacity="0.1"/>
<path fill-rule="evenodd" clip-rule="evenodd" d="M34.098 21.5617C34.0986 21.0196 33.8879 20.5098 33.5048 20.1263C33.1217 19.7428 32.6121 19.5316 32.07 19.5316C31.8121 19.5316 31.5653 19.5807 31.338 19.6693L31.34 18.5649C31.3413 18.0223 31.131 17.512 30.7478 17.1278C30.3645 16.7437 29.8547 16.5321 29.3121 16.5321H29.2822C28.8756 16.5321 28.4966 16.6531 28.1787 16.8604C28.1126 16.767 28.0387 16.6782 27.9562 16.5956C27.573 16.2115 27.0631 16 26.5206 16H26.4838C25.557 16 24.7739 16.6252 24.5329 17.4759C24.2844 17.367 24.0103 17.3062 23.7221 17.3062H23.6986C22.5804 17.3062 21.6706 18.2159 21.6706 19.3341V23.427C21.4393 23.3358 21.1877 23.2851 20.9244 23.2851C19.7993 23.2851 18.884 24.2003 18.884 25.3254V30.3795C18.884 34.5715 22.2944 37.9819 26.4864 37.9819C28.5189 37.9819 30.4293 37.1898 31.8656 35.7516C33.3019 34.3134 34.0914 32.402 34.0887 30.3694L34.0858 28.2099L34.098 21.5617ZM32.7946 30.3711C32.7968 32.0577 32.1417 33.6437 30.9499 34.8371C29.7581 36.0305 28.1729 36.6877 26.4863 36.6877C23.0079 36.6877 20.1781 33.8578 20.1781 30.3795V25.3254C20.1781 24.9139 20.5129 24.5792 20.9244 24.5792C21.3359 24.5792 21.6706 24.9139 21.6706 25.3254V28.7251C21.6706 29.0825 21.9603 29.3722 22.3177 29.3722C23.4667 29.3722 24.4016 30.307 24.4016 31.4561V32.515C24.4016 32.8724 24.6913 33.1621 25.0486 33.1621C25.406 33.1621 25.6957 32.8724 25.6957 32.515V31.4561C25.6957 29.8147 24.5189 28.4429 22.9648 28.1403V19.3341C22.9648 18.9295 23.2939 18.6003 23.6986 18.6003H23.7221C24.1267 18.6003 24.4558 18.9295 24.4559 19.334V25.3028C24.4559 25.6602 24.7456 25.9499 25.1029 25.9499C25.4603 25.9499 25.75 25.6602 25.75 25.3028C25.75 24.3444 25.75 18.8336 25.75 18.0279C25.75 17.6233 26.0792 17.2941 26.4838 17.2941H26.5206C26.7169 17.2941 26.9014 17.3706 27.0401 17.5096C27.1787 17.6485 27.2548 17.8332 27.2544 18.0297C27.2501 20.1942 27.2437 23.1573 27.24 25.3076C27.2394 25.6649 27.5285 25.9552 27.8858 25.9559H27.8871C28.2439 25.9559 28.5334 25.667 28.5342 25.3101C28.537 23.8549 28.5446 19.9512 28.5484 18.5583C28.5493 18.1546 28.8785 17.8262 29.2822 17.8262H29.3121C29.5084 17.8262 29.6929 17.9027 29.8316 18.0417C29.9702 18.1807 30.0464 18.3654 30.0459 18.5621C30.0418 20.6661 30.035 23.9934 30.0317 26.0793C30.031 26.4367 30.3202 26.7269 30.6776 26.7276H30.6788C31.0356 26.7275 31.3252 26.4387 31.3259 26.0817C31.3267 25.7608 31.3331 21.6942 31.3363 21.5556C31.3383 21.153 31.6675 20.8255 32.0701 20.8255C32.2662 20.8255 32.4506 20.9019 32.5892 21.0407C32.7279 21.1795 32.8041 21.3639 32.8039 21.5596L32.7918 28.2095L32.7946 30.3711Z" fill="#242424"/>
</svg>
