<svg width="46" height="31" viewBox="0 0 46 31" fill="none" xmlns="http://www.w3.org/2000/svg">
<rect x="0.929443" width="45" height="31" rx="12" fill="#F7FAEA"/>
<path fill-rule="evenodd" clip-rule="evenodd" d="M13.8427 8.7528C11.5361 9.26913 9.72081 11.0471 9.15663 13.3425C8.85299 14.598 8.85406 15.9079 9.15974 17.1629C9.7319 19.4999 11.3919 21.4198 13.6219 22.3235L13.7191 22.3624C14.6872 22.7492 15.7867 22.2876 16.1885 21.3256C16.299 21.061 16.5574 20.8884 16.8442 20.8877H17.7184C20.0953 20.8877 22.1634 19.2722 22.7219 16.9794C22.999 15.841 22.999 14.6527 22.7219 13.5144L22.6487 13.2141C22.1039 10.9977 20.3509 9.28092 18.1236 8.78236L17.8094 8.7108C16.5643 8.42941 15.2722 8.42941 14.0271 8.7108L13.8427 8.7528ZM13.2088 12.6744C12.911 12.6731 12.6684 12.9133 12.6667 13.2111C12.6667 13.5089 12.9094 13.7493 13.2088 13.7493H18.1757C18.4752 13.7493 18.7178 13.5082 18.7178 13.2118C18.7172 13.0687 18.6597 12.9316 18.5581 12.8308C18.4564 12.73 18.3189 12.6738 18.1757 12.6744H13.2088ZM14.1118 15.3624C13.9687 15.3618 13.8311 15.418 13.7295 15.5188C13.6278 15.6196 13.5703 15.7567 13.5697 15.8998C13.5697 16.1969 13.8124 16.4373 14.1118 16.4373H17.2727C17.5722 16.4373 17.8148 16.1962 17.8148 15.9006C17.8144 15.7573 17.757 15.6201 17.6554 15.5191C17.5537 15.4182 17.416 15.3618 17.2727 15.3624H14.1118Z" fill="#242424"/>
<path d="M29.7694 12.426C29.8348 11.5673 30.1661 10.8953 30.7634 10.41C31.3608 9.92467 32.1354 9.682 33.0874 9.682C33.7221 9.682 34.2681 9.79867 34.7254 10.032C35.1921 10.256 35.5421 10.564 35.7754 10.956C36.0181 11.348 36.1394 11.7913 36.1394 12.286C36.1394 12.8647 35.9714 13.364 35.6354 13.784C35.3088 14.204 34.8794 14.4747 34.3474 14.596V14.666C34.9541 14.8153 35.4348 15.1093 35.7894 15.548C36.1441 15.9867 36.3214 16.5607 36.3214 17.27C36.3214 17.802 36.2001 18.2827 35.9574 18.712C35.7148 19.132 35.3508 19.4633 34.8654 19.706C34.3801 19.9487 33.7968 20.07 33.1154 20.07C32.1261 20.07 31.3141 19.8133 30.6794 19.3C30.0448 18.7773 29.6901 18.04 29.6154 17.088H30.8474C30.9128 17.648 31.1414 18.1053 31.5334 18.46C31.9254 18.8147 32.4481 18.992 33.1014 18.992C33.7548 18.992 34.2494 18.824 34.5854 18.488C34.9308 18.1427 35.1034 17.6993 35.1034 17.158C35.1034 16.458 34.8701 15.954 34.4034 15.646C33.9368 15.338 33.2321 15.184 32.2894 15.184H31.9674V14.12H32.3034C33.1621 14.1107 33.8108 13.9707 34.2494 13.7C34.6881 13.42 34.9074 12.9907 34.9074 12.412C34.9074 11.9173 34.7441 11.5207 34.4174 11.222C34.1001 10.9233 33.6428 10.774 33.0454 10.774C32.4668 10.774 32.0001 10.9233 31.6454 11.222C31.2908 11.5207 31.0808 11.922 31.0154 12.426H29.7694Z" fill="#242424"/>
</svg>
