<svg width="26" height="24" viewBox="0 0 26 24" fill="none" xmlns="http://www.w3.org/2000/svg">
<path opacity="0.4" d="M13.1364 22C18.7429 22 23.2879 17.5228 23.2879 12C23.2879 6.47715 18.7429 2 13.1364 2C7.52985 2 2.98486 6.47715 2.98486 12C2.98486 17.5228 7.52985 22 13.1364 22Z" fill="#242424"/>
<path d="M14.2135 11.9998L16.7209 9.52981C17.0184 9.23681 17.0184 8.76177 16.7209 8.46877C16.4235 8.17577 15.9413 8.17577 15.6439 8.46877L13.1364 10.9388L10.629 8.46877C10.3316 8.17577 9.84938 8.17577 9.55194 8.46877C9.2545 8.76177 9.2545 9.23681 9.55194 9.52981L12.0594 11.9998L9.55194 14.4697C9.2545 14.7627 9.2545 15.2378 9.55194 15.5308C9.70015 15.6768 9.89506 15.7508 10.09 15.7508C10.2849 15.7508 10.4798 15.6778 10.628 15.5308L13.1354 13.0608L15.6428 15.5308C15.7911 15.6768 15.986 15.7508 16.1809 15.7508C16.3758 15.7508 16.5707 15.6778 16.7189 15.5308C17.0163 15.2378 17.0163 14.7627 16.7189 14.4697L14.2135 11.9998Z" fill="#242424"/>
</svg>
