<svg width="40" height="40" viewBox="0 0 40 40" fill="none" xmlns="http://www.w3.org/2000/svg">
<g clip-path="url(#clip0_780_2414)">
<path fill-rule="evenodd" clip-rule="evenodd" d="M19.8773 0H20.1227C24.3092 0 27.8583 0.83543 30.7916 2.4042C33.7249 3.97296 36.0271 6.27505 37.5958 9.2084C39.1645 12.1417 40 15.6909 40 19.8773V20.1227C40 24.3092 39.1645 27.8583 37.5958 30.7916C36.0271 33.7249 33.7249 36.0271 30.7916 37.5958C27.8583 39.1645 24.3092 40 20.1227 40H19.8773C15.6909 40 12.1417 39.1645 9.2084 37.5958C6.27505 36.0271 3.97296 33.7249 2.4042 30.7916C0.83543 27.8583 0 24.3092 0 20.1227V19.8773C0 15.6909 0.83543 12.1417 2.4042 9.2084C3.97296 6.27505 6.27505 3.97296 9.2084 2.4042C12.1417 0.83543 15.6909 0 19.8773 0Z" fill="#F4F4F4"/>
<path fill-rule="evenodd" clip-rule="evenodd" d="M19.978 13.319L16.768 16.529L14.798 18.489C13.9677 19.3206 13.9677 20.6675 14.798 21.499L19.978 26.679C20.658 27.359 21.818 26.869 21.818 25.919V14.079C21.818 13.119 20.658 12.639 19.978 13.319Z" fill="black"/>
</g>
<defs>
<clipPath id="clip0_780_2414">
<rect width="40" height="40" fill="white"/>
</clipPath>
</defs>
</svg>
