<svg width="40" height="40" viewBox="0 0 40 40" fill="none" xmlns="http://www.w3.org/2000/svg">
<g clip-path="url(#clip0_649_3178)">
<path fill-rule="evenodd" clip-rule="evenodd" d="M19.8773 0H20.1227C24.3092 0 27.8583 0.83543 30.7916 2.4042C33.7249 3.97296 36.0271 6.27505 37.5958 9.2084C39.1645 12.1417 40 15.6909 40 19.8773V20.1227C40 24.3092 39.1645 27.8583 37.5958 30.7916C36.0271 33.7249 33.7249 36.0271 30.7916 37.5958C27.8583 39.1645 24.3092 40 20.1227 40H19.8773C15.6909 40 12.1417 39.1645 9.2084 37.5958C6.27505 36.0271 3.97296 33.7249 2.4042 30.7916C0.83543 27.8583 0 24.3092 0 20.1227V19.8773C0 15.6909 0.83543 12.1417 2.4042 9.2084C3.97296 6.27505 6.27505 3.97296 9.2084 2.4042C12.1417 0.83543 15.6909 0 19.8773 0Z" fill="#F4F4F4"/>
<path fill-rule="evenodd" clip-rule="evenodd" d="M19.525 9.6001C14.0435 9.6001 9.59998 14.0437 9.59998 19.5251C9.59998 25.0065 14.0435 29.4501 19.525 29.4501C23.0708 29.4501 26.3473 27.5584 28.1203 24.4876C29.8932 21.4168 29.8932 17.6334 28.1203 14.5626C26.3473 11.4918 23.0708 9.6001 19.525 9.6001ZM19.525 11.4001C22.4278 11.4001 25.11 12.9487 26.5614 15.4626C28.0128 17.9765 28.0128 21.0737 26.5614 23.5876C25.11 26.1015 22.4278 27.6501 19.525 27.6501C15.0377 27.6501 11.4 24.0124 11.4 19.5251C11.4 15.0378 15.0377 11.4001 19.525 11.4001ZM28.1442 26.8832C27.7914 26.6147 27.2858 26.6415 26.9636 26.9637C26.6121 27.3152 26.6121 27.885 26.9636 28.2365L28.8636 30.1365L28.9557 30.217C29.3085 30.4855 29.8142 30.4587 30.1364 30.1365C30.4878 29.785 30.4878 29.2152 30.1364 28.8637L28.2364 26.9637L28.1442 26.8832Z" fill="black"/>
</g>
<defs>
<clipPath id="clip0_649_3178">
<rect width="40" height="40" fill="white"/>
</clipPath>
</defs>
</svg>
