<svg width="46" height="40" viewBox="0 0 46 40" fill="none" xmlns="http://www.w3.org/2000/svg">
<path d="M23.0755 5.62398C9.5463 2.99296 1.09307 29.8121 14.8774 37.0927C24.5996 42.2685 44.2724 37.0927 44.1448 20.0989C44.0441 11.2138 38.431 4.19201 32.2539 1.52649C25.5396 -1.37195 17.7377 0.0772703 11.4397 4.01948C5.47747 7.76329 -0.531775 16.01 0.649932 25.1884C1.79807 34.0562 9.76788 38.654 15.945 39.7668C19.6086 40.3465 23.3268 39.8419 26.8153 38.2917C30.8486 36.7915 34.6797 34.5079 38.1758 31.5201C41.2308 28.7511 43.7151 24.6794 44.0777 19.7452C44.4805 14.2589 42.3924 9.65245 39.1427 6.27095C33.0126 -0.0866294 25.1704 0.137654 18.1943 3.73482C12.1514 6.86616 6.10861 13.1461 5.29619 21.9708C4.48377 30.7955 9.93573 38.6627 16.6164 39.6806C24.0021 40.7934 31.6899 36.7217 37.5447 31.2268C42.144 26.9137 47.1595 19.15 44.9707 11.3863C43.0168 4.44217 36.4503 1.5955 31.3407 0.715616C22.1758 -0.862995 12.326 4.1575 9.62016 16.3896C9.57899 16.7166 9.73674 17.0308 9.98563 17.1174C10.2345 17.204 10.4941 17.035 10.587 16.726C13.0847 5.51183 21.7259 1.06929 30.1322 1.85429C35.8191 2.37186 44.0441 5.98628 44.4805 14.6643C44.7155 19.3829 42.2044 23.9462 39.7403 27.1207C36.9748 30.5051 33.7562 33.2199 30.2396 35.1345C23.3709 39.1199 13.2593 41.3023 8.33774 32.0118C3.19463 22.2986 8.46531 12.1713 15.2668 6.99555C22.6525 1.4316 31.9047 0.413695 38.8338 7.62527C43.0504 12.0247 44.3328 19.0551 41.5733 25.1798C39.2501 30.3555 34.389 33.254 30.2665 35.3502C26.4461 37.2997 22.5518 38.8179 18.4024 38.7403C14.3214 38.6271 10.3448 37.0624 6.91432 34.2201C3.76534 31.5891 1.46236 27.4226 1.4825 22.4797C1.4825 16.9848 4.60462 11.9212 7.74017 8.58279C13.6689 2.26835 22.4444 0.0600177 29.8972 2.04406C37.162 3.98498 44.3261 12.4474 42.9765 22.7472C41.8015 31.684 33.7176 35.9195 27.6143 37.2652C20.5711 38.8179 10.6877 37.0323 8.90845 26.3788C7.21646 16.148 14.7297 5.29618 22.8069 6.90067C23.4381 7.02143 23.7134 5.77925 23.0755 5.65848V5.62398Z" fill="#F2B325"/>
<path d="M25.75 15C25.75 16.7949 24.2949 18.25 22.5 18.25V19.75C25.1234 19.75 27.25 17.6234 27.25 15H25.75ZM22.5 18.25C20.7051 18.25 19.25 16.7949 19.25 15H17.75C17.75 17.6234 19.8766 19.75 22.5 19.75V18.25ZM19.25 15C19.25 13.2051 20.7051 11.75 22.5 11.75V10.25C19.8766 10.25 17.75 12.3766 17.75 15H19.25ZM22.5 11.75C24.2949 11.75 25.75 13.2051 25.75 15H27.25C27.25 12.3766 25.1234 10.25 22.5 10.25V11.75ZM28.75 25.5C28.75 26.0294 28.3014 26.7105 27.1143 27.3041C25.9722 27.8751 24.3418 28.25 22.5 28.25V29.75C24.5242 29.75 26.3938 29.3414 27.7852 28.6457C29.1316 27.9725 30.25 26.9036 30.25 25.5H28.75ZM22.5 28.25C20.6582 28.25 19.0278 27.8751 17.8857 27.3041C16.6986 26.7105 16.25 26.0294 16.25 25.5H14.75C14.75 26.9036 15.8684 27.9725 17.2148 28.6457C18.6062 29.3414 20.4758 29.75 22.5 29.75V28.25ZM16.25 25.5C16.25 24.9706 16.6986 24.2895 17.8857 23.6959C19.0278 23.1249 20.6582 22.75 22.5 22.75V21.25C20.4758 21.25 18.6062 21.6586 17.2148 22.3543C15.8684 23.0275 14.75 24.0964 14.75 25.5H16.25ZM22.5 22.75C24.3418 22.75 25.9722 23.1249 27.1143 23.6959C28.3014 24.2895 28.75 24.9706 28.75 25.5H30.25C30.25 24.0964 29.1316 23.0275 27.7852 22.3543C26.3938 21.6586 24.5242 21.25 22.5 21.25V22.75Z" fill="#28303F"/>
</svg>
