<svg width="40" height="40" viewBox="0 0 40 40" fill="none" xmlns="http://www.w3.org/2000/svg">
<path fill-rule="evenodd" clip-rule="evenodd" d="M19.8773 0H20.1227C24.3092 0 27.8583 0.83543 30.7916 2.4042C33.7249 3.97296 36.0271 6.27505 37.5958 9.2084C39.1645 12.1417 40 15.6909 40 19.8773V20.1227C40 24.3092 39.1645 27.8583 37.5958 30.7916C36.0271 33.7249 33.7249 36.0271 30.7916 37.5958C27.8583 39.1645 24.3092 40 20.1227 40H19.8773C15.6909 40 12.1417 39.1645 9.2084 37.5958C6.27505 36.0271 3.97296 33.7249 2.4042 30.7916C0.83543 27.8583 0 24.3092 0 20.1227V19.8773C0 15.6909 0.83543 12.1417 2.4042 9.2084C3.97296 6.27505 6.27505 3.97296 9.2084 2.4042C12.1417 0.83543 15.6909 0 19.8773 0Z" fill="#F4F4F4"/>
<path d="M21.2727 8H18.7273C17.3214 8 16.1818 9.07452 16.1818 10.4C16.1818 11.9168 14.5589 12.8812 13.2267 12.156L13.0913 12.0823C11.8739 11.4196 10.3171 11.8129 9.61418 12.9608L8.34144 15.0392C7.63853 16.1871 8.05567 17.6549 9.27315 18.3177C10.606 19.0432 10.606 20.9568 9.27315 21.6823C8.05567 22.3451 7.63853 23.8129 8.34144 24.9608L9.61417 27.0392C10.3171 28.1871 11.8739 28.5804 13.0913 27.9177L13.2267 27.844C14.5589 27.1188 16.1818 28.0832 16.1818 29.6C16.1818 30.9255 17.3214 32 18.7273 32H21.2727C22.6785 32 23.8182 30.9255 23.8182 29.6C23.8182 28.0832 25.4411 27.1188 26.7733 27.844L26.9086 27.9177C28.1261 28.5804 29.6829 28.1871 30.3858 27.0392L31.6585 24.9608C32.3614 23.8129 31.9443 22.345 30.7268 21.6823C29.394 20.9568 29.394 19.0432 30.7268 18.3177C31.9443 17.655 32.3614 16.1871 31.6585 15.0392L30.3858 12.9608C29.6829 11.8129 28.1261 11.4196 26.9086 12.0823L26.7733 12.156C25.4411 12.8812 23.8182 11.9168 23.8182 10.4C23.8182 9.07452 22.6785 8 21.2727 8Z" stroke="#242424" stroke-width="1.5" stroke-linejoin="round"/>
<circle cx="20" cy="20" r="4.5" stroke="#242424" stroke-width="1.5"/>
</svg>
