<svg width="31" height="31" viewBox="0 0 31 31" fill="none" xmlns="http://www.w3.org/2000/svg">
<rect x="0.929443" width="30" height="31" rx="8" fill="#EFF2F8"/>
<path fill-rule="evenodd" clip-rule="evenodd" d="M21.7627 11.7084C21.7627 12.836 20.8487 13.7501 19.7211 13.7501C19.0787 13.7501 18.5056 13.4534 18.1313 12.9896C18.1182 12.998 18.1045 13.0059 18.0902 13.013L14.1599 14.9781C14.1458 14.9852 14.1314 14.9914 14.1169 14.9969C14.1577 15.1578 14.1794 15.3264 14.1794 15.5001C14.1794 15.6737 14.1577 15.8423 14.1169 16.0033C14.1314 16.0087 14.1458 16.015 14.1599 16.022L18.0902 17.9872C18.1045 17.9943 18.1182 18.0021 18.1313 18.0106C18.5056 17.5468 19.0787 17.2501 19.7211 17.2501C20.8487 17.2501 21.7627 18.1642 21.7627 19.2917C21.7627 20.4193 20.8487 21.3334 19.7211 21.3334C18.5935 21.3334 17.6794 20.4193 17.6794 19.2917C17.6794 19.1181 17.7011 18.9495 17.7419 18.7885C17.7274 18.7831 17.713 18.7769 17.6989 18.7698L13.7686 16.8047C13.7543 16.7975 13.7406 16.7897 13.7275 16.7813C13.3532 17.2451 12.7801 17.5417 12.1377 17.5417C11.0102 17.5417 10.0961 16.6277 10.0961 15.5001C10.0961 14.3725 11.0102 13.4584 12.1377 13.4584C12.7801 13.4584 13.3532 13.7551 13.7275 14.2189C13.7406 14.2105 13.7543 14.2027 13.7686 14.1955L17.6989 12.2304C17.713 12.2233 17.7274 12.2171 17.7419 12.2116C17.7011 12.0507 17.6794 11.8821 17.6794 11.7084C17.6794 10.5808 18.5935 9.66675 19.7211 9.66675C20.8487 9.66675 21.7627 10.5808 21.7627 11.7084Z" fill="#3E76E6"/>
</svg>
