<svg width="22" height="22" viewBox="0 0 22 22" fill="none" xmlns="http://www.w3.org/2000/svg">
<path d="M9.03281 2.27141C9.8375 0.576198 12.1625 0.576195 12.9672 2.27141L14.3579 5.20118C14.6774 5.87435 15.2951 6.34094 16.0096 6.44888L19.1193 6.91869C20.9187 7.19053 21.6371 9.48954 20.3351 10.8091L18.0849 13.0896C17.5679 13.6136 17.332 14.3685 17.454 15.1084L17.9852 18.3285C18.2926 20.1918 16.4116 21.6126 14.8022 20.7329L12.0208 19.2126C11.3817 18.8633 10.6183 18.8633 9.97917 19.2126L7.19776 20.7329C5.58839 21.6126 3.70742 20.1918 4.01479 18.3286L4.54599 15.1084C4.66804 14.3685 4.43211 13.6136 3.91508 13.0896L1.66488 10.8091C0.362866 9.48954 1.08133 7.19053 2.88066 6.91869L5.99037 6.44888C6.70489 6.34094 7.32257 5.87435 7.64211 5.20118L9.03281 2.27141Z" fill="#F2B325" stroke="#F2B325" stroke-width="1.5" stroke-linejoin="round"/>
</svg>
