<svg width="335" height="110" viewBox="0 0 335 110" fill="none" xmlns="http://www.w3.org/2000/svg">
<rect y="40" width="88" height="70" rx="12" fill="#FCFCFC"/>
<rect x="247" y="40" width="88" height="70" rx="12" fill="#FCFCFC"/>
<rect x="125" y="40" width="88" height="70" rx="12" fill="#FCFCFC"/>
<path d="M9.66131 59.812C9.66131 62.32 11.4973 64.072 13.8373 64.072C15.6493 64.072 17.0893 63.172 17.7133 61.564H16.4053C15.9493 62.56 15.0613 63.124 13.8373 63.124C12.0853 63.124 10.7773 61.852 10.7773 59.812C10.7773 57.76 12.0853 56.488 13.8373 56.488C15.0613 56.488 15.9493 57.052 16.4053 58.06H17.7133C17.0893 56.44 15.6493 55.528 13.8373 55.528C11.4973 55.528 9.66131 57.304 9.66131 59.812ZM25.2788 60.7C25.2788 58.624 23.8268 57.316 21.9548 57.316C20.0948 57.316 18.6308 58.624 18.6308 60.7C18.6308 62.788 20.0468 64.108 21.9068 64.108C23.7788 64.108 25.2788 62.788 25.2788 60.7ZM19.7468 60.7C19.7468 59.044 20.7908 58.264 21.9428 58.264C23.0708 58.264 24.1628 59.044 24.1628 60.7C24.1628 62.368 23.0468 63.148 21.9068 63.148C20.7668 63.148 19.7468 62.368 19.7468 60.7ZM35.9066 64H36.9866V60.124C36.9866 58.24 35.8226 57.304 34.3226 57.304C33.3146 57.304 32.3786 57.82 31.9946 58.768C31.5626 57.784 30.6626 57.304 29.5826 57.304C28.7186 57.304 27.9386 57.676 27.5066 58.372V57.424H26.4146V64H27.5066V60.376C27.5066 58.96 28.2626 58.252 29.3666 58.252C30.4466 58.252 31.1666 58.936 31.1666 60.28V64H32.2466V60.376C32.2466 58.96 33.0026 58.252 34.1066 58.252C35.1866 58.252 35.9066 58.936 35.9066 60.28V64ZM47.9699 64H49.0499V60.124C49.0499 58.24 47.8859 57.304 46.3859 57.304C45.3779 57.304 44.4419 57.82 44.0579 58.768C43.6259 57.784 42.7259 57.304 41.6459 57.304C40.7819 57.304 40.0019 57.676 39.5699 58.372V57.424H38.4779V64H39.5699V60.376C39.5699 58.96 40.3259 58.252 41.4299 58.252C42.5099 58.252 43.2299 58.936 43.2299 60.28V64H44.3099V60.376C44.3099 58.96 45.0659 58.252 46.1699 58.252C47.2499 58.252 47.9699 58.936 47.9699 60.28V64ZM56.3732 57.424H55.2812V61.036C55.2812 62.452 54.5252 63.148 53.3972 63.148C52.2932 63.148 51.5612 62.464 51.5612 61.132V57.424H50.4812V61.276C50.4812 63.16 51.6692 64.096 53.1812 64.096C54.0572 64.096 54.8612 63.712 55.2812 63.028V64H56.3732V57.424ZM62.729 64H63.809V60.124C63.809 58.24 62.645 57.304 61.121 57.304C60.233 57.304 59.441 57.676 59.009 58.36V57.424H57.917V64H59.009V60.364C59.009 58.948 59.777 58.252 60.893 58.252C61.997 58.252 62.729 58.936 62.729 60.28V64ZM65.2928 64H66.3848V57.424H65.2928V64ZM65.8568 56.356C66.2528 56.356 66.5768 56.032 66.5768 55.612C66.5768 55.192 66.2528 54.868 65.8568 54.868C65.4368 54.868 65.1128 55.192 65.1128 55.612C65.1128 56.032 65.4368 56.356 65.8568 56.356ZM68.1859 62.2C68.1859 63.52 68.8459 64 70.0099 64H70.9939V63.076H70.1899C69.5179 63.076 69.2779 62.848 69.2779 62.2V58.324H70.9939V57.424H69.2779V55.768H68.1859V57.424H67.3339V58.324H68.1859V62.2ZM74.513 62.752L72.449 57.424H71.237L73.889 63.928L72.593 67.096H73.721L77.681 57.424H76.553L74.513 62.752Z" fill="#242424" fill-opacity="0.5"/>
<path d="M29.9366 92V80H27.9966V77.42H32.8166V92H29.9366ZM36.0427 77.38H45.0827V79.84H38.6027V83.26C39.1427 82.6 40.2427 82.08 41.4627 82.08C44.8627 82.08 46.0227 84.64 46.0227 86.9C46.0227 89.88 44.3027 92 40.9827 92C37.8427 92 36.0427 90.26 35.8027 87.88H38.5227C38.7627 88.9 39.5827 89.64 40.9427 89.64C42.5827 89.64 43.3227 88.48 43.3227 86.94C43.3227 85.3 42.5027 84.4 40.9227 84.4C39.7627 84.4 39.0227 85.04 38.7227 85.94H36.0427V77.38ZM47.8537 84.52C47.8537 80.3 49.1337 77.14 53.2537 77.14C57.3737 77.14 58.6537 80.3 58.6537 84.52C58.6537 88.78 57.3737 91.96 53.2537 91.96C49.1337 91.96 47.8537 88.78 47.8537 84.52ZM55.8937 84.52C55.8937 82.02 55.6137 79.74 53.2537 79.74C50.8937 79.74 50.6137 82.02 50.6137 84.52C50.6137 87.12 50.8937 89.36 53.2537 89.36C55.6137 89.36 55.8937 87.12 55.8937 84.52Z" fill="#F2B325"/>
<path d="M154.67 64H155.822L152.81 55.684H151.55L148.526 64H149.678L150.35 62.14H153.998L154.67 64ZM153.686 61.252H150.662L152.174 57.028L153.686 61.252ZM157.932 60.424C157.932 58.9 158.724 58.432 159.768 58.432H160.056V57.304C159.012 57.304 158.304 57.76 157.932 58.492V57.424H156.84V64H157.932V60.424ZM161.257 62.2C161.257 63.52 161.917 64 163.081 64H164.065V63.076H163.261C162.589 63.076 162.349 62.848 162.349 62.2V58.324H164.065V57.424H162.349V55.768H161.257V57.424H160.405V58.324H161.257V62.2ZM165.088 64H166.18V57.424H165.088V64ZM165.652 56.356C166.048 56.356 166.372 56.032 166.372 55.612C166.372 55.192 166.048 54.868 165.652 54.868C165.232 54.868 164.908 55.192 164.908 55.612C164.908 56.032 165.232 56.356 165.652 56.356ZM167.333 60.7C167.333 62.788 168.665 64.108 170.537 64.108C172.169 64.108 173.237 63.196 173.573 61.888H172.397C172.157 62.716 171.509 63.184 170.537 63.184C169.337 63.184 168.449 62.332 168.449 60.7C168.449 59.092 169.337 58.24 170.537 58.24C171.509 58.24 172.169 58.744 172.397 59.536H173.573C173.237 58.156 172.169 57.316 170.537 57.316C168.665 57.316 167.333 58.636 167.333 60.7ZM174.73 64H175.822V55.12H174.73V64ZM180.179 58.24C181.307 58.24 182.267 58.948 182.255 60.232H178.103C178.223 58.948 179.111 58.24 180.179 58.24ZM183.251 61.972H182.075C181.835 62.68 181.211 63.184 180.227 63.184C179.111 63.184 178.175 62.452 178.091 61.12H183.347C183.371 60.892 183.383 60.7 183.383 60.46C183.383 58.66 182.135 57.316 180.227 57.316C178.307 57.316 176.975 58.624 176.975 60.7C176.975 62.788 178.355 64.108 180.227 64.108C181.859 64.108 182.915 63.172 183.251 61.972ZM189.252 62.212C189.204 59.86 185.388 60.712 185.388 59.152C185.388 58.624 185.868 58.24 186.672 58.24C187.548 58.24 188.052 58.72 188.1 59.38H189.192C189.12 58.096 188.16 57.316 186.708 57.316C185.244 57.316 184.296 58.144 184.296 59.152C184.296 61.6 188.184 60.748 188.184 62.212C188.184 62.752 187.704 63.184 186.84 63.184C185.916 63.184 185.352 62.704 185.292 62.068H184.164C184.236 63.268 185.316 64.108 186.852 64.108C188.304 64.108 189.252 63.292 189.252 62.212Z" fill="#242424" fill-opacity="0.5"/>
<path d="M161.722 92V80H159.782V77.42H164.602V92H161.722ZM167.068 84.52C167.068 80.3 168.348 77.14 172.468 77.14C176.588 77.14 177.868 80.3 177.868 84.52C177.868 88.78 176.588 91.96 172.468 91.96C168.348 91.96 167.068 88.78 167.068 84.52ZM175.108 84.52C175.108 82.02 174.828 79.74 172.468 79.74C170.108 79.74 169.828 82.02 169.828 84.52C169.828 87.12 170.108 89.36 172.468 89.36C174.828 89.36 175.108 87.12 175.108 84.52Z" fill="#F2B325"/>
<path d="M275.479 60.72C275.479 57.624 270.967 58.968 270.967 56.808C270.967 55.908 271.675 55.44 272.575 55.464C273.595 55.476 274.123 56.112 274.195 56.676H275.395C275.263 55.404 274.219 54.528 272.623 54.528C270.967 54.528 269.851 55.464 269.851 56.844C269.851 59.952 274.375 58.512 274.375 60.768C274.375 61.56 273.751 62.16 272.695 62.16C271.531 62.16 271.039 61.464 270.967 60.768H269.803C269.827 62.148 271.015 63.084 272.695 63.084C274.507 63.084 275.479 61.908 275.479 60.72ZM277.878 57.636V56.424H276.786V66.12H277.878V61.788C278.286 62.46 279.138 63.108 280.338 63.108C282.102 63.108 283.458 61.728 283.458 59.688C283.458 57.636 282.102 56.316 280.338 56.316C279.138 56.316 278.274 56.94 277.878 57.636ZM282.342 59.688C282.342 61.236 281.322 62.148 280.11 62.148C278.922 62.148 277.878 61.248 277.878 59.7C277.878 58.176 278.922 57.264 280.11 57.264C281.322 57.264 282.342 58.14 282.342 59.688ZM284.187 59.688C284.187 61.728 285.543 63.108 287.295 63.108C288.507 63.108 289.359 62.484 289.755 61.776V63H290.859V56.424H289.755V57.624C289.371 56.94 288.531 56.316 287.307 56.316C285.543 56.316 284.187 57.636 284.187 59.688ZM289.755 59.7C289.755 61.248 288.723 62.148 287.523 62.148C286.323 62.148 285.303 61.236 285.303 59.688C285.303 58.14 286.323 57.264 287.523 57.264C288.723 57.264 289.755 58.176 289.755 59.7ZM291.997 59.7C291.997 61.788 293.329 63.108 295.201 63.108C296.833 63.108 297.901 62.196 298.237 60.888H297.061C296.821 61.716 296.173 62.184 295.201 62.184C294.001 62.184 293.113 61.332 293.113 59.7C293.113 58.092 294.001 57.24 295.201 57.24C296.173 57.24 296.833 57.744 297.061 58.536H298.237C297.901 57.156 296.833 56.316 295.201 56.316C293.329 56.316 291.997 57.636 291.997 59.7ZM302.19 57.24C303.318 57.24 304.278 57.948 304.266 59.232H300.114C300.234 57.948 301.122 57.24 302.19 57.24ZM305.262 60.972H304.086C303.846 61.68 303.222 62.184 302.238 62.184C301.122 62.184 300.186 61.452 300.102 60.12H305.358C305.382 59.892 305.394 59.7 305.394 59.46C305.394 57.66 304.146 56.316 302.238 56.316C300.318 56.316 298.986 57.624 298.986 59.7C298.986 61.788 300.366 63.108 302.238 63.108C303.87 63.108 304.926 62.172 305.262 60.972ZM311.263 61.212C311.215 58.86 307.399 59.712 307.399 58.152C307.399 57.624 307.879 57.24 308.683 57.24C309.559 57.24 310.063 57.72 310.111 58.38H311.203C311.131 57.096 310.171 56.316 308.719 56.316C307.255 56.316 306.307 57.144 306.307 58.152C306.307 60.6 310.195 59.748 310.195 61.212C310.195 61.752 309.715 62.184 308.851 62.184C307.927 62.184 307.363 61.704 307.303 61.068H306.175C306.247 62.268 307.327 63.108 308.863 63.108C310.315 63.108 311.263 62.292 311.263 61.212Z" fill="#242424" fill-opacity="0.5"/>
<path d="M285.884 76.38H294.924V78.84H288.444V82.26C288.984 81.6 290.084 81.08 291.304 81.08C294.704 81.08 295.864 83.64 295.864 85.9C295.864 88.88 294.144 91 290.824 91C287.684 91 285.884 89.26 285.644 86.88H288.364C288.604 87.9 289.424 88.64 290.784 88.64C292.424 88.64 293.164 87.48 293.164 85.94C293.164 84.3 292.344 83.4 290.764 83.4C289.604 83.4 288.864 84.04 288.564 84.94H285.884V76.38Z" fill="#F2B325"/>
<path d="M9.13331 18H11.5013L7.48531 6.816H4.87731L0.861313 18H3.21331L3.94931 15.872H8.39731L9.13331 18ZM7.78931 14.08H4.55731L6.17331 9.408L7.78931 14.08ZM12.1264 13.568C12.1264 16.352 13.9504 18.144 16.5104 18.144C18.7184 18.144 20.2064 16.896 20.6864 15.008H18.2704C17.9984 15.808 17.4224 16.224 16.4944 16.224C15.2464 16.224 14.4144 15.296 14.4144 13.568C14.4144 11.84 15.2464 10.896 16.4944 10.896C17.4224 10.896 18.0144 11.376 18.2704 12.128H20.6864C20.2064 10.144 18.7184 8.992 16.5104 8.992C13.9504 8.992 12.1264 10.784 12.1264 13.568ZM22.3794 15.248C22.3794 17.28 23.5154 18 25.2114 18H26.6194V16.112H25.5794C24.8754 16.112 24.6354 15.856 24.6354 15.264V10.976H26.6194V9.136H24.6354V6.944H22.3794V9.136H21.3234V10.976H22.3794V15.248ZM27.9306 18H30.1706V9.136H27.9306V18ZM29.0666 8.08C29.8506 8.08 30.4426 7.504 30.4426 6.768C30.4426 6.032 29.8506 5.456 29.0666 5.456C28.2666 5.456 27.6906 6.032 27.6906 6.768C27.6906 7.504 28.2666 8.08 29.0666 8.08ZM31.1397 9.136L34.4037 18H37.1237L40.4037 9.136H38.0197L35.7797 15.936L33.5397 9.136H31.1397ZM41.3618 18H43.6018V9.136H41.3618V18ZM42.4978 8.08C43.2818 8.08 43.8738 7.504 43.8738 6.768C43.8738 6.032 43.2818 5.456 42.4978 5.456C41.6978 5.456 41.1218 6.032 41.1218 6.768C41.1218 7.504 41.6978 8.08 42.4978 8.08ZM45.8669 15.248C45.8669 17.28 47.0029 18 48.6989 18H50.1069V16.112H49.0669C48.3629 16.112 48.1229 15.856 48.1229 15.264V10.976H50.1069V9.136H48.1229V6.944H45.8669V9.136H44.8109V10.976H45.8669V15.248ZM51.4181 18H53.6581V9.136H51.4181V18ZM52.5541 8.08C53.3381 8.08 53.9301 7.504 53.9301 6.768C53.9301 6.032 53.3381 5.456 52.5541 5.456C51.7541 5.456 51.1781 6.032 51.1781 6.768C51.1781 7.504 51.7541 8.08 52.5541 8.08ZM59.3792 10.832C60.5312 10.832 61.4592 11.568 61.4912 12.736H57.2832C57.4592 11.52 58.3072 10.832 59.3792 10.832ZM63.5872 15.216H61.1712C60.8832 15.808 60.3552 16.288 59.3952 16.288C58.2752 16.288 57.3792 15.552 57.2672 14.24H63.7472C63.7952 13.952 63.8112 13.664 63.8112 13.376C63.8112 10.736 62.0032 8.992 59.4432 8.992C56.8192 8.992 54.9952 10.768 54.9952 13.568C54.9952 16.352 56.8672 18.144 59.4432 18.144C61.6352 18.144 63.1072 16.848 63.5872 15.216ZM72.0262 15.472C71.9622 12.224 67.0502 13.232 67.0502 11.616C67.0502 11.104 67.4822 10.768 68.3142 10.768C69.1942 10.768 69.7382 11.232 69.8022 11.92H71.9462C71.8182 10.16 70.5222 8.992 68.3782 8.992C66.1862 8.992 64.8742 10.176 64.8742 11.648C64.8742 14.896 69.8822 13.888 69.8822 15.472C69.8822 15.984 69.4022 16.384 68.5222 16.384C67.6262 16.384 67.0022 15.872 66.9222 15.2H64.6662C64.7622 16.848 66.3142 18.144 68.5382 18.144C70.6982 18.144 72.0262 16.992 72.0262 15.472ZM83.9574 15.472C83.8934 12.224 78.9814 13.232 78.9814 11.616C78.9814 11.104 79.4134 10.768 80.2454 10.768C81.1254 10.768 81.6694 11.232 81.7334 11.92H83.8774C83.7494 10.16 82.4534 8.992 80.3094 8.992C78.1174 8.992 76.8054 10.176 76.8054 11.648C76.8054 14.896 81.8134 13.888 81.8134 15.472C81.8134 15.984 81.3334 16.384 80.4534 16.384C79.5574 16.384 78.9334 15.872 78.8534 15.2H76.5974C76.6934 16.848 78.2454 18.144 80.4694 18.144C82.6294 18.144 83.9574 16.992 83.9574 15.472ZM85.8482 15.248C85.8482 17.28 86.9842 18 88.6802 18H90.0882V16.112H89.0482C88.3442 16.112 88.1042 15.856 88.1042 15.264V10.976H90.0882V9.136H88.1042V6.944H85.8482V9.136H84.7922V10.976H85.8482V15.248ZM90.8233 13.536C90.8233 16.304 92.6153 18.144 94.8553 18.144C96.2633 18.144 97.2713 17.472 97.7993 16.704V18H100.055V9.136H97.7993V10.4C97.2713 9.664 96.2953 8.992 94.8713 8.992C92.6153 8.992 90.8233 10.768 90.8233 13.536ZM97.7993 13.568C97.7993 15.248 96.6793 16.176 95.4473 16.176C94.2473 16.176 93.1113 15.216 93.1113 13.536C93.1113 11.856 94.2473 10.96 95.4473 10.96C96.6793 10.96 97.7993 11.888 97.7993 13.568ZM102.295 15.248C102.295 17.28 103.431 18 105.127 18H106.535V16.112H105.495C104.791 16.112 104.551 15.856 104.551 15.264V10.976H106.535V9.136H104.551V6.944H102.295V9.136H101.239V10.976H102.295V15.248ZM107.846 18H110.086V9.136H107.846V18ZM108.982 8.08C109.766 8.08 110.358 7.504 110.358 6.768C110.358 6.032 109.766 5.456 108.982 5.456C108.182 5.456 107.606 6.032 107.606 6.768C107.606 7.504 108.182 8.08 108.982 8.08ZM118.879 15.472C118.815 12.224 113.903 13.232 113.903 11.616C113.903 11.104 114.335 10.768 115.167 10.768C116.047 10.768 116.591 11.232 116.655 11.92H118.799C118.671 10.16 117.375 8.992 115.231 8.992C113.039 8.992 111.727 10.176 111.727 11.648C111.727 14.896 116.735 13.888 116.735 15.472C116.735 15.984 116.255 16.384 115.375 16.384C114.479 16.384 113.855 15.872 113.775 15.2H111.519C111.615 16.848 113.167 18.144 115.391 18.144C117.551 18.144 118.879 16.992 118.879 15.472ZM120.77 15.248C120.77 17.28 121.906 18 123.602 18H125.01V16.112H123.97C123.266 16.112 123.026 15.856 123.026 15.264V10.976H125.01V9.136H123.026V6.944H120.77V9.136H119.714V10.976H120.77V15.248ZM126.321 18H128.561V9.136H126.321V18ZM127.457 8.08C128.241 8.08 128.833 7.504 128.833 6.768C128.833 6.032 128.241 5.456 127.457 5.456C126.657 5.456 126.081 6.032 126.081 6.768C126.081 7.504 126.657 8.08 127.457 8.08ZM129.898 13.568C129.898 16.352 131.722 18.144 134.282 18.144C136.49 18.144 137.978 16.896 138.458 15.008H136.042C135.77 15.808 135.194 16.224 134.266 16.224C133.018 16.224 132.186 15.296 132.186 13.568C132.186 11.84 133.018 10.896 134.266 10.896C135.194 10.896 135.786 11.376 136.042 12.128H138.458C137.978 10.144 136.49 8.992 134.282 8.992C131.722 8.992 129.898 10.784 129.898 13.568ZM146.679 15.472C146.615 12.224 141.703 13.232 141.703 11.616C141.703 11.104 142.135 10.768 142.967 10.768C143.847 10.768 144.391 11.232 144.455 11.92H146.599C146.471 10.16 145.175 8.992 143.031 8.992C140.839 8.992 139.527 10.176 139.527 11.648C139.527 14.896 144.535 13.888 144.535 15.472C144.535 15.984 144.055 16.384 143.175 16.384C142.279 16.384 141.655 15.872 141.575 15.2H139.319C139.415 16.848 140.967 18.144 143.191 18.144C145.351 18.144 146.679 16.992 146.679 15.472ZM153.971 10.416V9.136H151.731V22.224H153.971V16.736C154.515 17.456 155.507 18.144 156.899 18.144C159.171 18.144 160.947 16.304 160.947 13.536C160.947 10.768 159.171 8.992 156.899 8.992C155.523 8.992 154.499 9.664 153.971 10.416ZM158.659 13.536C158.659 15.216 157.523 16.176 156.307 16.176C155.107 16.176 153.971 15.248 153.971 13.568C153.971 11.888 155.107 10.96 156.307 10.96C157.523 10.96 158.659 11.856 158.659 13.536ZM166.082 10.832C167.234 10.832 168.162 11.568 168.194 12.736H163.986C164.162 11.52 165.01 10.832 166.082 10.832ZM170.29 15.216H167.874C167.586 15.808 167.058 16.288 166.098 16.288C164.978 16.288 164.082 15.552 163.97 14.24H170.45C170.498 13.952 170.514 13.664 170.514 13.376C170.514 10.736 168.706 8.992 166.146 8.992C163.522 8.992 161.698 10.768 161.698 13.568C161.698 16.352 163.57 18.144 166.146 18.144C168.338 18.144 169.81 16.848 170.29 15.216ZM174.089 13.584C174.089 11.872 174.889 11.36 176.217 11.36H176.809V9.008C175.577 9.008 174.649 9.6 174.089 10.512V9.136H171.849V18H174.089V13.584ZM193.931 18H196.171V12.8C196.171 10.352 194.667 9.008 192.539 9.008C191.243 9.008 190.075 9.696 189.499 10.704C188.891 9.6 187.755 9.008 186.379 9.008C185.275 9.008 184.331 9.472 183.771 10.208V9.136H181.531V18H183.771V13.104C183.771 11.696 184.555 10.96 185.771 10.96C186.955 10.96 187.739 11.696 187.739 13.104V18H189.979V13.104C189.979 11.696 190.763 10.96 191.963 10.96C193.147 10.96 193.931 11.696 193.931 13.104V18ZM206.556 13.568C206.556 10.768 204.556 8.992 201.996 8.992C199.436 8.992 197.436 10.768 197.436 13.568C197.436 16.352 199.372 18.144 201.932 18.144C204.508 18.144 206.556 16.352 206.556 13.568ZM199.708 13.568C199.708 11.792 200.78 10.944 201.964 10.944C203.148 10.944 204.252 11.792 204.252 13.568C204.252 15.328 203.116 16.192 201.932 16.192C200.732 16.192 199.708 15.328 199.708 13.568ZM214.107 18H216.347V12.8C216.347 10.352 214.875 9.008 212.811 9.008C211.675 9.008 210.715 9.488 210.139 10.24V9.136H207.899V18H210.139V13.104C210.139 11.68 210.923 10.912 212.139 10.912C213.323 10.912 214.107 11.68 214.107 13.104V18ZM218.529 15.248C218.529 17.28 219.665 18 221.361 18H222.769V16.112H221.729C221.025 16.112 220.785 15.856 220.785 15.264V10.976H222.769V9.136H220.785V6.944H218.529V9.136H217.473V10.976H218.529V15.248ZM224.081 18H226.321V13.104C226.321 11.68 227.105 10.912 228.321 10.912C229.505 10.912 230.289 11.68 230.289 13.104V18H232.529V12.8C232.529 10.352 231.073 9.008 229.073 9.008C227.889 9.008 226.897 9.488 226.321 10.24V6.16H224.081V18Z" fill="#242424"/>
<path fill-rule="evenodd" clip-rule="evenodd" d="M244.414 9.28151C244.673 8.95806 245.145 8.90562 245.469 9.16438L250 12.7896L254.532 9.16438C254.855 8.90562 255.327 8.95806 255.586 9.28151C255.844 9.60495 255.792 10.0769 255.469 10.3357L250.469 14.3357C250.195 14.5548 249.805 14.5548 249.532 14.3357L244.532 10.3357C244.208 10.0769 244.156 9.60495 244.414 9.28151Z" fill="#28303F"/>
</svg>
