<svg width="24" height="24" viewBox="0 0 24 24" fill="none" xmlns="http://www.w3.org/2000/svg">
<path opacity="0.4" d="M12 22C6.48 22 2 17.52 2 12C2 6.48 6.48 2 12 2C17.52 2 22 6.48 22 12C22 17.52 17.52 22 12 22Z" fill="#F2B325"/>
<path d="M15.96 17.4099C16.01 17.7199 15.77 17.9999 15.46 17.9999H8.53995C8.22995 17.9999 7.99995 17.7199 8.03995 17.4099C8.31995 15.4799 9.97997 13.9999 12 13.9999C14.02 13.9999 15.67 15.4799 15.96 17.4099ZM16.06 9.99994L16.53 9.52994C16.82 9.23994 16.82 8.75994 16.53 8.46994C16.24 8.17994 15.7599 8.17994 15.4699 8.46994L15 8.93994L14.53 8.46994C14.24 8.17994 13.7599 8.17994 13.4699 8.46994C13.1799 8.75994 13.1799 9.23994 13.4699 9.52994L13.94 9.99994L13.4699 10.4699C13.1799 10.7599 13.1799 11.2399 13.4699 11.5299C13.6199 11.6799 13.81 11.7499 14 11.7499C14.19 11.7499 14.38 11.6799 14.53 11.5299L15 11.0599L15.4699 11.5299C15.6199 11.6799 15.81 11.7499 16 11.7499C16.19 11.7499 16.38 11.6799 16.53 11.5299C16.82 11.2399 16.82 10.7599 16.53 10.4699L16.06 9.99994ZM8.99997 11.0599L9.46994 11.5299C9.61994 11.6799 9.80997 11.7499 9.99997 11.7499C10.19 11.7499 10.38 11.6799 10.53 11.5299C10.82 11.2399 10.82 10.7599 10.53 10.4699L10.06 9.99994L10.53 9.52994C10.82 9.23994 10.82 8.75994 10.53 8.46994C10.24 8.17994 9.75994 8.17994 9.46994 8.46994L8.99997 8.93994L8.53 8.46994C8.24 8.17994 7.75994 8.17994 7.46994 8.46994C7.17994 8.75994 7.17994 9.23994 7.46994 9.52994L7.93997 9.99994L7.46994 10.4699C7.17994 10.7599 7.17994 11.2399 7.46994 11.5299C7.61994 11.6799 7.80997 11.7499 7.99997 11.7499C8.18997 11.7499 8.38 11.6799 8.53 11.5299L8.99997 11.0599Z" fill="#F2B325"/>
</svg>
