<svg width="22" height="22" viewBox="0 0 22 22" fill="none" xmlns="http://www.w3.org/2000/svg">
<path d="M11 0.25C5.07 0.25 0.25 5.07 0.25 11C0.25 16.93 5.07 21.75 11 21.75C16.93 21.75 21.75 16.93 21.75 11C21.75 5.07 16.93 0.25 11 0.25ZM11 20.25C5.9 20.25 1.75 16.1 1.75 11C1.75 5.9 5.9 1.75 11 1.75C16.1 1.75 20.25 5.9 20.25 11C20.25 16.1 16.1 20.25 11 20.25ZM11 12.25C8.66 12.25 6.63999 13.99 6.29999 16.3C6.24999 16.67 6.35003 17.03 6.59003 17.31C6.83003 17.58 7.17003 17.74 7.53003 17.74H14.45C14.81 17.74 15.16 17.58 15.39 17.31C15.63 17.03 15.74 16.66 15.68 16.3C15.34 13.99 13.32 12.25 10.98 12.25H11ZM7.84003 16.25C8.18003 14.81 9.49 13.75 11 13.75C12.51 13.75 13.82 14.81 14.16 16.25H7.83002H7.84003ZM15.53 8.53L15.06 9L15.53 9.47C15.82 9.76 15.82 10.24 15.53 10.53C15.38 10.68 15.19 10.75 15 10.75C14.81 10.75 14.62 10.68 14.47 10.53L14 10.06L13.53 10.53C13.38 10.68 13.19 10.75 13 10.75C12.81 10.75 12.62 10.68 12.47 10.53C12.18 10.24 12.18 9.76 12.47 9.47L12.94 9L12.47 8.53C12.18 8.24 12.18 7.76 12.47 7.47C12.76 7.18 13.24 7.18 13.53 7.47L14 7.94L14.47 7.47C14.76 7.18 15.24 7.18 15.53 7.47C15.82 7.76 15.82 8.24 15.53 8.53ZM6.46997 9.47L6.94 9L6.46997 8.53C6.17997 8.24 6.17997 7.76 6.46997 7.47C6.75997 7.18 7.24003 7.18 7.53003 7.47L8 7.94L8.46997 7.47C8.75997 7.18 9.24003 7.18 9.53003 7.47C9.82003 7.76 9.82003 8.24 9.53003 8.53L9.06 9L9.53003 9.47C9.82003 9.76 9.82003 10.24 9.53003 10.53C9.38003 10.68 9.19 10.75 9 10.75C8.81 10.75 8.61997 10.68 8.46997 10.53L8 10.06L7.53003 10.53C7.38003 10.68 7.19 10.75 7 10.75C6.81 10.75 6.61997 10.68 6.46997 10.53C6.17997 10.24 6.17997 9.76 6.46997 9.47Z" fill="#242424" fill-opacity="0.8"/>
</svg>
