<svg width="18" height="17" viewBox="0 0 18 17" fill="none" xmlns="http://www.w3.org/2000/svg">
<path fill-rule="evenodd" clip-rule="evenodd" d="M8.99996 16.8332C13.6023 16.8332 17.3333 13.1022 17.3333 8.49984C17.3333 3.89746 13.6023 0.166504 8.99996 0.166504C4.39759 0.166504 0.666626 3.89746 0.666626 8.49984C0.666626 13.1022 4.39759 16.8332 8.99996 16.8332ZM9.62496 4.33317C9.62496 3.98799 9.34514 3.70817 8.99996 3.70817C8.65478 3.70817 8.37496 3.98799 8.37496 4.33317V8.49984C8.37496 8.76886 8.5471 9.00769 8.80232 9.09276L11.3023 9.9261C11.6298 10.0353 11.9837 9.85828 12.0929 9.53081C12.202 9.20335 12.0251 8.8494 11.6976 8.74024L9.62496 8.04936V4.33317Z" fill="#242424"/>
</svg>
