<svg width="40" height="40" viewBox="0 0 40 40" fill="none" xmlns="http://www.w3.org/2000/svg">
<path fill-rule="evenodd" clip-rule="evenodd" d="M19.8773 0H20.1227C24.3092 0 27.8583 0.83543 30.7916 2.4042C33.7249 3.97296 36.0271 6.27505 37.5958 9.2084C39.1645 12.1417 40 15.6909 40 19.8773V20.1227C40 24.3092 39.1645 27.8583 37.5958 30.7916C36.0271 33.7249 33.7249 36.0271 30.7916 37.5958C27.8583 39.1645 24.3092 40 20.1227 40H19.8773C15.6909 40 12.1417 39.1645 9.2084 37.5958C6.27505 36.0271 3.97296 33.7249 2.4042 30.7916C0.83543 27.8583 0 24.3092 0 20.1227V19.8773C0 15.6909 0.83543 12.1417 2.4042 9.2084C3.97296 6.27505 6.27505 3.97296 9.2084 2.4042C12.1417 0.83543 15.6909 0 19.8773 0Z" fill="#242424" fill-opacity="0.6"/>
<path d="M27 17L26.2841 26.3068C26.1238 28.3908 24.386 30 22.2959 30H17.7041C15.614 30 13.8762 28.3908 13.7159 26.3068L13 17M29 15C26.4021 13.734 23.3137 13 20 13C16.6863 13 13.5979 13.734 11 15M18 13V12C18 10.8954 18.8954 10 20 10C21.1046 10 22 10.8954 22 12V13M18 19V25M22 19V25" stroke="#EFF2F8" stroke-width="1.5" stroke-linecap="round"/>
</svg>
