<svg width="300" height="82" viewBox="0 0 300 82" fill="none" xmlns="http://www.w3.org/2000/svg">
<path d="M71.047 13.728C71.047 16.672 73.063 18.112 75.511 18.112C77.959 18.112 80.071 16.672 80.071 13.728V6.832H77.815V13.744C77.815 15.28 76.983 16.08 75.543 16.08C74.119 16.08 73.287 15.28 73.287 13.744V6.832H71.047V13.728ZM84.1752 10.416V9.136H81.9352V22.224H84.1752V16.736C84.7192 17.456 85.7112 18.144 87.1032 18.144C89.3752 18.144 91.1512 16.304 91.1512 13.536C91.1512 10.768 89.3752 8.992 87.1032 8.992C85.7272 8.992 84.7032 9.664 84.1752 10.416ZM88.8632 13.536C88.8632 15.216 87.7272 16.176 86.5112 16.176C85.3112 16.176 84.1752 15.248 84.1752 13.568C84.1752 11.888 85.3112 10.96 86.5112 10.96C87.7272 10.96 88.8632 11.856 88.8632 13.536ZM91.903 13.536C91.903 16.304 93.695 18.144 95.951 18.144C97.343 18.144 98.351 17.456 98.879 16.688V18.064C98.879 19.712 97.919 20.416 96.687 20.416C95.567 20.416 94.735 19.888 94.511 19.088H92.287C92.511 21.12 94.255 22.368 96.751 22.368C99.663 22.368 101.135 20.464 101.135 18.064V9.136H98.879V10.4C98.351 9.632 97.343 8.992 95.951 8.992C93.695 8.992 91.903 10.768 91.903 13.536ZM98.879 13.568C98.879 15.248 97.759 16.176 96.527 16.176C95.327 16.176 94.191 15.216 94.191 13.536C94.191 11.856 95.327 10.96 96.527 10.96C97.759 10.96 98.879 11.888 98.879 13.568ZM105.263 13.584C105.263 11.872 106.063 11.36 107.391 11.36H107.983V9.008C106.751 9.008 105.823 9.6 105.263 10.512V9.136H103.023V18H105.263V13.584ZM108.615 13.536C108.615 16.304 110.407 18.144 112.647 18.144C114.055 18.144 115.063 17.472 115.591 16.704V18H117.847V9.136H115.591V10.4C115.063 9.664 114.087 8.992 112.663 8.992C110.407 8.992 108.615 10.768 108.615 13.536ZM115.591 13.568C115.591 15.248 114.471 16.176 113.239 16.176C112.039 16.176 110.903 15.216 110.903 13.536C110.903 11.856 112.039 10.96 113.239 10.96C114.471 10.96 115.591 11.888 115.591 13.568ZM119.159 13.536C119.159 16.304 120.951 18.144 123.207 18.144C124.599 18.144 125.591 17.504 126.119 16.688V18H128.391V6.16H126.119V10.368C125.511 9.536 124.391 8.992 123.223 8.992C120.951 8.992 119.159 10.768 119.159 13.536ZM126.135 13.568C126.135 15.248 125.015 16.176 123.783 16.176C122.583 16.176 121.447 15.216 121.447 13.536C121.447 11.856 122.583 10.96 123.783 10.96C125.015 10.96 126.135 11.888 126.135 13.568ZM134.087 10.832C135.239 10.832 136.167 11.568 136.199 12.736H131.991C132.167 11.52 133.015 10.832 134.087 10.832ZM138.295 15.216H135.879C135.591 15.808 135.063 16.288 134.103 16.288C132.983 16.288 132.087 15.552 131.975 14.24H138.455C138.503 13.952 138.519 13.664 138.519 13.376C138.519 10.736 136.711 8.992 134.151 8.992C131.527 8.992 129.703 10.768 129.703 13.568C129.703 16.352 131.575 18.144 134.151 18.144C136.343 18.144 137.815 16.848 138.295 15.216ZM150.246 15.472C150.182 12.224 145.27 13.232 145.27 11.616C145.27 11.104 145.702 10.768 146.534 10.768C147.414 10.768 147.958 11.232 148.022 11.92H150.166C150.038 10.16 148.742 8.992 146.598 8.992C144.406 8.992 143.094 10.176 143.094 11.648C143.094 14.896 148.102 13.888 148.102 15.472C148.102 15.984 147.622 16.384 146.742 16.384C145.846 16.384 145.222 15.872 145.142 15.2H142.886C142.982 16.848 144.534 18.144 146.758 18.144C148.918 18.144 150.246 16.992 150.246 15.472ZM160.153 9.136H157.897V14.016C157.897 15.44 157.129 16.208 155.913 16.208C154.729 16.208 153.945 15.44 153.945 14.016V9.136H151.705V14.336C151.705 16.768 153.193 18.112 155.257 18.112C156.361 18.112 157.337 17.632 157.897 16.88V18H160.153V9.136ZM161.487 13.568C161.487 16.352 163.311 18.144 165.871 18.144C168.079 18.144 169.567 16.896 170.047 15.008H167.631C167.359 15.808 166.783 16.224 165.855 16.224C164.607 16.224 163.775 15.296 163.775 13.568C163.775 11.84 164.607 10.896 165.855 10.896C166.783 10.896 167.375 11.376 167.631 12.128H170.047C169.567 10.144 168.079 8.992 165.871 8.992C163.311 8.992 161.487 10.784 161.487 13.568ZM170.812 13.568C170.812 16.352 172.636 18.144 175.196 18.144C177.404 18.144 178.892 16.896 179.372 15.008H176.956C176.684 15.808 176.108 16.224 175.18 16.224C173.932 16.224 173.1 15.296 173.1 13.568C173.1 11.84 173.932 10.896 175.18 10.896C176.108 10.896 176.7 11.376 176.956 12.128H179.372C178.892 10.144 177.404 8.992 175.196 8.992C172.636 8.992 170.812 10.784 170.812 13.568ZM184.521 10.832C185.673 10.832 186.601 11.568 186.633 12.736H182.425C182.601 11.52 183.449 10.832 184.521 10.832ZM188.729 15.216H186.313C186.025 15.808 185.497 16.288 184.537 16.288C183.417 16.288 182.521 15.552 182.409 14.24H188.889C188.937 13.952 188.953 13.664 188.953 13.376C188.953 10.736 187.145 8.992 184.585 8.992C181.961 8.992 180.137 10.768 180.137 13.568C180.137 16.352 182.009 18.144 184.585 18.144C186.777 18.144 188.249 16.848 188.729 15.216ZM197.168 15.472C197.104 12.224 192.192 13.232 192.192 11.616C192.192 11.104 192.624 10.768 193.456 10.768C194.336 10.768 194.88 11.232 194.944 11.92H197.088C196.96 10.16 195.664 8.992 193.52 8.992C191.328 8.992 190.016 10.176 190.016 11.648C190.016 14.896 195.024 13.888 195.024 15.472C195.024 15.984 194.544 16.384 193.664 16.384C192.768 16.384 192.144 15.872 192.064 15.2H189.808C189.904 16.848 191.456 18.144 193.68 18.144C195.84 18.144 197.168 16.992 197.168 15.472ZM205.587 15.472C205.523 12.224 200.611 13.232 200.611 11.616C200.611 11.104 201.043 10.768 201.875 10.768C202.755 10.768 203.299 11.232 203.363 11.92H205.507C205.379 10.16 204.083 8.992 201.939 8.992C199.747 8.992 198.435 10.176 198.435 11.648C198.435 14.896 203.443 13.888 203.443 15.472C203.443 15.984 202.963 16.384 202.083 16.384C201.187 16.384 200.563 15.872 200.483 15.2H198.227C198.323 16.848 199.875 18.144 202.099 18.144C204.259 18.144 205.587 16.992 205.587 15.472ZM207.366 18H209.638V10.976H211.19V9.136H209.638V8.768C209.638 7.776 210.006 7.424 211.094 7.456V5.568C208.598 5.504 207.366 6.512 207.366 8.688V9.136H206.358V10.976H207.366V18ZM220.709 9.136H218.453V14.016C218.453 15.44 217.685 16.208 216.469 16.208C215.285 16.208 214.501 15.44 214.501 14.016V9.136H212.261V14.336C212.261 16.768 213.749 18.112 215.813 18.112C216.917 18.112 217.893 17.632 218.453 16.88V18H220.709V9.136ZM222.62 18H224.86V6.16H222.62V18ZM227.525 14.368H229.413L229.669 6.64H227.253L227.525 14.368ZM229.877 16.8C229.877 16.064 229.301 15.488 228.517 15.488C227.701 15.488 227.125 16.064 227.125 16.8C227.125 17.536 227.701 18.112 228.517 18.112C229.301 18.112 229.877 17.536 229.877 16.8Z" fill="black"/>
<path d="M22.7176 47.792V52H24.1736V47.792L27.8056 40.848H26.1896L23.4376 46.496L20.6856 40.848H19.0696L22.7176 47.792ZM37.3614 47.6C37.3614 44.832 35.4254 43.088 32.9294 43.088C30.4494 43.088 28.4974 44.832 28.4974 47.6C28.4974 50.384 30.3854 52.144 32.8654 52.144C35.3614 52.144 37.3614 50.384 37.3614 47.6ZM29.9854 47.6C29.9854 45.392 31.3774 44.352 32.9134 44.352C34.4174 44.352 35.8734 45.392 35.8734 47.6C35.8734 49.824 34.3854 50.864 32.8654 50.864C31.3454 50.864 29.9854 49.824 29.9854 47.6ZM46.7518 43.232H45.2958V48.048C45.2958 49.936 44.2878 50.864 42.7838 50.864C41.3118 50.864 40.3358 49.952 40.3358 48.176V43.232H38.8958V48.368C38.8958 50.88 40.4798 52.128 42.4958 52.128C43.6638 52.128 44.7358 51.616 45.2958 50.704V52H46.7518V43.232ZM59.2917 52H60.7317V46.832C60.7317 44.32 59.1797 43.072 57.1477 43.072C55.9637 43.072 54.9077 43.568 54.3317 44.48V43.232H52.8757V52H54.3317V47.152C54.3317 45.264 55.3557 44.336 56.8437 44.336C58.3157 44.336 59.2917 45.248 59.2917 47.04V52ZM71.1301 47.6C71.1301 44.832 69.1941 43.088 66.6981 43.088C64.2181 43.088 62.2661 44.832 62.2661 47.6C62.2661 50.384 64.1541 52.144 66.6341 52.144C69.1301 52.144 71.1301 50.384 71.1301 47.6ZM63.7541 47.6C63.7541 45.392 65.1461 44.352 66.6821 44.352C68.1861 44.352 69.6421 45.392 69.6421 47.6C69.6421 49.824 68.1541 50.864 66.6341 50.864C65.1141 50.864 63.7541 49.824 63.7541 47.6ZM74.4565 52H75.9605L78.0725 45.04L80.1845 52H81.6885L84.4245 43.232H82.9845L81.0005 50.608L78.8725 43.232H77.3845L75.2085 50.592L73.1925 43.232H71.7045L74.4565 52ZM89.5351 52H90.9911V47.152C90.9911 45.264 92.0151 44.336 93.5031 44.336C94.9751 44.336 95.9511 45.248 95.9511 47.04V52H97.3911V46.832C97.3911 44.32 95.8391 43.072 93.8871 43.072C92.6551 43.072 91.5671 43.568 90.9911 44.496V40.16H89.5351V52ZM98.9255 47.584C98.9255 50.304 100.734 52.144 103.07 52.144C104.686 52.144 105.822 51.312 106.35 50.368V52H107.822V43.232H106.35V44.832C105.838 43.92 104.718 43.088 103.086 43.088C100.734 43.088 98.9255 44.848 98.9255 47.584ZM106.35 47.6C106.35 49.664 104.974 50.864 103.374 50.864C101.774 50.864 100.414 49.648 100.414 47.584C100.414 45.52 101.774 44.352 103.374 44.352C104.974 44.352 106.35 45.568 106.35 47.6ZM108.942 43.232L112.382 52H114.078L117.518 43.232H115.966L113.246 50.656L110.51 43.232H108.942ZM122.379 44.32C123.883 44.32 125.163 45.264 125.147 46.976H119.611C119.771 45.264 120.955 44.32 122.379 44.32ZM126.475 49.296H124.907C124.587 50.24 123.755 50.912 122.443 50.912C120.955 50.912 119.707 49.936 119.595 48.16H126.603C126.635 47.856 126.651 47.6 126.651 47.28C126.651 44.88 124.987 43.088 122.443 43.088C119.883 43.088 118.107 44.832 118.107 47.6C118.107 50.384 119.947 52.144 122.443 52.144C124.619 52.144 126.027 50.896 126.475 49.296ZM131.694 47.584C131.694 50.304 133.502 52.144 135.838 52.144C137.454 52.144 138.59 51.312 139.118 50.368V52H140.59V43.232H139.118V44.832C138.606 43.92 137.486 43.088 135.854 43.088C133.502 43.088 131.694 44.848 131.694 47.584ZM139.118 47.6C139.118 49.664 137.742 50.864 136.142 50.864C134.542 50.864 133.182 49.648 133.182 47.584C133.182 45.52 134.542 44.352 136.142 44.352C137.742 44.352 139.118 45.568 139.118 47.6ZM142.207 47.6C142.207 50.384 143.983 52.144 146.479 52.144C148.655 52.144 150.079 50.928 150.527 49.184H148.959C148.639 50.288 147.775 50.912 146.479 50.912C144.879 50.912 143.695 49.776 143.695 47.6C143.695 45.456 144.879 44.32 146.479 44.32C147.775 44.32 148.655 44.992 148.959 46.048H150.527C150.079 44.208 148.655 43.088 146.479 43.088C143.983 43.088 142.207 44.848 142.207 47.6ZM151.626 47.6C151.626 50.384 153.402 52.144 155.898 52.144C158.074 52.144 159.498 50.928 159.946 49.184H158.378C158.058 50.288 157.194 50.912 155.898 50.912C154.298 50.912 153.114 49.776 153.114 47.6C153.114 45.456 154.298 44.32 155.898 44.32C157.194 44.32 158.074 44.992 158.378 46.048H159.946C159.498 44.208 158.074 43.088 155.898 43.088C153.402 43.088 151.626 44.848 151.626 47.6ZM165.316 44.32C166.82 44.32 168.1 45.264 168.084 46.976H162.548C162.708 45.264 163.892 44.32 165.316 44.32ZM169.412 49.296H167.844C167.524 50.24 166.692 50.912 165.38 50.912C163.892 50.912 162.644 49.936 162.532 48.16H169.54C169.572 47.856 169.588 47.6 169.588 47.28C169.588 44.88 167.924 43.088 165.38 43.088C162.82 43.088 161.044 44.832 161.044 47.6C161.044 50.384 162.884 52.144 165.38 52.144C167.556 52.144 168.964 50.896 169.412 49.296ZM177.514 49.616C177.45 46.48 172.362 47.616 172.362 45.536C172.362 44.832 173.002 44.32 174.074 44.32C175.242 44.32 175.914 44.96 175.978 45.84H177.434C177.338 44.128 176.058 43.088 174.122 43.088C172.17 43.088 170.906 44.192 170.906 45.536C170.906 48.8 176.09 47.664 176.09 49.616C176.09 50.336 175.45 50.912 174.298 50.912C173.066 50.912 172.314 50.272 172.234 49.424H170.73C170.826 51.024 172.266 52.144 174.314 52.144C176.25 52.144 177.514 51.056 177.514 49.616ZM185.574 49.616C185.51 46.48 180.422 47.616 180.422 45.536C180.422 44.832 181.062 44.32 182.134 44.32C183.302 44.32 183.974 44.96 184.038 45.84H185.494C185.398 44.128 184.118 43.088 182.182 43.088C180.23 43.088 178.966 44.192 178.966 45.536C178.966 48.8 184.15 47.664 184.15 49.616C184.15 50.336 183.51 50.912 182.358 50.912C181.126 50.912 180.374 50.272 180.294 49.424H178.79C178.886 51.024 180.326 52.144 182.374 52.144C184.31 52.144 185.574 51.056 185.574 49.616ZM191.615 49.6C191.615 51.36 192.495 52 194.047 52H195.359V50.768H194.286C193.391 50.768 193.071 50.464 193.071 49.6V44.432H195.359V43.232H193.071V41.024H191.615V43.232H190.479V44.432H191.615V49.6ZM205.143 47.6C205.143 44.832 203.207 43.088 200.711 43.088C198.231 43.088 196.279 44.832 196.279 47.6C196.279 50.384 198.167 52.144 200.647 52.144C203.143 52.144 205.143 50.384 205.143 47.6ZM197.767 47.6C197.767 45.392 199.159 44.352 200.695 44.352C202.199 44.352 203.655 45.392 203.655 47.6C203.655 49.824 202.167 50.864 200.647 50.864C199.127 50.864 197.767 49.824 197.767 47.6ZM212.179 44.848V43.232H210.723V56.16H212.179V50.384C212.723 51.28 213.859 52.144 215.459 52.144C217.811 52.144 219.619 50.304 219.619 47.584C219.619 44.848 217.811 43.088 215.459 43.088C213.859 43.088 212.707 43.92 212.179 44.848ZM218.131 47.584C218.131 49.648 216.771 50.864 215.155 50.864C213.571 50.864 212.179 49.664 212.179 47.6C212.179 45.568 213.571 44.352 215.155 44.352C216.771 44.352 218.131 45.52 218.131 47.584ZM222.691 47.232C222.691 45.2 223.747 44.576 225.139 44.576H225.523V43.072C224.131 43.072 223.187 43.68 222.691 44.656V43.232H221.235V52H222.691V47.232ZM230.632 44.32C232.136 44.32 233.416 45.264 233.4 46.976H227.864C228.024 45.264 229.208 44.32 230.632 44.32ZM234.728 49.296H233.16C232.84 50.24 232.008 50.912 230.696 50.912C229.208 50.912 227.96 49.936 227.848 48.16H234.856C234.888 47.856 234.904 47.6 234.904 47.28C234.904 44.88 233.24 43.088 230.696 43.088C228.136 43.088 226.36 44.832 226.36 47.6C226.36 50.384 228.2 52.144 230.696 52.144C232.872 52.144 234.28 50.896 234.728 49.296ZM249.182 52H250.622V46.832C250.622 44.32 249.07 43.072 247.07 43.072C245.726 43.072 244.478 43.76 243.966 45.024C243.39 43.712 242.19 43.072 240.75 43.072C239.598 43.072 238.558 43.568 237.982 44.496V43.232H236.526V52H237.982V47.168C237.982 45.28 238.99 44.336 240.462 44.336C241.902 44.336 242.862 45.248 242.862 47.04V52H244.302V47.168C244.302 45.28 245.31 44.336 246.782 44.336C248.222 44.336 249.182 45.248 249.182 47.04V52ZM252.71 52H254.166V43.232H252.71V52ZM253.462 41.808C253.99 41.808 254.422 41.376 254.422 40.816C254.422 40.256 253.99 39.824 253.462 39.824C252.902 39.824 252.47 40.256 252.47 40.816C252.47 41.376 252.902 41.808 253.462 41.808ZM264.124 43.232H262.668V48.048C262.668 49.936 261.66 50.864 260.156 50.864C258.684 50.864 257.708 49.952 257.708 48.176V43.232H256.268V48.368C256.268 50.88 257.852 52.128 259.868 52.128C261.036 52.128 262.108 51.616 262.668 50.704V52H264.124V43.232ZM278.938 52H280.378V46.832C280.378 44.32 278.826 43.072 276.826 43.072C275.482 43.072 274.234 43.76 273.722 45.024C273.146 43.712 271.946 43.072 270.506 43.072C269.354 43.072 268.314 43.568 267.738 44.496V43.232H266.282V52H267.738V47.168C267.738 45.28 268.746 44.336 270.218 44.336C271.658 44.336 272.618 45.248 272.618 47.04V52H274.058V47.168C274.058 45.28 275.066 44.336 276.538 44.336C277.978 44.336 278.938 45.248 278.938 47.04V52ZM67.6568 71.6C67.6568 74.384 69.4328 76.144 71.9288 76.144C74.1048 76.144 75.5288 74.928 75.9768 73.184H74.4088C74.0888 74.288 73.2248 74.912 71.9288 74.912C70.3288 74.912 69.1448 73.776 69.1448 71.6C69.1448 69.456 70.3288 68.32 71.9288 68.32C73.2248 68.32 74.1048 68.992 74.4088 70.048H75.9768C75.5288 68.208 74.1048 67.088 71.9288 67.088C69.4328 67.088 67.6568 68.848 67.6568 71.6ZM85.9395 71.6C85.9395 68.832 84.0035 67.088 81.5075 67.088C79.0275 67.088 77.0755 68.832 77.0755 71.6C77.0755 74.384 78.9635 76.144 81.4435 76.144C83.9395 76.144 85.9395 74.384 85.9395 71.6ZM78.5635 71.6C78.5635 69.392 79.9555 68.352 81.4915 68.352C82.9955 68.352 84.4515 69.392 84.4515 71.6C84.4515 73.824 82.9635 74.864 81.4435 74.864C79.9235 74.864 78.5635 73.824 78.5635 71.6ZM93.9699 76H95.4099V70.832C95.4099 68.32 93.8579 67.072 91.8259 67.072C90.6419 67.072 89.5859 67.568 89.0099 68.48V67.232H87.5539V76H89.0099V71.152C89.0099 69.264 90.0339 68.336 91.5219 68.336C92.9939 68.336 93.9699 69.248 93.9699 71.04V76ZM97.8082 73.6C97.8082 75.36 98.6882 76 100.24 76H101.552V74.768H100.48C99.5842 74.768 99.2642 74.464 99.2642 73.6V68.432H101.552V67.232H99.2642V65.024H97.8082V67.232H96.6722V68.432H97.8082V73.6ZM106.744 68.32C108.248 68.32 109.528 69.264 109.512 70.976H103.976C104.136 69.264 105.32 68.32 106.744 68.32ZM110.84 73.296H109.272C108.952 74.24 108.12 74.912 106.808 74.912C105.32 74.912 104.072 73.936 103.96 72.16H110.968C111 71.856 111.016 71.6 111.016 71.28C111.016 68.88 109.352 67.088 106.808 67.088C104.248 67.088 102.472 68.832 102.472 71.6C102.472 74.384 104.312 76.144 106.808 76.144C108.984 76.144 110.392 74.896 110.84 73.296ZM119.054 76H120.494V70.832C120.494 68.32 118.942 67.072 116.91 67.072C115.726 67.072 114.67 67.568 114.094 68.48V67.232H112.638V76H114.094V71.152C114.094 69.264 115.118 68.336 116.606 68.336C118.078 68.336 119.054 69.248 119.054 71.04V76ZM122.893 73.6C122.893 75.36 123.773 76 125.325 76H126.637V74.768H125.565C124.669 74.768 124.349 74.464 124.349 73.6V68.432H126.637V67.232H124.349V65.024H122.893V67.232H121.757V68.432H122.893V73.6ZM131.522 71.584C131.522 74.304 133.33 76.144 135.666 76.144C137.282 76.144 138.418 75.312 138.946 74.368V76H140.418V67.232H138.946V68.832C138.434 67.92 137.314 67.088 135.682 67.088C133.33 67.088 131.522 68.848 131.522 71.584ZM138.946 71.6C138.946 73.664 137.57 74.864 135.97 74.864C134.37 74.864 133.01 73.648 133.01 71.584C133.01 69.52 134.37 68.352 135.97 68.352C137.57 68.352 138.946 69.568 138.946 71.6ZM148.995 76H150.435V70.832C150.435 68.32 148.883 67.072 146.851 67.072C145.667 67.072 144.611 67.568 144.035 68.48V67.232H142.579V76H144.035V71.152C144.035 69.264 145.059 68.336 146.547 68.336C148.019 68.336 148.995 69.248 148.995 71.04V76ZM151.969 71.584C151.969 74.304 153.777 76.144 156.129 76.144C157.729 76.144 158.865 75.328 159.393 74.352V76H160.865V64.16H159.393V68.8C158.785 67.792 157.521 67.088 156.145 67.088C153.777 67.088 151.969 68.848 151.969 71.584ZM159.393 71.6C159.393 73.664 158.017 74.864 156.417 74.864C154.817 74.864 153.457 73.648 153.457 71.584C153.457 69.52 154.817 68.352 156.417 68.352C158.017 68.352 159.393 69.568 159.393 71.6ZM167.263 76H168.719V68.432H170.559V67.232H168.719V66.608C168.719 65.472 169.151 64.992 170.463 64.992V63.776C168.223 63.776 167.263 64.656 167.263 66.608V67.232H166.127V68.432H167.263V76ZM175.685 68.32C177.189 68.32 178.469 69.264 178.453 70.976H172.917C173.077 69.264 174.261 68.32 175.685 68.32ZM179.781 73.296H178.213C177.893 74.24 177.061 74.912 175.749 74.912C174.261 74.912 173.013 73.936 172.901 72.16H179.909C179.941 71.856 179.957 71.6 179.957 71.28C179.957 68.88 178.293 67.088 175.749 67.088C173.189 67.088 171.413 68.832 171.413 71.6C171.413 74.384 173.253 76.144 175.749 76.144C177.925 76.144 179.333 74.896 179.781 73.296ZM181.035 71.584C181.035 74.304 182.843 76.144 185.179 76.144C186.795 76.144 187.931 75.312 188.459 74.368V76H189.931V67.232H188.459V68.832C187.947 67.92 186.827 67.088 185.195 67.088C182.843 67.088 181.035 68.848 181.035 71.584ZM188.459 71.6C188.459 73.664 187.083 74.864 185.483 74.864C183.883 74.864 182.523 73.648 182.523 71.584C182.523 69.52 183.883 68.352 185.483 68.352C187.083 68.352 188.459 69.568 188.459 71.6ZM192.411 73.6C192.411 75.36 193.291 76 194.843 76H196.155V74.768H195.083C194.187 74.768 193.867 74.464 193.867 73.6V68.432H196.155V67.232H193.867V65.024H192.411V67.232H191.275V68.432H192.411V73.6ZM205.395 67.232H203.939V72.048C203.939 73.936 202.931 74.864 201.427 74.864C199.955 74.864 198.979 73.952 198.979 72.176V67.232H197.539V72.368C197.539 74.88 199.123 76.128 201.139 76.128C202.307 76.128 203.379 75.616 203.939 74.704V76H205.395V67.232ZM209.01 71.232C209.01 69.2 210.066 68.576 211.458 68.576H211.842V67.072C210.45 67.072 209.506 67.68 209.01 68.656V67.232H207.554V76H209.01V71.232ZM216.951 68.32C218.455 68.32 219.735 69.264 219.719 70.976H214.183C214.343 69.264 215.527 68.32 216.951 68.32ZM221.047 73.296H219.479C219.159 74.24 218.327 74.912 217.015 74.912C215.527 74.912 214.279 73.936 214.167 72.16H221.175C221.207 71.856 221.223 71.6 221.223 71.28C221.223 68.88 219.559 67.088 217.015 67.088C214.455 67.088 212.679 68.832 212.679 71.6C212.679 74.384 214.519 76.144 217.015 76.144C219.191 76.144 220.599 74.896 221.047 73.296ZM229.149 73.616C229.085 70.48 223.997 71.616 223.997 69.536C223.997 68.832 224.637 68.32 225.709 68.32C226.877 68.32 227.549 68.96 227.613 69.84H229.069C228.973 68.128 227.693 67.088 225.757 67.088C223.805 67.088 222.541 68.192 222.541 69.536C222.541 72.8 227.725 71.664 227.725 73.616C227.725 74.336 227.085 74.912 225.933 74.912C224.701 74.912 223.949 74.272 223.869 73.424H222.365C222.461 75.024 223.901 76.144 225.949 76.144C227.885 76.144 229.149 75.056 229.149 73.616ZM232.328 75.104C232.328 74.544 231.896 74.112 231.368 74.112C230.808 74.112 230.376 74.544 230.376 75.104C230.376 75.664 230.808 76.096 231.368 76.096C231.896 76.096 232.328 75.664 232.328 75.104Z" fill="#242424" fill-opacity="0.8"/>
</svg>
