<svg width="25" height="24" viewBox="0 0 25 24" fill="none" xmlns="http://www.w3.org/2000/svg">
<path d="M15.75 7C15.75 8.79493 14.2949 10.25 12.5 10.25V11.75C15.1234 11.75 17.25 9.62335 17.25 7H15.75ZM12.5 10.25C10.7051 10.25 9.25 8.79493 9.25 7H7.75C7.75 9.62335 9.87665 11.75 12.5 11.75V10.25ZM9.25 7C9.25 5.20507 10.7051 3.75 12.5 3.75V2.25C9.87665 2.25 7.75 4.37665 7.75 7H9.25ZM12.5 3.75C14.2949 3.75 15.75 5.20507 15.75 7H17.25C17.25 4.37665 15.1234 2.25 12.5 2.25V3.75ZM18.75 17.5C18.75 18.0294 18.3014 18.7105 17.1143 19.3041C15.9722 19.8751 14.3418 20.25 12.5 20.25V21.75C14.5242 21.75 16.3938 21.3414 17.7852 20.6457C19.1316 19.9725 20.25 18.9036 20.25 17.5H18.75ZM12.5 20.25C10.6582 20.25 9.02782 19.8751 7.88566 19.3041C6.69864 18.7105 6.25 18.0294 6.25 17.5H4.75C4.75 18.9036 5.86836 19.9725 7.21484 20.6457C8.60618 21.3414 10.4758 21.75 12.5 21.75V20.25ZM6.25 17.5C6.25 16.9706 6.69864 16.2895 7.88566 15.6959C9.02782 15.1249 10.6582 14.75 12.5 14.75V13.25C10.4758 13.25 8.60618 13.6586 7.21484 14.3543C5.86836 15.0275 4.75 16.0964 4.75 17.5H6.25ZM12.5 14.75C14.3418 14.75 15.9722 15.1249 17.1143 15.6959C18.3014 16.2895 18.75 16.9706 18.75 17.5H20.25C20.25 16.0964 19.1316 15.0275 17.7852 14.3543C16.3938 13.6586 14.5242 13.25 12.5 13.25V14.75Z" fill="#28303F"/>
</svg>
